SplineFontDB: 3.0
FontName: FreeMonoOblique
FullName: FreeMono Oblique
FamilyName: FreeMono
Weight: Book
Copyright: Copyright 2002, 2003, 2005, 2008, 2009, 2010, 2012 GNU Freefont contributors.
Version: $Revision: 2989 $
ItalicAngle: -12
UnderlinePosition: -100
UnderlineWidth: 50
Ascent: 800
Descent: 200
LayerCount: 2
Layer: 0 0 "Back"  1
Layer: 1 0 "Fore"  0
FSType: 0
OS2Version: 3
OS2_WeightWidthSlopeOnly: 0
OS2_UseTypoMetrics: 1
CreationTime: 1203284335
ModificationTime: 1413579280
PfmFamily: 49
TTFWeight: 400
TTFWidth: 5
LineGap: 0
VLineGap: 0
Panose: 2 15 4 9 2 2 5 9 4 4
OS2TypoAscent: 800
OS2TypoAOffset: 0
OS2TypoDescent: -200
OS2TypoDOffset: 0
OS2TypoLinegap: 0
OS2WinAscent: 0
OS2WinAOffset: 1
OS2WinDescent: 0
OS2WinDOffset: 1
HheadAscent: 800
HheadAOffset: 0
HheadDescent: -200
HheadDOffset: 0
OS2SubXSize: 650
OS2SubYSize: 699
OS2SubXOff: 47
OS2SubYOff: 140
OS2SupXSize: 650
OS2SupYSize: 699
OS2SupXOff: -163
OS2SupYOff: 479
OS2StrikeYSize: 49
OS2StrikeYPos: 258
OS2FamilyClass: 1285
OS2Vendor: 'GNU '
Lookup: 1 0 0 "'locl' local. forms in Greek"  {"'locl' local. forms in Greek-1"  } ['locl' ('grek' <'ELL ' > ) ]
Lookup: 1 0 0 "'dnom' denominators"  {"'dnom' denominators-1"  } []
Lookup: 1 0 0 "'numr' numerators"  {"'numr' numerators-1"  } []
Lookup: 4 0 0 "'ccmp' glyph compos. in Latin for Viet 1"  {"'ccmp' Glyph Composition in Latin for Viet horn"  "'ccmp' Glyph Composition in Latin for Viet 1 subtable"  } ['ccmp' ('latn' <'VIT ' > ) ]
Lookup: 4 0 0 "'ccmp' glyph compos in Latin for Viet 2"  {"'ccmp' Glyph Composition in Latin for Viet 2 subtable"  } ['ccmp' ('latn' <'VIT ' > ) ]
Lookup: 1 0 0 "'locl' local. forms in Latin for Sami"  {"'locl' Localized Forms for Sami-1"  } ['locl' ('latn' <'ISM ' 'LSM ' 'NSM ' 'SKS ' > ) ]
Lookup: 4 1 0 "'liga' std. ligatures in Hebrew"  {"'liga' std. ligatures in Hebrew subtable"  } ['liga' ('hebr' <'dflt' > ) ]

StartChar: exclam
Encoding: 33 33 1
Width: 600
Flags: HMW
LayerCount: 2
Fore
SplineSet
458 563 m 2
 370 237 l 1
 365 217 357 209 343 209 c 0
 335 209 328 216 328 224 c 0
 328 228 328 231 329 237 c 2
 380 563 l 2
 386 601 402 618 431 618 c 0
 449 618 463 606 463 589 c 0
 463 584 461 575 458 563 c 2
311 85 m 2
 323 85 l 2
 350 85 368 69 368 45 c 0
 368 13 337 -15 302 -15 c 2
 290 -15 l 2
 264 -15 246 1 246 24 c 0
 246 57 277 85 311 85 c 2
EndSplineSet
Validated: 3073
EndChar

StartChar: numbersign
Encoding: 35 35 3
Width: 600
Flags: HMW
LayerCount: 2
Fore
SplineSet
466 356 m 1
 430 230 l 1
 510 230 l 2
 527 230 534 225 534 214 c 0
 534 199 521 189 501 189 c 2
 419 189 l 1
 355 -36 l 2
 350 -54 342 -62 329 -62 c 0
 320 -62 313 -55 313 -46 c 0
 313 -43 313 -39 315 -33 c 0
 378 189 l 1
 287 189 l 1
 224 -36 l 2
 219 -54 210 -62 197 -62 c 0
 188 -62 181 -55 181 -46 c 0
 181 -43 181 -43 184 -33 c 2
 247 189 l 1
 160 189 l 2
 144 189 137 194 137 205 c 0
 137 221 149 230 169 230 c 2
 258 230 l 1
 294 356 l 1
 216 356 l 2
 199 356 192 361 192 372 c 0
 192 388 204 397 225 397 c 2
 305 397 l 1
 369 622 l 2
 374 639 382 647 395 647 c 0
 404 647 411 640 411 632 c 0
 411 629 410 623 409 619 c 2
 346 397 l 1
 437 397 l 1
 500 622 l 2
 505 639 514 647 526 647 c 0
 536 647 543 640 543 632 c 0
 543 629 543 629 540 619 c 2
 477 397 l 1
 566 397 l 2
 583 397 589 392 589 381 c 0
 589 366 577 356 557 356 c 2
 466 356 l 1
425 356 m 1
 334 356 l 1
 299 230 l 1
 390 230 l 1
 425 356 l 1
EndSplineSet
Validated: 3073
EndChar

StartChar: dollar
Encoding: 36 36 4
Width: 600
Flags: HMW
LayerCount: 2
Fore
SplineSet
492 220 m 0
 492 340 225 263 225 409 c 0
 225 489 305 565 403 576 c 1
 414 628 l 2
 418 646 426 655 440 655 c 0
 449 655 456 648 456 639 c 0
 456 616 448 597 444 576 c 1
 487 572 508 562 539 534 c 1
 544 553 553 563 566 563 c 0
 575 563 582 556 582 548 c 0
 582 545 582 543 580 536 c 0
 567 476 l 1
 564 458 554 448 542 448 c 0
 535 448 530 452 525 461 c 1
 527 485 l 2
 527 494 487 539 416 539 c 0
 342 539 267 478 267 418 c 0
 267 306 534 381 534 232 c 0
 534 140 450 66 333 54 c 1
 307 -65 l 2
 303 -83 295 -92 281 -92 c 0
 272 -92 265 -85 265 -76 c 0
 265 -28 285 9 292 54 c 1
 246 56 197 79 177 108 c 1
 172 89 169 65 147 65 c 0
 139 65 131 72 131 80 c 0
 131 82 132 88 133 92 c 2
 149 171 l 1
 153 188 163 199 176 199 c 0
 181 199 187 195 192 187 c 1
 189 155 l 2
 189 146 233 92 320 92 c 0
 412 92 492 151 492 220 c 0
EndSplineSet
Validated: 3073
EndChar

StartChar: percent
Encoding: 37 37 5
Width: 600
Flags: HMW
LayerCount: 2
Fore
SplineSet
412 236 m 0
 470 236 511 196 511 137 c 0
 511 61 437 -12 358 -12 c 0
 302 -12 260 30 260 86 c 0
 260 163 334 236 412 236 c 0
403 198 m 0
 350 198 299 147 299 94 c 0
 299 55 327 26 366 26 c 0
 421 26 472 76 472 131 c 0
 472 170 444 198 403 198 c 0
367 611 m 0
 426 611 467 570 467 512 c 0
 467 436 393 363 314 363 c 0
 257 363 216 405 216 462 c 0
 216 538 290 611 367 611 c 0
360 573 m 0
 306 573 255 522 255 469 c 0
 255 430 284 401 322 401 c 0
 377 401 428 451 428 505 c 0
 428 545 400 573 360 573 c 0
569 344 m 2
 163 222 l 2
 159 220 154 220 151 220 c 0
 143 220 137 227 137 235 c 0
 137 245 145 253 159 258 c 2
 565 380 l 2
 570 381 573 382 578 382 c 0
 585 382 591 375 591 367 c 0
 591 356 584 348 569 344 c 2
EndSplineSet
Validated: 3073
EndChar

StartChar: ampersand
Encoding: 38 38 6
Width: 600
Flags: HMW
LayerCount: 2
Fore
SplineSet
393 0 m 1
 372 48 l 1
 334 5 293 -16 247 -16 c 0
 181 -16 132 37 132 108 c 0
 132 189 192 263 277 287 c 1
 253 348 249 359 249 379 c 0
 249 449 324 519 399 519 c 0
 422 519 442 513 461 499 c 1
 468 503 482 510 490 510 c 0
 498 510 505 502 505 494 c 0
 505 483 499 476 483 468 c 2
 448 452 l 1
 431 470 414 478 391 478 c 0
 341 478 290 429 290 381 c 0
 290 364 297 339 314 298 c 2
 388 121 l 1
 417 159 440 200 461 249 c 1
 504 249 l 2
 521 249 527 245 527 233 c 0
 527 217 515 208 495 208 c 2
 483 208 l 1
 457 154 429 110 403 82 c 1
 422 41 l 1
 460 41 l 2
 476 41 483 37 483 25 c 0
 483 10 470 0 451 0 c 2
 393 0 l 1
357 86 m 1
 287 251 l 1
 222 237 174 180 174 116 c 0
 174 65 209 25 255 25 c 0
 290 25 326 47 357 86 c 1
EndSplineSet
Validated: 3073
EndChar

StartChar: quotesingle
Encoding: 39 39 7
Width: 600
Flags: HMW
LayerCount: 2
Fore
SplineSet
364 604 m 1
 492 604 l 1
 405 351 l 1
 396 326 384 315 367 315 c 0
 353 315 344 325 344 341 c 2
 344 351 l 1
 364 604 l 1
EndSplineSet
Validated: 3073
EndChar

StartChar: parenleft
Encoding: 40 40 8
Width: 600
Flags: HMW
LayerCount: 2
Fore
SplineSet
411 -124 m 0
 386 -124 335 33 335 138 c 0
 335 268 381 383 493 530 c 0
 536 586 553 604 566 604 c 0
 576 604 583 597 583 588 c 0
 583 581 583 581 572 567 c 0
 449 406 394 270 394 124 c 0
 394 56 406 -9 435 -93 c 0
 436 -96 437 -99 437 -101 c 0
 437 -112 424 -124 411 -124 c 0
EndSplineSet
Validated: 3073
Substitution2: "'dnom' denominators-1" parenleftinferior
Substitution2: "'numr' numerators-1" parenleftsuperior
EndChar

StartChar: parenright
Encoding: 41 41 9
Width: 600
Flags: HMW
LayerCount: 2
Fore
SplineSet
296 604 m 0
 323 604 372 440 372 342 c 0
 372 212 326 97 214 -50 c 0
 172 -106 154 -124 141 -124 c 0
 131 -124 124 -117 124 -108 c 0
 124 -103 125 -99 130 -93 c 0
 256 69 313 208 313 356 c 0
 313 424 301 489 272 573 c 0
 271 576 270 579 270 581 c 0
 270 592 283 604 296 604 c 0
EndSplineSet
Validated: 3073
Substitution2: "'dnom' denominators-1" parenrightinferior
Substitution2: "'numr' numerators-1" parenrightsuperior
EndChar

StartChar: asterisk
Encoding: 42 42 10
Width: 600
Flags: HMW
LayerCount: 2
Fore
SplineSet
372 438 m 1
 402 577 l 2
 406 595 414 604 428 604 c 0
 437 604 444 597 444 589 c 0
 444 534 421 490 413 438 c 1
 556 481 l 2
 561 483 568 484 571 484 c 0
 579 484 586 476 586 468 c 0
 586 455 578 448 560 442 c 2
 417 400 l 1
 475 288 l 2
 477 284 479 276 479 273 c 0
 479 262 466 250 454 250 c 0
 446 250 443 253 437 264 c 2
 379 376 l 1
 274 264 l 2
 264 254 258 250 251 250 c 0
 241 250 234 257 234 266 c 0
 234 274 235 277 246 288 c 0
 351 400 l 1
 227 442 l 1
 219 445 211 448 211 458 c 0
 211 471 223 483 236 483 c 0
 240 483 241 483 249 480 c 2
 372 438 l 1
EndSplineSet
Validated: 3073
EndChar

StartChar: plus
Encoding: 43 43 11
Width: 600
Flags: HMW
LayerCount: 2
Fore
SplineSet
375 261 m 1
 332 59 l 2
 328 41 320 32 306 32 c 0
 297 32 290 39 290 47 c 0
 301 122 320 189 334 261 c 1
 154 261 l 2
 138 261 131 266 131 277 c 0
 131 292 143 302 162 302 c 2
 343 302 l 1
 386 503 l 1
 389 521 398 530 412 530 c 0
 421 530 428 523 428 514 c 0
 416 440 398 373 384 302 c 1
 564 302 l 2
 581 302 588 298 588 286 c 0
 588 271 575 261 556 261 c 2
 375 261 l 1
EndSplineSet
Validated: 3073
Substitution2: "'dnom' denominators-1" plusinferior
Substitution2: "'numr' numerators-1" plussuperior
EndChar

StartChar: comma
Encoding: 44 44 12
Width: 600
Flags: HMW
LayerCount: 2
Fore
SplineSet
238 145 m 1
 371 145 l 1
 170 -120 l 2
 155 -139 147 -145 133 -145 c 0
 120 -145 110 -135 110 -122 c 0
 110 -117 112 -111 115 -105 c 2
 238 145 l 1
EndSplineSet
Validated: 3073
Substitution2: "'dnom' denominators-1" sub.comma
Substitution2: "'numr' numerators-1" sup.comma
EndChar

StartChar: hyphen
Encoding: 45 45 13
Width: 600
Flags: HMW
LayerCount: 2
Fore
SplineSet
556 258 m 2
 154 258 l 2
 138 258 131 263 131 274 c 0
 131 290 143 299 163 299 c 2
 565 299 l 2
 581 299 588 294 588 283 c 0
 588 268 576 258 556 258 c 2
EndSplineSet
Validated: 3073
EndChar

StartChar: period
Encoding: 46 46 14
Width: 600
Flags: HMW
LayerCount: 2
Fore
SplineSet
319 116 m 2
 330 116 l 2
 363 116 386 95 386 64 c 0
 386 22 346 -15 302 -15 c 2
 291 -15 l 2
 258 -15 235 6 235 37 c 0
 235 79 275 116 319 116 c 2
EndSplineSet
Validated: 3073
Substitution2: "'dnom' denominators-1" sub.period
Substitution2: "'numr' numerators-1" sup.period
EndChar

StartChar: slash
Encoding: 47 47 15
Width: 600
Flags: HMW
LayerCount: 2
Fore
SplineSet
617 633 m 0
 141 -63 l 2
 131 -77 125 -81 115 -81 c 0
 107 -81 99 -74 99 -65 c 0
 99 -60 101 -55 107 -46 c 2
 583 650 l 2
 592 664 599 668 608 668 c 0
 618 668 625 661 625 652 c 0
 625 647 624 643 617 633 c 0
EndSplineSet
Validated: 3073
EndChar

StartChar: zero
Encoding: 48 48 16
Width: 600
Flags: HMW
LayerCount: 2
Fore
SplineSet
571 441 m 0
 571 350 516 -15 298 -15 c 0
 208 -15 156 50 156 162 c 0
 156 191 160 221 166 251 c 0
 187 351 l 2
 220 509 320 618 430 618 c 0
 519 618 571 553 571 441 c 0
422 577 m 0
 244 577 200 248 200 178 c 0
 200 77 235 26 305 26 c 0
 385 26 469 115 500 257 c 2
 519 346 l 2
 524 370 527 398 527 425 c 0
 527 526 492 577 422 577 c 0
EndSplineSet
Validated: 3073
Substitution2: "'dnom' denominators-1" zeroinferior
Substitution2: "'numr' numerators-1" zerosuperior
Substitution2: "'zero' slashed zero-1" zeroslashed
EndChar

StartChar: one
Encoding: 49 49 17
Width: 600
Flags: HMW
LayerCount: 2
Fore
SplineSet
451.085 612 m 1
 329.715 41 l 1
 468.715 41 l 2
 484.298 41 492.021 35.7534 492.021 25.9092 c 0
 492.021 15.5455 485.616 0 460 0 c 2
 141 0 l 2
 125.358 0 116.881 5.28601 116.881 15.858 c 0
 116.881 25.9148 122.191 41 149.715 41 c 2
 288.715 41 l 1
 398.606 558 l 1
 261.588 445 l 2
 255.222 439.75 246.888 437 238.888 437 c 0
 229.709 437 224.098 443.963 224.098 453.823 c 0
 224.098 464.294 229.076 470.968 240.027 480 c 2
 400.085 612 l 1
 451.085 612 l 1
EndSplineSet
Validated: 3073
Substitution2: "'dnom' denominators-1" oneinferior
Substitution2: "'numr' numerators-1" onesuperior
EndChar

StartChar: two
Encoding: 50 50 18
Width: 600
Flags: HMW
LayerCount: 2
Fore
SplineSet
203 466 m 0
 203 500 291 618 424 618 c 0
 505 618 572 555 572 479 c 0
 572 427 552 388 496 334 c 0
 453 293 188 83 132 41 c 1
 446 41 l 1
 450 64 452 104 480 104 c 0
 489 104 496 97 496 89 c 0
 496 86 496 85 494 77 c 0
 478 0 l 1
 84 0 l 1
 97 60 l 1
 380 282 l 1
 507 385 530 414 530 471 c 0
 530 529 478 577 414 577 c 0
 273 577 251 452 219 452 c 0
 211 452 203 459 203 466 c 0
EndSplineSet
Validated: 3073
Substitution2: "'dnom' denominators-1" twoinferior
Substitution2: "'numr' numerators-1" twosuperior
EndChar

StartChar: three
Encoding: 51 51 19
Width: 600
Flags: HMW
LayerCount: 2
Fore
SplineSet
237 525 m 0
 237 546 323 618 433 618 c 0
 520 618 579 567 579 493 c 0
 579 422 528 361 444 328 c 1
 505 301 538 254 538 197 c 0
 538 89 415 -15 287 -15 c 0
 212 -15 110 34 110 64 c 0
 110 76 122 88 133 88 c 0
 157 88 183 26 297 26 c 0
 400 26 496 107 496 193 c 0
 496 259 428 312 346 312 c 0
 330 312 322 317 322 328 c 0
 322 350 342 353 380 353 c 0
 466 353 537 413 537 485 c 0
 537 539 491 577 424 577 c 0
 301 577 281 509 253 509 c 0
 244 509 237 515 237 525 c 0
EndSplineSet
Validated: 3073
Substitution2: "'dnom' denominators-1" threeinferior
Substitution2: "'numr' numerators-1" threesuperior
EndChar

StartChar: four
Encoding: 52 52 20
Width: 600
Flags: HMW
LayerCount: 2
Fore
SplineSet
412 169 m 1
 141 169 l 1
 151 216 l 1
 461 604 l 1
 545 604 l 1
 461 210 l 1
 495 210 l 2
 512 210 518 206 518 194 c 0
 518 178 506 169 487 169 c 2
 453 169 l 1
 425 41 l 1
 459 41 l 2
 476 41 483 36 483 25 c 0
 483 10 470 0 451 0 c 2
 300 0 l 2
 284 0 277 5 277 16 c 0
 277 32 289 41 309 41 c 2
 385 41 l 1
 412 169 l 1
420 210 m 1
 495 563 l 1
 472 563 l 1
 189 210 l 1
 420 210 l 1
EndSplineSet
Validated: 3073
Substitution2: "'dnom' denominators-1" fourinferior
Substitution2: "'numr' numerators-1" foursuperior
EndChar

StartChar: five
Encoding: 53 53 21
Width: 600
Flags: HMW
LayerCount: 2
Fore
SplineSet
392 354 m 0
 312 354 252 313 235 313 c 0
 227 313 221 319 220 328 c 0
 220 330 220 333 221 335 c 1
 278 604 l 1
 560 604 l 2
 577 604 584 599 584 588 c 0
 584 572 572 563 552 563 c 2
 310 563 l 1
 268 365 l 1
 324 386 363 395 405 395 c 0
 491 395 548 338 548 250 c 0
 548 108 429 -15 292 -15 c 0
 184 -15 113 59 113 78 c 0
 113 90 125 102 138 102 c 0
 161 102 184 26 299 26 c 0
 463 26 506 193 506 242 c 0
 506 311 462 354 392 354 c 0
EndSplineSet
Validated: 3073
Substitution2: "'dnom' denominators-1" fiveinferior
Substitution2: "'numr' numerators-1" fivesuperior
EndChar

StartChar: six
Encoding: 54 54 22
Width: 600
Flags: HMW
LayerCount: 2
Fore
SplineSet
608 563 m 0
 592 563 592 577 546 577 c 0
 429 577 261 471 228 242 c 1
 287 324 349 364 420 364 c 0
 497 364 552 304 552 219 c 0
 552 99 445 -15 333 -15 c 0
 242 -15 184 60 184 179 c 0
 184 308 235 434 319 513 c 0
 390 580 478 618 560 618 c 0
 598 618 631 604 631 587 c 0
 631 575 620 563 608 563 c 0
412 323 m 0
 335 323 277 259 222 188 c 1
 225 119 240 26 343 26 c 0
 429 26 510 116 510 212 c 0
 510 275 468 323 412 323 c 0
EndSplineSet
Validated: 3073
Substitution2: "'dnom' denominators-1" sixinferior
Substitution2: "'numr' numerators-1" sixsuperior
EndChar

StartChar: seven
Encoding: 55 55 23
Width: 600
Flags: HMW
LayerCount: 2
Fore
SplineSet
553 545 m 1
 557 563 l 1
 265 563 l 1
 260 540 259 500 231 500 c 0
 223 500 215 507 215 515 c 0
 215 518 216 523 217 528 c 2
 233 604 l 1
 606 604 l 1
 592 539 l 1
 319 20 l 2
 311 4 305 -1 294 -1 c 0
 285 -1 278 6 278 14 c 0
 278 19 280 24 284 32 c 2
 553 545 l 1
EndSplineSet
Validated: 3073
Substitution2: "'dnom' denominators-1" seveninferior
Substitution2: "'numr' numerators-1" sevensuperior
EndChar

StartChar: eight
Encoding: 56 56 24
Width: 600
Flags: HMW
LayerCount: 2
Fore
SplineSet
576 483 m 0
 576 381 482 331 441 313 c 1
 496 285 524 244 524 192 c 0
 524 87 412 -15 296 -15 c 0
 207 -15 143 45 143 128 c 0
 143 206 197 274 291 313 c 1
 237 344 216 376 216 424 c 0
 216 522 323 618 432 618 c 0
 515 618 576 561 576 483 c 0
422 577 m 0
 338 577 257 504 257 429 c 0
 257 374 305 333 370 333 c 0
 457 333 534 399 534 473 c 0
 534 535 489 577 422 577 c 0
361 293 m 0
 268 293 185 219 185 135 c 0
 185 71 235 26 305 26 c 0
 396 26 482 103 482 184 c 0
 482 250 434 293 361 293 c 0
EndSplineSet
Validated: 3073
Substitution2: "'dnom' denominators-1" eightinferior
Substitution2: "'numr' numerators-1" eightsuperior
EndChar

StartChar: nine
Encoding: 57 57 25
Width: 600
Flags: HMW
LayerCount: 2
Fore
SplineSet
165 40 m 0
 180 40 180 26 227 26 c 0
 346 26 513 137 545 361 c 1
 487 279 424 239 353 239 c 0
 276 239 221 299 221 384 c 0
 221 504 328 618 440 618 c 0
 531 618 589 543 589 424 c 0
 589 295 538 169 454 90 c 0
 383 23 295 -15 213 -15 c 0
 175 -15 142 -1 142 16 c 0
 142 28 153 40 165 40 c 0
361 280 m 0
 438 280 496 344 551 415 c 1
 547 484 534 577 430 577 c 0
 344 577 263 487 263 391 c 0
 263 328 305 280 361 280 c 0
EndSplineSet
Validated: 3073
Substitution2: "'dnom' denominators-1" nineinferior
Substitution2: "'numr' numerators-1" ninesuperior
EndChar

StartChar: colon
Encoding: 58 58 26
Width: 600
Flags: HMW
LayerCount: 2
Fore
SplineSet
319 116 m 2
 330 116 l 2
 363 116 386 95 386 65 c 0
 386 22 346 -15 302 -15 c 2
 291 -15 l 2
 258 -15 235 6 235 37 c 0
 235 79 275 116 319 116 c 2
383 417 m 2
 394 417 l 2
 427 417 450 396 450 365 c 0
 450 323 410 285 366 285 c 2
 355 285 l 2
 322 285 299 306 299 337 c 0
 299 379 339 417 383 417 c 2
EndSplineSet
Validated: 3073
EndChar

StartChar: semicolon
Encoding: 59 59 27
Width: 600
Flags: HMW
LayerCount: 2
Fore
SplineSet
242 145 m 1
 375 145 l 1
 174 -120 l 2
 159 -139 151 -145 138 -145 c 0
 124 -145 114 -135 114 -122 c 0
 114 -117 116 -111 119 -105 c 2
 242 145 l 1
359 417 m 2
 370 417 l 2
 403 417 426 396 426 365 c 0
 426 323 386 285 342 285 c 2
 331 285 l 2
 298 285 275 306 275 337 c 0
 275 379 315 417 359 417 c 2
EndSplineSet
Validated: 3073
EndChar

StartChar: less
Encoding: 60 60 28
Width: 600
Flags: HMW
LayerCount: 2
Fore
SplineSet
535 70 m 0
 535 64 526 44 511 44 c 0
 508 44 503 46 498 49 c 2
 131 281 l 1
 598 513 l 2
 604 516 609 518 611 518 c 0
 621 518 627 509 627 499 c 0
 627 491 621 484 610 478 c 2
 213 281 l 1
 526 84 l 2
 533 79 535 76 535 70 c 0
EndSplineSet
Validated: 3073
EndChar

StartChar: equal
Encoding: 61 61 29
Width: 600
Flags: HMW
LayerCount: 2
Fore
SplineSet
593 334 m 2
 149 334 l 2
 133 334 126 339 126 350 c 0
 126 366 138 375 158 375 c 2
 602 375 l 2
 618 375 625 370 625 359 c 0
 625 344 613 334 593 334 c 2
562 190 m 2
 118 190 l 2
 102 190 95 195 95 206 c 0
 95 222 107 231 127 231 c 2
 571 231 l 2
 587 231 594 226 594 215 c 0
 594 200 582 190 562 190 c 2
EndSplineSet
Validated: 3073
EndChar

StartChar: greater
Encoding: 62 62 30
Width: 600
Flags: HMW
LayerCount: 2
Fore
SplineSet
184 492 m 0
 184 504 198 518 208 518 c 0
 211 518 216 516 221 513 c 2
 588 281 l 1
 121 49 l 2
 115 46 110 44 108 44 c 0
 98 44 92 53 92 63 c 0
 92 71 98 78 109 84 c 2
 506 281 l 1
 193 478 l 2
 186 483 184 486 184 492 c 0
EndSplineSet
Validated: 3073
EndChar

StartChar: question
Encoding: 63 63 31
Width: 600
Flags: HMW
LayerCount: 2
Fore
SplineSet
581 455 m 0
 581 365 523 312 375 247 c 1
 366 206 l 1
 363 188 354 179 340 179 c 0
 331 179 324 186 324 194 c 0
 324 224 335 247 340 274 c 1
 482 328 539 377 539 444 c 0
 539 500 492 536 419 536 c 0
 374 536 340 528 282 502 c 1
 278 479 276 434 248 434 c 0
 238 434 231 441 231 450 c 0
 231 452 232 456 233 461 c 2
 247 529 l 1
 306 549 348 577 433 577 c 0
 525 577 581 531 581 455 c 0
305 85 m 2
 333 85 l 2
 363 85 380 70 380 45 c 0
 380 12 349 -15 312 -15 c 2
 284 -15 l 2
 255 -15 237 0 237 24 c 0
 237 58 268 85 305 85 c 2
EndSplineSet
Validated: 3073
EndChar

StartChar: at
Encoding: 64 64 32
Width: 600
Flags: HMW
LayerCount: 2
Fore
SplineSet
286 -62 m 0
 168 -62 139 47 139 121 c 0
 139 146 141 172 147 198 c 0
 182 361 l 1
 214 513 320 624 433 624 c 0
 510 624 561 574 561 499 c 0
 561 487 560 475 557 463 c 0
 498 186 l 1
 509 184 514 180 514 170 c 0
 514 154 502 145 482 145 c 2
 449 145 l 1
 450 150 l 1
 430 148 419 147 408 147 c 0
 343 147 297 187 297 245 c 0
 297 316 356 384 438 408 c 0
 461 414 477 416 506 416 c 1
 511 440 519 462 519 490 c 0
 519 547 483 583 425 583 c 0
 334 583 250 490 222 358 c 2
 188 198 l 1
 184 176 181 152 181 131 c 0
 181 69 199 -21 301 -21 c 0
 401 -21 409 20 434 20 c 0
 443 20 450 13 450 5 c 0
 450 -27 364 -62 286 -62 c 0
459 192 m 1
 498 376 l 1
 410 376 339 322 339 255 c 0
 339 214 371 188 420 188 c 0
 432 188 446 189 459 192 c 1
EndSplineSet
Validated: 3073
EndChar

StartChar: A
Encoding: 65 65 33
Width: 600
Flags: HMW
AnchorPoint: "above" 400 563 basechar 0
LayerCount: 2
Fore
SplineSet
468 188 m 1
 203 188 l 1
 117 41 l 1
 196 41 l 2
 213 41 219 37 219 25 c 0
 219 10 206 0 187 0 c 2
 36 0 l 2
 20 0 13 5 13 17 c 0
 13 32 25 41 45 41 c 2
 76 41 l 1
 357 522 l 1
 237 522 l 2
 221 522 214 527 214 538 c 0
 214 554 226 563 246 563 c 2
 449 563 l 1
 536 41 l 1
 573 41 l 2
 590 41 596 37 596 25 c 0
 596 10 584 0 564 0 c 2
 408 0 l 2
 392 0 385 5 385 16 c 0
 385 32 397 41 417 41 c 2
 493 41 l 1
 468 188 l 1
462 229 m 1
 412 522 l 1
 397 522 l 1
 227 229 l 1
 462 229 l 1
EndSplineSet
Validated: 3073
EndChar

StartChar: B
Encoding: 66 66 34
Width: 600
Flags: HMW
AnchorPoint: "above" 400 563 basechar 0
LayerCount: 2
Fore
SplineSet
133 41 m 1
 235 522 l 1
 181 522 l 2
 165 522 158 527 158 539 c 0
 158 554 170 563 190 563 c 2
 448 563 l 2
 533 563 591 515 591 445 c 0
 591 383 554 335 477 298 c 1
 544 273 577 234 577 181 c 0
 577 88 479 0 377 0 c 2
 70 0 l 2
 54 0 47 5 47 17 c 0
 47 32 59 41 79 41 c 2
 133 41 l 1
549 437 m 0
 549 483 509 522 440 522 c 2
 276 522 l 1
 232 313 l 1
 379 313 l 2
 474 313 549 368 549 437 c 0
535 175 m 0
 535 214 511 272 372 272 c 2
 223 272 l 1
 174 41 l 1
 382 41 l 2
 463 41 535 104 535 175 c 0
EndSplineSet
Validated: 3073
EndChar

StartChar: C
Encoding: 67 67 35
Width: 600
Flags: HMW
AnchorPoint: "above" 400 563 basechar 0
LayerCount: 2
Fore
SplineSet
570 446 m 2
 570 462 522 536 419 536 c 0
 309 536 197 438 172 319 c 2
 157 248 l 2
 154 233 152 217 152 203 c 0
 152 101 227 25 328 25 c 0
 397 25 454 51 522 115 c 0
 530 123 534 125 542 125 c 0
 552 125 558 119 558 111 c 0
 558 100 551 91 524 67 c 0
 461 14 389 -16 319 -16 c 0
 201 -16 110 76 110 196 c 0
 110 212 112 227 115 242 c 2
 132 325 l 1
 157 442 280 576 428 576 c 0
 494 576 549 552 586 507 c 1
 591 529 593 563 618 563 c 0
 628 563 635 557 635 548 c 0
 635 546 634 541 633 536 c 2
 609 424 l 1
 606 406 596 396 583 396 c 0
 577 396 572 399 566 408 c 1
 570 446 l 2
EndSplineSet
Validated: 3073
EndChar

StartChar: D
Encoding: 68 68 36
Width: 600
Flags: HMW
AnchorPoint: "above" 400 563 basechar 0
LayerCount: 2
Fore
SplineSet
113 41 m 1
 215 522 l 1
 181 522 l 2
 165 522 158 527 158 538 c 0
 158 554 170 563 190 563 c 2
 410 563 l 2
 519 563 592 484 592 368 c 0
 592 348 590 329 586 310 c 2
 574 254 l 2
 544 112 419 0 290 0 c 2
 70 0 l 2
 54 0 47 5 47 16 c 0
 47 32 59 41 79 41 c 2
 113 41 l 1
551 357 m 0
 551 421 521 522 399 522 c 2
 256 522 l 1
 154 41 l 1
 303 41 l 2
 399 41 508 139 531 245 c 2
 547 318 l 2
 549 332 551 346 551 357 c 0
EndSplineSet
Validated: 3073
EndChar

StartChar: E
Encoding: 69 69 37
Width: 600
Flags: HMW
AnchorPoint: "above" 400 563 basechar 0
LayerCount: 2
Fore
SplineSet
223 272 m 1
 174 41 l 1
 488 41 l 1
 513 160 l 2
 517 178 526 187 540 187 c 0
 549 187 556 180 556 172 c 0
 556 169 555 165 554 160 c 2
 520 0 l 1
 70 0 l 2
 54 0 47 5 47 17 c 0
 47 32 59 41 79 41 c 2
 133 41 l 1
 235 522 l 1
 181 522 l 2
 165 522 158 527 158 539 c 0
 158 554 170 563 190 563 c 2
 619 563 l 1
 589 424 l 1
 586 406 577 397 563 397 c 0
 554 397 547 404 547 412 c 0
 547 453 563 484 569 522 c 1
 276 522 l 1
 232 313 l 1
 377 313 l 1
 386 358 l 2
 390 376 399 385 412 385 c 0
 422 385 429 378 429 370 c 0
 429 368 428 362 427 358 c 2
 399 227 l 2
 395 206 387 200 373 200 c 0
 364 200 357 207 357 215 c 0
 357 236 365 253 368 272 c 1
 223 272 l 1
EndSplineSet
Validated: 3073
EndChar

StartChar: F
Encoding: 70 70 38
Width: 600
Flags: HMW
AnchorPoint: "above" 400 563 basechar 0
LayerCount: 2
Fore
SplineSet
223 272 m 1
 174 41 l 1
 312 41 l 2
 329 41 336 36 336 25 c 0
 336 10 323 0 304 0 c 2
 70 0 l 2
 54 0 47 5 47 16 c 0
 47 32 59 41 79 41 c 2
 133 41 l 1
 235 522 l 1
 181 522 l 2
 165 522 158 527 158 538 c 0
 158 554 170 563 190 563 c 2
 640 563 l 1
 610 424 l 1
 607 406 598 397 584 397 c 0
 576 397 568 404 568 412 c 0
 568 453 584 484 590 522 c 1
 276 522 l 1
 232 313 l 1
 377 313 l 1
 386 358 l 1
 390 376 399 385 412 385 c 0
 422 385 429 379 429 370 c 0
 429 368 428 362 427 358 c 2
 399 227 l 1
 396 209 387 200 373 200 c 0
 364 200 357 207 357 215 c 0
 357 236 365 253 368 272 c 1
 223 272 l 1
EndSplineSet
Validated: 3073
EndChar

StartChar: G
Encoding: 71 71 39
Width: 600
Flags: HMW
AnchorPoint: "above" 400 563 basechar 0
LayerCount: 2
Fore
SplineSet
575 465 m 1
 575 480 527 536 428 536 c 0
 313 536 197 438 172 317 c 0
 164 277 150 233 150 187 c 0
 150 86 222 25 341 25 c 0
 393 25 430 33 492 59 c 1
 524 209 l 1
 385 209 l 2
 369 209 362 214 362 225 c 0
 362 241 374 250 394 250 c 2
 588 250 l 2
 605 250 612 245 612 234 c 0
 612 219 599 209 579 209 c 2
 565 209 l 1
 528 36 l 1
 462 2 392 -16 330 -16 c 0
 193 -16 108 59 108 179 c 0
 108 200 110 222 115 244 c 2
 131 318 l 2
 162 463 295 576 436 576 c 0
 502 576 553 558 590 522 c 1
 594 542 599 563 619 563 c 0
 629 563 636 556 636 548 c 0
 636 545 636 544 634 536 c 0
 615 445 l 2
 611 427 601 417 588 417 c 0
 583 417 578 421 572 429 c 1
 575 465 l 1
EndSplineSet
Validated: 3073
EndChar

StartChar: H
Encoding: 72 72 40
Width: 600
Flags: HMW
AnchorPoint: "above" 400 563 basechar 0
LayerCount: 2
Fore
SplineSet
495 272 m 1
 225 272 l 1
 176 41 l 1
 230 41 l 2
 247 41 253 37 253 25 c 0
 253 10 240 0 221 0 c 2
 81 0 l 2
 64 0 57 5 57 16 c 0
 57 32 69 41 89 41 c 2
 135 41 l 1
 237 522 l 1
 212 522 l 2
 196 522 189 527 189 538 c 0
 189 554 201 563 221 563 c 2
 341 563 l 2
 358 563 364 559 364 547 c 0
 364 532 352 522 332 522 c 2
 278 522 l 1
 234 313 l 1
 504 313 l 1
 548 522 l 1
 494 522 l 2
 478 522 471 527 471 538 c 0
 471 554 483 563 503 563 c 2
 623 563 l 2
 640 563 646 559 646 547 c 0
 646 532 634 522 614 522 c 2
 589 522 l 1
 487 41 l 1
 532 41 l 2
 550 41 556 37 556 25 c 0
 556 10 543 0 524 0 c 2
 383 0 l 2
 367 0 360 5 360 16 c 0
 360 32 372 41 392 41 c 2
 446 41 l 1
 495 272 l 1
EndSplineSet
Validated: 3073
EndChar

StartChar: I
Encoding: 73 73 41
Width: 600
Flags: HMW
AnchorPoint: "above" 400 563 basechar 0
LayerCount: 2
Fore
SplineSet
431 522 m 1
 329 41 l 1
 468 41 l 2
 486 41 492 37 492 25 c 0
 492 10 479 0 460 0 c 2
 140 0 l 2
 124 0 117 5 117 16 c 0
 117 32 129 41 148 41 c 2
 288 41 l 1
 390 522 l 1
 251 522 l 2
 235 522 228 527 228 538 c 0
 228 554 240 563 259 563 c 2
 579 563 l 2
 597 563 603 559 603 547 c 0
 603 532 590 522 571 522 c 2
 431 522 l 1
EndSplineSet
Validated: 3073
EndChar

StartChar: J
Encoding: 74 74 42
Width: 600
Flags: HMW
AnchorPoint: "above" 400 563 basechar 0
LayerCount: 2
Fore
SplineSet
571 522 m 1
 495 165 l 2
 474 67 371 -16 269 -16 c 0
 205 -16 158 9 100 74 c 1
 132 223 l 2
 136 241 144 250 158 250 c 0
 167 250 174 243 174 235 c 0
 174 183 153 142 145 93 c 1
 186 47 228 25 278 25 c 0
 360 25 437 87 454 165 c 0
 530 522 l 1
 372 522 l 2
 355 522 348 527 348 538 c 0
 348 554 360 563 380 563 c 2
 676 563 l 2
 693 563 699 559 699 547 c 0
 699 532 687 522 667 522 c 2
 571 522 l 1
EndSplineSet
Validated: 3073
EndChar

StartChar: K
Encoding: 75 75 43
Width: 600
Flags: HMW
AnchorPoint: "above" 400 563 basechar 0
LayerCount: 2
Fore
SplineSet
212 221 m 1
 174 41 l 1
 248 41 l 2
 265 41 272 36 272 25 c 0
 272 10 259 0 240 0 c 2
 70 0 l 2
 54 0 47 5 47 17 c 0
 47 32 59 41 79 41 c 2
 133 41 l 1
 235 522 l 1
 181 522 l 2
 165 522 158 527 158 539 c 0
 158 554 170 563 190 563 c 2
 359 563 l 2
 377 563 383 559 383 547 c 0
 383 532 371 522 351 522 c 2
 276 522 l 1
 223 273 l 1
 556 522 l 1
 511 522 l 2
 494 522 487 527 487 538 c 0
 487 554 499 563 519 563 c 2
 638 563 l 2
 656 563 662 559 662 547 c 0
 662 532 650 522 630 522 c 2
 613 522 l 1
 349 324 l 1
 437 284 464 233 498 41 c 1
 554 41 l 2
 570 41 577 36 577 25 c 0
 577 10 564 0 545 0 c 2
 459 0 l 1
 428 204 397 263 309 294 c 1
 212 221 l 1
EndSplineSet
Validated: 3073
EndChar

StartChar: L
Encoding: 76 76 44
Width: 600
Flags: HMW
AnchorPoint: "above" 400 563 basechar 0
LayerCount: 2
Fore
SplineSet
338 522 m 1
 236 41 l 1
 508 41 l 1
 542 201 l 2
 546 219 555 228 568 228 c 0
 578 228 585 222 585 214 c 0
 585 211 584 206 583 201 c 2
 541 0 l 1
 90 0 l 2
 74 0 67 5 67 16 c 0
 67 32 79 41 99 41 c 2
 195 41 l 1
 297 522 l 1
 201 522 l 2
 184 522 178 527 178 539 c 0
 178 554 190 563 209 563 c 2
 443 563 l 2
 460 563 466 559 466 547 c 0
 466 532 454 522 434 522 c 2
 338 522 l 1
EndSplineSet
Validated: 3073
EndChar

StartChar: M
Encoding: 77 77 45
Width: 600
Flags: HMW
AnchorPoint: "above" 400 563 basechar 0
LayerCount: 2
Fore
SplineSet
362 169 m 1
 316 169 l 1
 232 522 l 1
 224 522 l 1
 122 41 l 1
 196 41 l 2
 213 41 220 36 220 25 c 0
 220 10 207 0 188 0 c 2
 38 0 l 2
 22 0 15 5 15 17 c 0
 15 32 27 41 47 41 c 2
 81 41 l 1
 183 522 l 1
 158 522 l 2
 141 522 135 527 135 539 c 0
 135 554 147 563 167 563 c 2
 266 563 l 1
 349 215 l 1
 577 563 l 1
 677 563 l 2
 694 563 700 559 700 547 c 0
 700 532 688 522 668 522 c 2
 643 522 l 1
 541 41 l 1
 575 41 l 2
 591 41 598 36 598 25 c 0
 598 10 585 0 566 0 c 2
 417 0 l 2
 401 0 394 5 394 17 c 0
 394 32 406 41 425 41 c 2
 500 41 l 1
 602 522 l 1
 594 522 l 1
 362 169 l 1
EndSplineSet
Validated: 3073
EndChar

StartChar: N
Encoding: 78 78 46
Width: 600
Flags: HMW
AnchorPoint: "above" 400 563 basechar 0
LayerCount: 2
Fore
SplineSet
501 0 m 1
 449 0 l 1
 251 504 l 1
 153 41 l 1
 227 41 l 2
 244 41 251 37 251 25 c 0
 251 10 238 0 219 0 c 2
 69 0 l 2
 53 0 46 5 46 17 c 0
 46 32 58 41 78 41 c 2
 112 41 l 1
 214 522 l 1
 160 522 l 2
 143 522 137 527 137 539 c 0
 137 554 149 563 169 563 c 2
 275 563 l 1
 473 59 l 1
 571 522 l 1
 497 522 l 2
 480 522 473 527 473 538 c 0
 473 554 485 563 505 563 c 2
 655 563 l 2
 672 563 678 559 678 547 c 0
 678 532 666 522 646 522 c 2
 612 522 l 1
 501 0 l 1
EndSplineSet
Validated: 3073
EndChar

StartChar: O
Encoding: 79 79 47
Width: 600
Flags: HMW
AnchorPoint: "above" 400 563 basechar 0
LayerCount: 2
Fore
SplineSet
422 576 m 0
 536 576 616 486 616 357 c 0
 616 164 461 -16 296 -16 c 0
 181 -16 102 74 102 207 c 0
 102 396 258 576 422 576 c 0
415 535 m 0
 277 535 144 378 144 216 c 0
 144 106 211 25 302 25 c 0
 441 25 574 181 574 345 c 0
 574 455 507 535 415 535 c 0
EndSplineSet
Validated: 3073
EndChar

StartChar: P
Encoding: 80 80 48
Width: 600
Flags: HMW
AnchorPoint: "above" 400 563 basechar 0
LayerCount: 2
Fore
SplineSet
214 231 m 1
 174 41 l 1
 312 41 l 2
 329 41 336 36 336 25 c 0
 336 10 323 0 303 0 c 2
 70 0 l 2
 54 0 47 5 47 17 c 0
 47 32 59 41 79 41 c 2
 133 41 l 1
 235 522 l 1
 181 522 l 2
 164 522 158 527 158 539 c 0
 158 554 170 563 190 563 c 2
 430 563 l 2
 522 563 587 508 587 431 c 0
 587 324 474 231 346 231 c 2
 214 231 l 1
223 272 m 1
 357 272 l 2
 455 272 545 343 545 421 c 0
 545 479 494 522 425 522 c 2
 276 522 l 1
 223 272 l 1
EndSplineSet
Validated: 3073
EndChar

StartChar: Q
Encoding: 81 81 49
Width: 600
Flags: HMW
AnchorPoint: "above" 400 563 basechar 0
LayerCount: 2
Fore
SplineSet
298 -89 m 0
 217 -89 172 -114 143 -114 c 0
 133 -114 127 -107 127 -97 c 0
 127 -89 132 -81 142 -75 c 2
 246 -10 l 1
 160 10 102 97 102 206 c 0
 102 396 258 576 422 576 c 0
 537 576 616 486 616 354 c 0
 616 166 465 -11 301 -16 c 1
 238 -56 l 1
 270 -50 286 -48 307 -48 c 0
 380 -48 389 -74 429 -74 c 0
 469 -74 502 -43 517 -43 c 0
 526 -43 533 -49 533 -59 c 0
 533 -90 444 -115 418 -115 c 0
 373 -115 360 -89 298 -89 c 0
415 535 m 0
 277 535 144 379 144 216 c 0
 144 106 211 25 302 25 c 0
 441 25 574 181 574 346 c 0
 574 455 507 535 415 535 c 0
EndSplineSet
Validated: 3073
EndChar

StartChar: R
Encoding: 82 82 50
Width: 600
Flags: HMW
AnchorPoint: "above" 400 563 basechar 0
LayerCount: 2
Fore
SplineSet
218 251 m 1
 174 41 l 1
 248 41 l 2
 265 41 272 37 272 25 c 0
 272 10 259 0 240 0 c 2
 70 0 l 2
 54 0 47 5 47 17 c 0
 47 32 59 41 79 41 c 2
 133 41 l 1
 235 522 l 1
 181 522 l 2
 164 522 158 527 158 539 c 0
 158 554 170 563 189 563 c 2
 438 563 l 2
 522 563 587 507 587 434 c 0
 587 357 528 299 414 262 c 1
 468 218 489 183 540 41 c 1
 570 41 l 2
 587 41 594 36 594 25 c 0
 594 10 581 0 562 0 c 2
 505 0 l 1
 452 162 419 216 351 251 c 1
 218 251 l 1
227 292 m 1
 341 292 l 2
 448 292 545 355 545 425 c 0
 545 479 493 522 429 522 c 2
 276 522 l 1
 227 292 l 1
EndSplineSet
Validated: 3073
EndChar

StartChar: S
Encoding: 83 83 51
Width: 600
Flags: HMW
AnchorPoint: "above" 400 563 basechar 0
LayerCount: 2
Fore
SplineSet
500 177 m 0
 500 320 201 220 201 392 c 0
 201 489 305 577 420 577 c 0
 479 577 523 558 555 517 c 1
 559 538 563 563 586 563 c 0
 595 563 602 556 602 548 c 0
 602 545 602 543 600 536 c 2
 578 433 l 2
 575 416 565 405 553 405 c 0
 547 405 542 408 536 417 c 1
 539 459 l 1
 539 464 517 497 508 506 c 0
 491 523 451 536 416 536 c 0
 326 536 246 471 246 399 c 0
 246 263 545 359 545 185 c 0
 545 23 359 -17 301 -17 c 0
 231 -17 176 9 145 56 c 1
 140 34 138 0 112 0 c 0
 103 0 96 7 96 15 c 0
 96 17 97 23 98 27 c 2
 121 139 l 2
 125 157 135 167 148 167 c 0
 154 167 159 163 164 155 c 1
 160 109 l 1
 160 103 188 65 201 55 c 0
 222 37 268 24 307 24 c 0
 410 24 500 95 500 177 c 0
EndSplineSet
Validated: 3073
EndChar

StartChar: T
Encoding: 84 84 52
Width: 600
Flags: HMW
AnchorPoint: "above" 400 563 basechar 0
LayerCount: 2
Fore
SplineSet
330 41 m 1
 435 41 l 2
 451 41 458 36 458 25 c 0
 458 10 445 0 426 0 c 2
 175 0 l 2
 159 0 152 5 152 17 c 0
 152 32 164 41 184 41 c 2
 289 41 l 1
 391 522 l 1
 224 522 l 1
 209 449 l 1
 205 431 196 422 182 422 c 0
 173 422 166 429 166 437 c 0
 166 484 185 519 192 563 c 1
 648 563 l 1
 624 449 l 2
 620 431 611 421 598 421 c 0
 592 421 583 428 582 435 c 0
 582 436 582 447 583 449 c 1
 598 522 l 1
 432 522 l 1
 330 41 l 1
EndSplineSet
Validated: 3073
EndChar

StartChar: U
Encoding: 85 85 53
Width: 600
Flags: HMW
AnchorPoint: "above" 400 563 basechar 0
LayerCount: 2
Fore
SplineSet
610 522 m 1
 539 185 l 2
 515 72 409 -16 297 -16 c 0
 201 -16 136 47 136 140 c 0
 136 154 138 170 141 185 c 2
 212 522 l 1
 179 522 l 2
 162 522 155 527 155 538 c 0
 155 554 167 563 187 563 c 2
 337 563 l 2
 353 563 359 559 359 547 c 0
 359 532 347 522 328 522 c 2
 253 522 l 1
 182 185 l 1
 179 173 178 161 178 151 c 0
 178 76 230 25 305 25 c 0
 394 25 479 95 498 185 c 2
 569 522 l 1
 495 522 l 2
 478 522 472 527 472 539 c 0
 472 554 484 563 504 563 c 2
 653 563 l 2
 670 563 676 559 676 547 c 0
 676 532 664 522 644 522 c 2
 610 522 l 1
EndSplineSet
Validated: 3073
EndChar

StartChar: V
Encoding: 86 86 54
Width: 600
Flags: HMW
AnchorPoint: "above" 400 563 basechar 0
LayerCount: 2
Fore
SplineSet
268 0 m 1
 178 522 l 1
 147 522 l 2
 130 522 124 527 124 538 c 0
 124 554 136 563 156 563 c 2
 306 563 l 2
 324 563 330 559 330 547 c 0
 330 531 318 522 298 522 c 2
 222 522 l 1
 305 41 l 1
 307 41 l 1
 604 522 l 1
 525 522 l 2
 508 522 502 527 502 538 c 0
 502 554 514 563 533 563 c 2
 684 563 l 2
 701 563 707 559 707 547 c 0
 707 531 695 522 675 522 c 2
 644 522 l 1
 324 0 l 1
 268 0 l 1
EndSplineSet
Validated: 3073
EndChar

StartChar: W
Encoding: 87 87 55
Width: 600
Flags: HMW
AnchorPoint: "above" 400 563 basechar 0
LayerCount: 2
Fore
SplineSet
122 0 m 1
 173 522 l 1
 158 522 l 2
 142 522 135 527 135 538 c 0
 135 554 147 563 167 563 c 2
 316 563 l 2
 334 563 340 559 340 547 c 0
 340 532 328 522 308 522 c 2
 214 522 l 1
 169 46 l 1
 364 438 l 1
 426 438 l 1
 452 46 l 1
 610 522 l 1
 514 522 l 2
 498 522 491 527 491 538 c 0
 491 554 503 563 523 563 c 2
 673 563 l 2
 690 563 696 559 696 547 c 0
 696 532 684 522 664 522 c 2
 649 522 l 1
 476 0 l 1
 412 0 l 1
 385 400 l 1
 185 0 l 1
 122 0 l 1
EndSplineSet
Validated: 3073
EndChar

StartChar: X
Encoding: 88 88 56
Width: 600
Flags: HMW
AnchorPoint: "above" 400 563 basechar 0
LayerCount: 2
Fore
SplineSet
386 288 m 1
 525 41 l 1
 542 41 l 2
 559 41 565 37 565 25 c 0
 565 10 552 0 533 0 c 2
 401 0 l 2
 385 0 378 5 378 16 c 0
 378 32 390 41 410 41 c 2
 472 41 l 1
 352 255 l 1
 142 41 l 1
 207 41 l 2
 224 41 230 37 230 25 c 0
 230 10 218 0 198 0 c 2
 67 0 l 2
 51 0 44 5 44 16 c 0
 44 32 56 41 76 41 c 2
 93 41 l 1
 334 288 l 1
 204 522 l 1
 189 522 l 2
 173 522 166 527 166 538 c 0
 166 554 178 563 197 563 c 2
 308 563 l 2
 325 563 331 559 331 547 c 0
 331 532 319 522 299 522 c 2
 256 522 l 1
 368 321 l 1
 565 522 l 1
 519 522 l 2
 503 522 496 527 496 538 c 0
 496 554 508 563 528 563 c 2
 639 563 l 2
 656 563 662 559 662 547 c 0
 662 532 650 522 630 522 c 2
 615 522 l 1
 386 288 l 1
EndSplineSet
Validated: 3073
EndChar

StartChar: Y
Encoding: 89 89 57
Width: 600
Flags: HMW
AnchorPoint: "above" 400 563 basechar 0
LayerCount: 2
Fore
SplineSet
376 254 m 1
 331 41 l 1
 436 41 l 2
 453 41 459 36 459 25 c 0
 459 10 447 0 427 0 c 2
 176 0 l 2
 160 0 153 5 153 16 c 0
 153 32 165 41 185 41 c 2
 290 41 l 1
 335 254 l 1
 213 522 l 1
 189 522 l 2
 173 522 166 527 166 538 c 0
 166 554 178 563 198 563 c 2
 309 563 l 2
 326 563 332 559 332 547 c 0
 332 532 320 522 300 522 c 2
 262 522 l 1
 366 295 l 1
 564 522 l 1
 523 522 l 2
 506 522 499 527 499 538 c 0
 499 554 511 563 532 563 c 2
 642 563 l 2
 658 563 665 558 665 546 c 0
 665 532 652 522 633 522 c 2
 610 522 l 1
 376 254 l 1
EndSplineSet
Validated: 3073
EndChar

StartChar: Z
Encoding: 90 90 58
Width: 600
Flags: HMW
AnchorPoint: "above" 400 563 basechar 0
LayerCount: 2
Fore
SplineSet
497 0 m 1
 103 0 l 1
 116 59 l 1
 541 519 l 1
 542 522 l 1
 273 522 l 1
 248 404 l 2
 244 385 235 376 221 376 c 0
 212 376 205 383 205 392 c 0
 205 395 205 396 207 404 c 0
 241 563 l 1
 590 563 l 1
 578 505 l 1
 151 45 l 1
 150 41 l 1
 465 41 l 1
 495 182 l 2
 499 200 507 209 521 209 c 0
 531 209 538 202 538 194 c 0
 538 191 537 185 536 182 c 0
 497 0 l 1
EndSplineSet
Validated: 3073
EndChar

StartChar: bracketleft
Encoding: 91 91 59
Width: 600
Flags: HMW
LayerCount: 2
Fore
SplineSet
441 563 m 1
 304 -83 l 1
 401 -83 l 2
 418 -83 424 -87 424 -99 c 0
 424 -114 412 -124 392 -124 c 2
 254 -124 l 1
 409 604 l 1
 547 604 l 2
 564 604 570 600 570 588 c 0
 570 572 558 563 538 563 c 2
 441 563 l 1
EndSplineSet
Validated: 3073
EndChar

StartChar: backslash
Encoding: 92 92 60
Width: 600
Flags: HMW
LayerCount: 2
Fore
SplineSet
292 650 m 0
 472 -46 l 2
 473 -50 474 -55 474 -57 c 0
 474 -69 462 -81 449 -81 c 0
 439 -81 436 -77 432 -63 c 0
 252 633 l 2
 251 637 250 642 250 644 c 0
 250 656 262 668 275 668 c 0
 285 668 288 664 292 650 c 0
EndSplineSet
Validated: 3073
EndChar

StartChar: bracketright
Encoding: 93 93 61
Width: 600
Flags: HMW
LayerCount: 2
Fore
SplineSet
262 -83 m 1
 399 563 l 1
 302 563 l 2
 285 563 279 567 279 579 c 0
 279 594 291 604 311 604 c 2
 449 604 l 1
 294 -124 l 1
 156 -124 l 2
 139 -124 133 -120 133 -108 c 0
 133 -92 145 -83 165 -83 c 2
 262 -83 l 1
EndSplineSet
Validated: 3073
EndChar

StartChar: asciicircum
Encoding: 94 94 62
Width: 600
Flags: HMW
LayerCount: 2
Fore
SplineSet
430 615 m 1
 562 392 l 2
 565 387 567 381 567 378 c 0
 567 366 554 354 542 354 c 0
 534 354 530 357 524 367 c 2
 417 552 l 1
 231 367 l 2
 221 357 216 354 208 354 c 0
 199 354 192 361 192 370 c 0
 192 377 195 382 205 392 c 2
 430 615 l 1
EndSplineSet
Validated: 3073
EndChar

StartChar: underscore
Encoding: 95 95 63
Width: 600
Flags: HMW
LayerCount: 2
Fore
SplineSet
584 -75 m 1
 573 -125 l 1
 -27 -125 l 1
 -16 -75 l 1
 584 -75 l 1
EndSplineSet
Validated: 3073
EndChar

StartChar: grave
Encoding: 96 96 64
Width: 600
Flags: HMW
LayerCount: 2
Fore
SplineSet
327 639 m 1
 409 515 l 2
 410.472 512.757 411 508 411 505 c 0
 411 499.5 403 490 396 490 c 0
 383.833 490 376.958 493.738 368 502.5 c 2
 235 639 l 1
 327 639 l 1
EndSplineSet
Validated: 3073
EndChar

StartChar: a
Encoding: 97 97 65
Width: 600
Flags: HMW
LayerCount: 2
Fore
SplineSet
205 374 m 0
 205 411 361 431 391 431 c 0
 472 431 528 390 528 331 c 0
 528 322 528 316 526 308 c 0
 469 41 l 1
 523 41 l 2
 540 41 546 37 546 25 c 0
 546 10 534 0 514 0 c 2
 419 0 l 1
 433 67 l 1
 360 10 295 -16 225 -16 c 0
 143 -16 93 23 93 87 c 0
 93 184 200 258 338 258 c 0
 384 258 414 253 470 237 c 1
 485 308 l 2
 486 313 486 316 486 322 c 0
 486 363 444 390 379 390 c 0
 301 390 249 358 220 358 c 0
 212 358 205 365 205 374 c 0
443 112 m 1
 462 202 l 1
 427 211 382 217 337 217 c 0
 222 217 135 165 135 96 c 0
 135 51 170 25 231 25 c 0
 304 25 361 49 443 112 c 1
EndSplineSet
Validated: 3073
EndChar

StartChar: b
Encoding: 98 98 66
Width: 600
Flags: HMW
LayerCount: 2
Fore
SplineSet
272 604 m 1
 214 328 l 1
 279 399 342 431 416 431 c 0
 519 431 591 360 591 258 c 0
 591 117 459 -16 319 -16 c 0
 247 -16 195 19 163 88 c 1
 144 0 l 1
 49 0 l 2
 33 0 26 5 26 17 c 0
 26 32 38 41 58 41 c 2
 112 41 l 1
 223 563 l 1
 169 563 l 2
 152 563 146 567 146 580 c 0
 146 595 158 604 177 604 c 2
 272 604 l 1
404 390 m 0
 290 390 184 282 184 167 c 0
 184 86 245 25 326 25 c 0
 441 25 549 132 549 247 c 0
 549 330 488 390 404 390 c 0
EndSplineSet
Validated: 3073
EndChar

StartChar: c
Encoding: 99 99 67
Width: 600
Flags: HMW
LayerCount: 2
Fore
SplineSet
555 91 m 0
 555 67 444 -17 301 -17 c 0
 196 -17 121 53 121 152 c 0
 121 301 253 432 403 432 c 0
 465 432 516 413 551 376 c 1
 555 395 559 417 580 417 c 0
 589 417 596 410 596 402 c 0
 596 399 595 395 594 389 c 0
 575 298 l 2
 571 280 562 270 549 270 c 0
 542 270 537 273 532 282 c 1
 535 318 l 2
 535 332 490 391 393 391 c 0
 209 391 163 216 163 162 c 0
 163 81 225 24 312 24 c 0
 387 24 460 50 519 97 c 0
 527 104 534 108 539 108 c 0
 546 108 555 99 555 91 c 0
EndSplineSet
Validated: 3073
EndChar

StartChar: d
Encoding: 100 100 68
Width: 600
Flags: HMW
LayerCount: 2
Fore
SplineSet
630 604 m 1
 510 41 l 1
 565 41 l 2
 581 41 587 37 587 25 c 0
 587 10 575 0 556 0 c 2
 461 0 l 1
 480 89 l 1
 417 18 350 -16 274 -16 c 0
 176 -16 102 58 102 157 c 0
 102 299 232 431 371 431 c 0
 446 431 496 398 530 327 c 1
 580 563 l 1
 526 563 l 2
 509 563 503 567 503 580 c 0
 503 595 515 604 535 604 c 2
 630 604 l 1
365 390 m 0
 251 390 144 284 144 169 c 0
 144 84 203 25 287 25 c 0
 403 25 509 132 509 248 c 0
 509 331 450 390 365 390 c 0
EndSplineSet
Validated: 3073
EndChar

StartChar: e
Encoding: 101 101 69
Width: 600
Flags: HMW
LayerCount: 2
Fore
SplineSet
531 70 m 0
 531 36 401 -16 300 -16 c 0
 184 -16 104 60 104 171 c 0
 104 309 235 431 383 431 c 0
 492 431 570 361 570 262 c 0
 570 248 567 224 562 199 c 1
 146 199 l 1
 145 189 145 181 145 177 c 0
 145 87 213 25 310 25 c 0
 373 25 450 47 498 79 c 0
 507 84 511 86 516 86 c 0
 525 86 531 79 531 70 c 0
155 240 m 1
 529 240 l 1
 530 245 530 250 530 252 c 0
 530 333 466 390 375 390 c 0
 277 390 192 332 155 240 c 1
EndSplineSet
Validated: 3073
EndChar

StartChar: f
Encoding: 102 102 70
Width: 600
Flags: HMW
AnchorPoint: "above" 480 603 basechar 0
LayerCount: 2
Fore
SplineSet
637 551 m 0
 626 551 564 563 502 563 c 0
 436 563 384 529 373 478 c 0
 360 417 l 1
 549 417 l 2
 566 417 572 413 572 401 c 0
 572 386 560 376 540 376 c 2
 351 376 l 1
 280 41 l 1
 457 41 l 2
 474 41 481 37 481 25 c 0
 481 10 468 0 449 0 c 2
 132 0 l 2
 116 0 109 5 109 17 c 0
 109 32 121 41 141 41 c 2
 239 41 l 1
 310 376 l 1
 222 376 l 2
 206 376 199 381 199 393 c 0
 199 408 211 417 231 417 c 2
 319 417 l 1
 332 478 l 1
 347 551 423 604 512 604 c 0
 546 604 663 600 663 576 c 0
 663 562 651 551 637 551 c 0
EndSplineSet
Validated: 3073
EndChar

StartChar: g
Encoding: 103 103 71
Width: 600
Flags: HMW
LayerCount: 2
Fore
SplineSet
511 334 m 1
 529 417 l 1
 624 417 l 2
 641 417 647 413 647 401 c 0
 647 386 635 376 615 376 c 2
 561 376 l 1
 475 -28 l 2
 465 -74 402 -186 277 -186 c 2
 162 -186 l 2
 146 -186 139 -181 139 -170 c 0
 139 -154 151 -145 171 -145 c 2
 287 -145 l 2
 355 -145 420 -90 435 -22 c 0
 463 107 l 1
 403 40 344 10 271 10 c 0
 174 10 105 79 105 177 c 0
 105 307 230 431 361 431 c 0
 433 431 480 401 511 334 c 1
354 390 m 0
 247 390 147 291 147 186 c 0
 147 106 202 51 282 51 c 0
 392 51 491 150 491 258 c 0
 491 336 435 390 354 390 c 0
EndSplineSet
Validated: 3073
EndChar

StartChar: h
Encoding: 104 104 72
Width: 600
Flags: HMW
LayerCount: 2
Fore
SplineSet
501 309 m 0
 501 344 480 390 396 390 c 0
 341 390 309 373 241 309 c 2
 228 296 l 1
 174 41 l 1
 219 41 l 2
 236 41 243 36 243 25 c 0
 243 10 230 0 210 0 c 2
 78 0 l 2
 62 0 55 5 55 17 c 0
 55 32 67 41 87 41 c 2
 133 41 l 1
 244 563 l 1
 189 563 l 2
 173 563 167 567 167 580 c 0
 167 595 179 604 198 604 c 2
 293 604 l 1
 239 347 l 1
 303 408 350 431 411 431 c 0
 491 431 543 387 543 319 c 0
 543 310 542 301 540 291 c 2
 487 41 l 1
 532 41 l 2
 549 41 556 36 556 25 c 0
 556 10 543 0 524 0 c 2
 392 0 l 2
 376 0 369 5 369 17 c 0
 369 32 381 41 400 41 c 2
 446 41 l 1
 498 288 l 1
 500 295 501 304 501 309 c 0
EndSplineSet
Validated: 3073
EndChar

StartChar: i
Encoding: 105 105 73
Width: 600
Flags: HMW
AnchorPoint: "above" 410 603 basechar 0
LayerCount: 2
Fore
SplineSet
444 624 m 1
 422 520 l 1
 363 520 l 1
 385 624 l 1
 444 624 l 1
409 417 m 1
 329 41 l 1
 489 41 l 2
 506 41 513 36 513 25 c 0
 513 10 500 0 481 0 c 2
 119 0 l 2
 103 0 96 5 96 16 c 0
 96 32 108 41 127 41 c 2
 288 41 l 1
 359 376 l 1
 241 376 l 2
 225 376 218 381 218 393 c 0
 218 408 230 417 250 417 c 2
 409 417 l 1
EndSplineSet
Validated: 3073
EndChar

StartChar: j
Encoding: 106 106 74
Width: 600
Flags: HMW
AnchorPoint: "above" 480 603 basechar 0
LayerCount: 2
Fore
SplineSet
467 376 m 1
 227 376 l 2
 210 376 203 381 203 392 c 0
 203 408 215 417 236 417 c 2
 517 417 l 1
 422 -28 l 1
 403 -121 325 -186 234 -186 c 2
 105 -186 l 2
 89 -186 82 -181 82 -170 c 0
 82 -154 94 -145 114 -145 c 2
 242 -145 l 2
 308 -145 367 -96 381 -28 c 0
 467 376 l 1
517 624 m 1
 495 520 l 1
 436 520 l 1
 458 624 l 1
 517 624 l 1
EndSplineSet
Validated: 3073
EndChar

StartChar: k
Encoding: 107 107 75
Width: 600
Flags: HMW
LayerCount: 2
Fore
SplineSet
223 180 m 1
 185 0 l 1
 90 0 l 2
 74 0 67 5 67 17 c 0
 67 32 79 41 99 41 c 2
 153 41 l 1
 264 563 l 1
 210 563 l 2
 193 563 187 567 187 580 c 0
 187 595 199 604 218 604 c 2
 314 604 l 1
 234 229 l 1
 438 376 l 1
 416 376 l 2
 400 376 393 381 393 393 c 0
 393 408 405 417 425 417 c 2
 554 417 l 2
 572 417 578 413 578 400 c 0
 578 386 565 376 546 376 c 2
 499 376 l 1
 314 245 l 1
 478 41 l 1
 523 41 l 2
 539 41 546 37 546 25 c 0
 546 10 533 0 514 0 c 2
 383 0 l 2
 367 0 360 5 360 17 c 0
 360 32 372 41 392 41 c 2
 420 41 l 1
 278 219 l 1
 223 180 l 1
EndSplineSet
Validated: 3073
EndChar

StartChar: l
Encoding: 108 108 76
Width: 600
Flags: HMW
AnchorPoint: "above" 420 603 basechar 0
LayerCount: 2
Fore
SplineSet
449 604 m 1
 329 41 l 1
 489 41 l 2
 506 41 513 36 513 25 c 0
 513 10 500 0 481 0 c 2
 119 0 l 2
 103 0 96 5 96 16 c 0
 96 32 108 41 127 41 c 2
 288 41 l 1
 399 563 l 1
 282 563 l 2
 265 563 259 567 259 579 c 0
 259 595 271 604 291 604 c 2
 449 604 l 1
EndSplineSet
Validated: 3073
EndChar

StartChar: m
Encoding: 109 109 77
Width: 600
Flags: HMW
LayerCount: 2
Fore
SplineSet
201 417 m 1
 190 365 l 1
 233 412 267 431 309 431 c 0
 352 431 379 408 391 360 c 1
 440 410 477 431 519 431 c 0
 568 431 603 395 603 345 c 0
 603 338 602 331 600 323 c 0
 541 41 l 1
 575 41 l 2
 592 41 598 37 598 25 c 0
 598 10 585 0 566 0 c 2
 492 0 l 1
 560 319 l 2
 561 324 561 327 561 333 c 0
 561 365 539 390 509 390 c 0
 473 390 437 366 387 308 c 1
 331 41 l 1
 365 41 l 2
 382 41 388 37 388 25 c 0
 388 10 376 0 356 0 c 2
 282 0 l 1
 349 316 l 1
 350 322 351 327 351 332 c 0
 351 364 328 390 300 390 c 0
 265 390 228 366 178 308 c 1
 121 41 l 1
 155 41 l 2
 171 41 178 36 178 25 c 0
 178 10 165 0 146 0 c 2
 37 0 l 2
 22 0 15 5 15 16 c 0
 15 32 27 41 47 41 c 2
 81 41 l 1
 152 376 l 1
 118 376 l 2
 102 376 95 381 95 392 c 0
 95 408 107 417 127 417 c 2
 201 417 l 1
EndSplineSet
Validated: 3073
EndChar

StartChar: n
Encoding: 110 110 78
Width: 600
Flags: HMW
LayerCount: 2
Fore
SplineSet
502 308 m 0
 502 338 484 390 403 390 c 0
 339 390 309 373 230 294 c 1
 176 41 l 1
 221 41 l 2
 238 41 244 37 244 25 c 0
 244 10 232 0 212 0 c 2
 81 0 l 2
 64 0 57 5 57 16 c 0
 57 32 69 41 89 41 c 2
 135 41 l 1
 206 376 l 1
 172 376 l 2
 156 376 149 381 149 392 c 0
 149 408 161 417 181 417 c 2
 256 417 l 1
 241 348 l 1
 313 412 353 431 414 431 c 0
 493 431 545 387 545 319 c 0
 545 309 545 303 543 295 c 0
 489 41 l 1
 523 41 l 2
 540 41 546 37 546 25 c 0
 546 10 533 0 514 0 c 2
 405 0 l 2
 389 0 382 5 382 16 c 0
 382 32 394 41 414 41 c 2
 448 41 l 1
 500 288 l 1
 502 295 502 298 502 308 c 0
EndSplineSet
Validated: 3073
EndChar

StartChar: o
Encoding: 111 111 79
Width: 600
Flags: HMW
LayerCount: 2
Fore
SplineSet
391 431 m 0
 501 431 577 358 577 252 c 0
 577 113 441 -16 296 -16 c 0
 187 -16 111 58 111 162 c 0
 111 301 247 431 391 431 c 0
382 390 m 0
 264 390 153 284 153 171 c 0
 153 85 216 25 305 25 c 0
 424 25 535 130 535 244 c 0
 535 331 473 390 382 390 c 0
EndSplineSet
Validated: 3073
EndChar

StartChar: p
Encoding: 112 112 80
Width: 600
Flags: HMW
LayerCount: 2
Fore
SplineSet
233 417 m 1
 216 335 l 1
 283 404 339 431 415 431 c 0
 523 431 593 365 593 264 c 0
 593 131 466 10 326 10 c 0
 249 10 199 40 167 106 c 1
 114 -145 l 1
 211 -145 l 2
 229 -145 235 -149 235 -161 c 0
 235 -177 223 -186 203 -186 c 2
 10 -186 l 2
 -6 -186 -13 -181 -13 -170 c 0
 -13 -154 -1 -145 19 -145 c 2
 73 -145 l 1
 183 376 l 1
 129 376 l 2
 113 376 106 381 106 392 c 0
 106 408 118 417 138 417 c 2
 233 417 l 1
405 390 m 0
 292 390 188 292 188 187 c 0
 188 107 248 51 333 51 c 0
 447 51 551 149 551 255 c 0
 551 335 491 390 405 390 c 0
EndSplineSet
Validated: 3073
EndChar

StartChar: q
Encoding: 113 113 81
Width: 600
Flags: HMW
LayerCount: 2
Fore
SplineSet
532 335 m 1
 550 417 l 1
 645 417 l 2
 662 417 668 413 668 401 c 0
 668 386 656 376 636 376 c 2
 582 376 l 1
 471 -145 l 1
 525 -145 l 2
 542 -145 549 -149 549 -161 c 0
 549 -176 536 -186 517 -186 c 2
 324 -186 l 2
 307 -186 300 -181 300 -170 c 0
 300 -154 312 -145 332 -145 c 2
 430 -145 l 1
 484 106 l 1
 423 40 361 10 284 10 c 0
 177 10 105 78 105 178 c 0
 105 311 233 431 374 431 c 0
 450 431 500 401 532 335 c 1
365 390 m 0
 251 390 147 293 147 186 c 0
 147 107 207 51 293 51 c 0
 407 51 512 148 512 254 c 0
 512 335 452 390 365 390 c 0
EndSplineSet
Validated: 3073
EndChar

StartChar: r
Encoding: 114 114 82
Width: 600
Flags: HMW
LayerCount: 2
Fore
SplineSet
592 344 m 0
 574 344 565 386 520 386 c 0
 475 386 435 363 304 262 c 1
 257 41 l 1
 436 41 l 2
 451 41 459 36 459 24 c 0
 459 10 446 0 427 0 c 2
 111 0 l 2
 96 0 88 5 88 17 c 0
 88 31 101 41 120 41 c 2
 216 41 l 1
 287 376 l 1
 213 376 l 2
 197 376 190 381 190 393 c 0
 190 407 203 417 221 417 c 2
 337 417 l 1
 315 315 l 1
 427 400 480 427 532 427 c 0
 588 427 619 380 619 369 c 0
 619 357 606 344 592 344 c 0
EndSplineSet
Validated: 3073
EndChar

StartChar: s
Encoding: 115 115 83
Width: 600
Flags: HMW
LayerCount: 2
Fore
SplineSet
502 335 m 2
 502 352 457 391 382 391 c 0
 305 391 235 351 235 307 c 0
 235 227 416 267 491 206 c 0
 511 190 525 162 525 138 c 0
 525 54 423 -17 300 -17 c 0
 235 -17 187 1 153 38 c 1
 148 20 144 0 124 0 c 0
 116 0 108 7 108 15 c 0
 108 17 109 24 110 27 c 0
 127 110 l 1
 131 128 140 137 154 137 c 0
 163 137 170 130 170 122 c 0
 170 115 167 103 167 99 c 0
 167 56 225 25 305 25 c 0
 401 25 479 72 479 130 c 0
 479 177 425 198 344 207 c 0
 276 215 190 225 190 298 c 0
 190 372 277 431 386 431 c 0
 444 431 486 416 515 385 c 1
 519 406 529 417 542 417 c 0
 551 417 558 410 558 402 c 0
 558 399 557 394 556 389 c 2
 542 320 l 1
 538 302 528 292 515 292 c 0
 509 292 504 296 499 304 c 1
 502 335 l 2
EndSplineSet
Validated: 3073
EndChar

StartChar: t
Encoding: 116 116 84
Width: 600
Flags: HMW
LayerCount: 2
Fore
SplineSet
511 54 m 0
 511 12 346 -16 296 -16 c 0
 217 -16 165 22 165 79 c 0
 165 89 166 97 168 107 c 2
 225 376 l 1
 151 376 l 2
 134 376 127 381 127 392 c 0
 127 408 139 417 159 417 c 2
 234 417 l 1
 259 536 l 2
 263 554 272 563 285 563 c 0
 295 563 302 556 302 548 c 0
 302 545 302 544 300 536 c 0
 275 417 l 1
 495 417 l 2
 512 417 518 413 518 401 c 0
 518 386 505 376 486 376 c 2
 266 376 l 1
 209 109 l 1
 208 102 207 95 207 91 c 0
 207 51 245 25 303 25 c 0
 359 25 435 42 478 65 c 0
 488 70 491 71 496 71 c 0
 504 71 511 64 511 54 c 0
EndSplineSet
Validated: 3073
EndChar

StartChar: u
Encoding: 117 117 85
Width: 600
Flags: HMW
LayerCount: 2
Fore
SplineSet
439 0 m 1
 453 66 l 1
 387 11 320 -16 253 -16 c 0
 187 -16 145 22 145 82 c 0
 145 93 147 104 149 115 c 0
 204 376 l 1
 150 376 l 2
 134 376 127 381 127 392 c 0
 127 408 139 417 159 417 c 2
 254 417 l 1
 190 115 l 1
 188 109 188 105 188 97 c 0
 188 55 218 25 261 25 c 0
 329 25 395 54 464 115 c 1
 519 376 l 1
 445 376 l 2
 428 376 421 381 421 392 c 0
 421 408 433 417 454 417 c 2
 569 417 l 1
 489 41 l 1
 523 41 l 2
 540 41 546 37 546 25 c 0
 546 10 534 0 514 0 c 2
 439 0 l 1
EndSplineSet
Validated: 3073
EndChar

StartChar: v
Encoding: 118 118 86
Width: 600
Flags: HMW
LayerCount: 2
Fore
SplineSet
336 0 m 1
 266 0 l 1
 178 376 l 1
 137 376 l 2
 121 376 114 381 114 392 c 0
 114 408 126 417 146 417 c 2
 297 417 l 2
 315 417 321 413 321 401 c 0
 321 386 309 376 289 376 c 2
 223 376 l 1
 302 41 l 1
 321 41 l 1
 540 376 l 1
 471 376 l 2
 455 376 448 381 448 392 c 0
 448 408 460 417 480 417 c 2
 632 417 l 2
 649 417 655 413 655 401 c 0
 655 386 643 376 623 376 c 2
 582 376 l 1
 336 0 l 1
EndSplineSet
Validated: 3073
EndChar

StartChar: w
Encoding: 119 119 87
Width: 600
Flags: HMW
LayerCount: 2
Fore
SplineSet
442 0 m 1
 391 0 l 1
 356 259 l 1
 211 0 l 1
 160 0 l 1
 156 376 l 1
 137 376 l 2
 121 376 114 381 114 392 c 0
 114 408 126 417 146 417 c 2
 257 417 l 2
 274 417 280 413 280 401 c 0
 280 386 268 376 248 376 c 2
 195 376 l 1
 199 56 l 1
 339 311 l 1
 391 311 l 1
 425 56 l 1
 562 376 l 1
 512 376 l 2
 496 376 489 381 489 392 c 0
 489 408 501 417 521 417 c 2
 632 417 l 2
 649 417 655 413 655 401 c 0
 655 386 643 376 623 376 c 2
 604 376 l 1
 442 0 l 1
EndSplineSet
Validated: 3073
EndChar

StartChar: x
Encoding: 120 120 88
Width: 600
Flags: HMW
LayerCount: 2
Fore
SplineSet
375 219 m 1
 521 41 l 1
 531 41 l 2
 548 41 554 37 554 25 c 0
 554 10 541 0 522 0 c 2
 390 0 l 2
 374 0 367 5 367 16 c 0
 367 32 379 41 399 41 c 2
 463 41 l 1
 340 190 l 1
 152 41 l 1
 220 41 l 2
 237 41 243 37 243 25 c 0
 243 10 230 0 211 0 c 2
 78 0 l 2
 62 0 55 5 55 16 c 0
 55 32 67 41 87 41 c 2
 96 41 l 1
 318 219 l 1
 188 376 l 1
 181 376 l 2
 165 376 158 381 158 392 c 0
 158 408 170 417 190 417 c 2
 301 417 l 2
 318 417 324 413 324 401 c 0
 324 386 312 376 292 376 c 2
 246 376 l 1
 352 246 l 1
 517 376 l 1
 469 376 l 2
 453 376 446 381 446 392 c 0
 446 408 458 417 478 417 c 2
 588 417 l 2
 605 417 611 413 611 401 c 0
 611 386 599 376 579 376 c 2
 573 376 l 1
 375 219 l 1
EndSplineSet
Validated: 3073
EndChar

StartChar: y
Encoding: 121 121 89
Width: 600
Flags: HMW
AnchorPoint: "below" 464 0 basechar 0
LayerCount: 2
Fore
SplineSet
282 0 m 1
 175 376 l 1
 159 376 l 2
 142 376 135 381 135 392 c 0
 135 408 147 417 167 417 c 2
 282 417 l 2
 298 417 305 412 305 401 c 0
 305 386 293 376 273 376 c 2
 221 376 l 1
 315 45 l 1
 546 376 l 1
 492 376 l 2
 476 376 469 381 469 393 c 0
 469 407 481 417 501 417 c 2
 611 417 l 2
 627 417 634 412 634 401 c 0
 634 386 622 376 602 376 c 2
 589 376 l 1
 222 -145 l 1
 286 -145 l 2
 304 -145 310 -149 310 -161 c 0
 310 -176 297 -186 278 -186 c 2
 45 -186 l 2
 29 -186 22 -181 22 -170 c 0
 22 -154 34 -145 54 -145 c 2
 180 -145 l 1
 282 0 l 1
EndSplineSet
Validated: 3073
EndChar

StartChar: z
Encoding: 122 122 90
Width: 600
Flags: HMW
LayerCount: 2
Fore
SplineSet
563 417 m 1
 555 381 l 1
 180 41 l 1
 457 41 l 1
 469 97 l 2
 473 115 482 124 496 124 c 0
 505 124 512 117 512 109 c 0
 512 105 511 101 510 97 c 0
 489 0 l 1
 115 0 l 1
 123 36 l 1
 497 376 l 1
 245 376 l 1
 233 321 l 2
 229 303 221 294 207 294 c 0
 199 294 191 301 191 309 c 0
 191 349 207 380 213 417 c 1
 563 417 l 1
EndSplineSet
Validated: 3073
EndChar

StartChar: braceleft
Encoding: 123 123 91
Width: 600
Flags: HMW
LayerCount: 2
Fore
SplineSet
362.643 -124 m 0
 303.626 -124 274.416 -94.2902 274.416 -45.7826 c 0
 274.416 -35.933 275.621 -25.3083 278.024 -14 c 2
 309.482 134 l 2
 310.812 140.254 311.431 146.119 311.431 151.611 c 0
 311.431 202.023 259.242 221 224.975 221 c 0
 212.972 221 207.389 225.909 207.389 234.553 c 0
 207.389 247.812 217.824 261 233.478 261 c 0
 271.478 261 341.257 283.485 354.545 346 c 2
 385.79 493 l 2
 400.244 561 446.384 604 517.384 604 c 0
 527.406 604 534.617 597.924 534.617 588.42 c 0
 534.617 577.336 524.087 564 508.291 564 c 0
 482.382 564 438.752 549.276 426.79 493 c 2
 395.545 346 l 2
 381.516 280 328.564 252 295.014 240 c 1
 320.486 231.473 353.665 211.314 353.665 162.164 c 0
 353.665 153.672 352.675 144.313 350.482 134 c 2
 319.024 -14 l 2
 317.5 -21.1696 316.803 -27.6626 316.803 -33.5334 c 0
 316.803 -72.419 347.411 -84 371.249 -84 c 0
 381.393 -84 388.311 -91.1028 388.311 -100.118 c 0
 388.311 -114.948 374.505 -124 362.643 -124 c 0
EndSplineSet
Validated: 3073
EndChar

StartChar: bar
Encoding: 124 124 92
Width: 600
Flags: HMW
LayerCount: 2
Fore
SplineSet
442 577 m 0
 299 -97 l 2
 295 -115 286 -124 273 -124 c 0
 264 -124 257 -117 257 -109 c 0
 257 -107 258 -101 259 -97 c 2
 402 577 l 1
 406 594 415 604 428 604 c 0
 437 604 444 597 444 589 c 0
 444 586 444 585 442 577 c 0
EndSplineSet
Validated: 3073
EndChar

StartChar: braceright
Encoding: 125 125 93
Width: 600
Flags: HMW
LayerCount: 2
Fore
SplineSet
167.387 -108.605 m 0
 167.387 -97.4804 177.649 -84 193.041 -84 c 0
 220.479 -84 263.406 -68.6582 275.024 -14 c 2
 306.482 134 l 2
 321.361 204 372.888 230 407.014 240 c 1
 382.527 250.329 348.705 272.511 348.705 320.575 c 0
 348.705 328.353 349.591 336.808 351.545 346 c 2
 382.79 493 l 2
 384.369 500.427 385.088 507.13 385.088 513.171 c 0
 385.088 552.906 353.963 564 331.473 564 c 0
 320.785 564 313.727 571.208 313.727 580.214 c 0
 313.727 591.011 323.99 604 339.384 604 c 0
 398.278 604 427.489 574.414 427.489 525.514 c 0
 427.489 515.463 426.255 504.595 423.79 493 c 2
 392.545 346 l 2
 391.263 339.971 390.666 334.314 390.666 329.014 c 0
 390.666 279.357 443.142 261 477.478 261 c 0
 488 261 494.615 255.177 494.615 245.393 c 0
 494.615 235.636 489.487 221 468.975 221 c 0
 430.975 221 361.015 197.663 347.482 134 c 2
 316.024 -14 l 2
 301.783 -81 255.643 -124 184.643 -124 c 0
 174.253 -124 167.387 -118.003 167.387 -108.605 c 0
EndSplineSet
Validated: 3073
EndChar

StartChar: asciitilde
Encoding: 126 126 94
Width: 600
Flags: HMW
LayerCount: 2
Fore
SplineSet
440 253 m 0
 495 253 533 330 558 330 c 0
 567 330 575 323 575 315 c 0
 575 294 492 212 433 212 c 0
 362 212 332 307 278 307 c 0
 224 307 186 230 161 230 c 0
 152 230 145 237 145 245 c 0
 145 266 225 348 287 348 c 0
 308 348 329 342 349 323 c 0
 391 282 l 2
 417 258 425 253 440 253 c 0
EndSplineSet
Validated: 3073
EndChar

StartChar: cent
Encoding: 162 162 97
Width: 600
Flags: HMW
LayerCount: 2
Fore
SplineSet
339 164 m 0
 449 164 467 216 496 216 c 0
 503 216 512 208 512 202 c 0
 512 160 385 129 348 127 c 1
 324 14 l 2
 320 -4 311 -13 297 -13 c 0
 289 -13 281 -6 281 2 c 0
 281 5 282 11 283 14 c 0
 307 127 l 1
 227 137 175 194 175 273 c 0
 175 358 233 463 385 496 c 1
 408 603 l 2
 412 621 421 630 434 630 c 0
 444 630 451 623 451 614 c 0
 451 611 451 611 449 603 c 0
 427 497 l 1
 465 497 503 483 523 461 c 1
 529 472 537 478 546 478 c 0
 557 478 563 472 563 461 c 0
 563 458 563 456 562 453 c 0
 549 392 l 2
 545 373 536 363 523 363 c 0
 518 363 507 371 507 375 c 0
 509 404 l 2
 509 410 489 459 407 459 c 0
 305 459 216 375 216 277 c 0
 216 213 269 164 339 164 c 0
EndSplineSet
Validated: 3073
EndChar

StartChar: sterling
Encoding: 163 163 98
Width: 600
Flags: HMW
LayerCount: 2
Fore
SplineSet
413 537 m 0
 388 537 287 516 287 396 c 0
 287 392 290 344 292 314 c 1
 391 314 l 2
 408 314 414 310 414 298 c 0
 414 283 402 273 382 273 c 2
 292 273 l 1
 289 189 248 94 191 41 c 1
 443 41 l 2
 500 41 491 115 525 115 c 0
 534 115 541 108 541 100 c 0
 541 80 507 0 436 0 c 2
 113 0 l 2
 97 0 90 5 90 17 c 0
 90 30 101 40 117 40 c 0
 175 41 248 166 252 273 c 1
 148 273 l 2
 132 273 125 278 125 290 c 0
 125 305 137 314 157 314 c 2
 251 314 l 1
 246 353 245 373 245 393 c 0
 245 493 326 578 421 578 c 0
 488 578 533 527 533 499 c 0
 533 488 520 476 508 476 c 0
 488 476 484 537 413 537 c 0
EndSplineSet
Validated: 3073
EndChar

StartChar: currency
Encoding: 164 164 99
Width: 600
Flags: HMW
LayerCount: 2
Fore
SplineSet
233 162 m 1
 165 106 l 2
 155 98 150 95 144 95 c 0
 134 95 127 102 127 111 c 0
 127 119 131 125 142 135 c 2
 210 191 l 1
 199 214 193 236 193 259 c 0
 193 305 217 358 253 394 c 1
 209 450 l 2
 204 456 202 461 202 465 c 0
 202 477 215 489 227 489 c 0
 234 489 237 486 244 478 c 0
 288 423 l 1
 323 446 360 458 399 458 c 0
 435 458 468 446 492 423 c 1
 559 478 l 2
 569 487 574 489 580 489 c 0
 590 489 597 482 597 473 c 0
 597 464 594 459 582 450 c 2
 515 394 l 1
 527 373 532 351 532 327 c 0
 532 280 510 230 471 191 c 1
 515 135 l 2
 516 134 516 134 521 119 c 1
 521 108 508 95 495 95 c 0
 490 95 485 98 479 106 c 2
 436 162 l 1
 400 138 364 127 326 127 c 0
 290 127 259 139 233 162 c 1
388 417 m 0
 310 417 235 344 235 267 c 0
 235 210 277 168 334 168 c 0
 414 168 489 241 489 318 c 0
 489 376 447 417 388 417 c 0
EndSplineSet
Validated: 3073
EndChar

StartChar: yen
Encoding: 165 165 100
Width: 600
Flags: HMW
LayerCount: 2
Fore
SplineSet
372 238 m 1
 359 178 l 1
 490 178 l 2
 502 178 508 174 508 167 c 0
 508 150 499 141 482 141 c 2
 351 141 l 1
 330 41 l 1
 416 41 l 2
 433 41 439 37 439 25 c 0
 439 10 426 0 407 0 c 2
 194 0 l 2
 178 0 171 5 171 16 c 0
 171 32 183 41 203 41 c 2
 289 41 l 1
 310 141 l 1
 180 141 l 2
 167 141 161 145 161 153 c 0
 161 170 170 178 187 178 c 2
 318 178 l 1
 331 238 l 1
 200 238 l 2
 187 238 182 241 182 250 c 0
 182 267 190 275 208 275 c 2
 324 275 l 1
 213 522 l 1
 189 522 l 2
 172 522 166 527 166 538 c 0
 166 554 178 563 198 563 c 2
 308 563 l 2
 325 563 331 559 331 547 c 0
 331 532 319 522 299 522 c 2
 260 522 l 1
 363 295 l 1
 562 522 l 1
 523 522 l 2
 506 522 500 527 500 539 c 0
 500 554 512 563 532 563 c 2
 642 563 l 2
 659 563 665 559 665 546 c 0
 665 532 653 522 633 522 c 2
 609 522 l 1
 392 275 l 1
 510 275 l 2
 523 275 529 272 529 264 c 0
 529 246 520 238 503 238 c 2
 372 238 l 1
EndSplineSet
Validated: 3073
EndChar

StartChar: brokenbar
Encoding: 166 166 101
Width: 600
Flags: HMW
LayerCount: 2
Fore
SplineSet
442 577 m 0
 385 310 l 2
 381 292 373 283 360 283 c 0
 351 283 344 290 344 298 c 0
 360 395 384 483 402 577 c 0
 406 594 415 604 428 604 c 0
 437 604 444 597 444 589 c 0
 444 586 444 585 442 577 c 0
357 182 m 0
 341 85 317 -3 299 -97 c 0
 295 -115 286 -124 273 -124 c 0
 264 -124 257 -117 257 -109 c 0
 257 -107 258 -101 259 -97 c 2
 315 170 l 1
 319 188 328 197 341 197 c 0
 350 197 357 190 357 182 c 0
EndSplineSet
Validated: 3073
EndChar

StartChar: section
Encoding: 167 167 102
Width: 600
Flags: HMW
LayerCount: 2
Fore
SplineSet
575 202 m 0
 575 121 483 105 453 101 c 1
 457 91 458 84 458 75 c 0
 458 1 384 -62 298 -62 c 2
 91 -62 l 1
 115 49 l 1
 118 64 127 73 140 73 c 0
 150 73 157 67 157 58 c 0
 157 29 146 5 141 -22 c 1
 306 -22 l 2
 364 -22 416 19 416 65 c 0
 416 95 385 127 309 175 c 2
 252 211 l 2
 174 260 140 301 140 345 c 0
 140 394 193 436 262 441 c 1
 258 451 257 458 257 468 c 0
 257 536 334 603 412 603 c 2
 624 603 l 1
 601 494 l 1
 597 478 588 469 575 469 c 0
 566 469 558 475 558 483 c 0
 558 486 559 487 560 494 c 2
 574 563 l 1
 406 563 l 2
 351 563 298 519 298 474 c 0
 298 444 326 417 421 358 c 2
 470 327 l 2
 545 281 575 245 575 202 c 0
429 139 m 1
 437 143 531 142 531 192 c 0
 531 220 498 258 445 290 c 2
 388 326 l 2
 332 361 308 379 286 403 c 1
 282 402 280 402 275 402 c 2
 268 402 l 2
 221 402 184 379 184 350 c 0
 184 322 219 285 285 243 c 2
 340 208 l 2
 389 177 414 157 429 139 c 1
EndSplineSet
Validated: 3073
EndChar

StartChar: dieresis
Encoding: 168 168 103
Width: 600
Flags: HMW
LayerCount: 2
Fore
SplineSet
319 611 m 0
 343 611 360 594 360 571 c 0
 360 540 330 511 298 511 c 0
 275 511 258 528 258 551 c 0
 258 581 288 611 319 611 c 0
540 611 m 0
 564 611 581 594 581 571 c 0
 581 540 551 511 519 511 c 0
 496 511 479 528 479 551 c 0
 479 581 509 611 540 611 c 0
EndSplineSet
Validated: 3073
EndChar

StartChar: copyright
Encoding: 169 169 104
Width: 600
Flags: HMW
LayerCount: 2
Fore
SplineSet
465 189 m 0
 465 160 385 111 326 111 c 0
 258 111 206 164 206 232 c 0
 206 284 243 450 389 450 c 0
 420 450 441 443 471 421 c 1
 475 435 483 443 494 443 c 0
 502 443 508 437 508 429 c 0
 508 426 508 425 507 423 c 1
 494 358 l 1
 491 347 481 337 472 337 c 0
 466 337 461 341 457 348 c 1
 459 369 l 2
 459 378 431 415 381 415 c 0
 325 415 267 364 254 302 c 2
 246 263 l 1
 244 255 243 247 243 239 c 0
 243 186 282 147 334 147 c 0
 406 147 429 202 451 202 c 0
 459 202 465 197 465 189 c 0
426 578 m 0
 563 578 663 479 663 343 c 0
 663 158 485 -15 294 -15 c 0
 157 -15 57 85 57 220 c 0
 57 405 235 578 426 578 c 0
416 537 m 0
 252 537 99 388 99 229 c 0
 99 112 185 26 303 26 c 0
 468 26 621 175 621 334 c 0
 621 451 534 537 416 537 c 0
EndSplineSet
Validated: 3073
EndChar

StartChar: ordfeminine
Encoding: 170 170 105
Width: 600
Flags: HMW
LayerCount: 2
Fore
SplineSet
479 188 m 2
 222 188 l 2
 206 188 199 193 199 204 c 0
 199 220 211 229 231 229 c 2
 488 229 l 2
 504 229 511 224 511 213 c 0
 511 198 499 188 479 188 c 2
301 528 m 0
 301 555 378 574 420 574 c 0
 470 574 504 547 504 506 c 0
 504 501 503 496 502 490 c 0
 466 319 l 1
 492 319 l 2
 505 319 511 314 511 305 c 0
 511 291 500 282 484 282 c 2
 421 282 l 1
 426 308 l 1
 381 286 352 279 313 279 c 0
 261 279 229 303 229 343 c 0
 229 404 300 455 385 455 c 0
 407 455 427 452 456 446 c 1
 465 490 l 2
 466 494 466 495 466 500 c 0
 466 522 443 537 410 537 c 0
 372 537 330 514 315 514 c 0
 307 514 301 521 301 528 c 0
435 350 m 1
 448 409 l 1
 434 415 402 420 379 420 c 0
 318 420 266 387 266 348 c 0
 266 329 287 316 320 316 c 0
 359 316 394 326 435 350 c 1
EndSplineSet
Validated: 3073
EndChar

StartChar: guillemotleft
Encoding: 171 171 106
Width: 600
Flags: HMW
LayerCount: 2
Fore
SplineSet
108 209 m 1
 358 406 l 2
 368 414 374 417 381 417 c 0
 390 417 397 410 397 401 c 0
 397 393 395 389 382 377 c 2
 203 209 l 1
 310 40 l 1
 316 32 317 29 317 25 c 0
 317 12 305 0 292 0 c 0
 286 0 280 4 274 11 c 2
 108 209 l 1
337 209 m 1
 586 406 l 2
 597 414 603 417 610 417 c 0
 619 417 626 410 626 401 c 0
 626 393 624 389 611 377 c 2
 432 209 l 1
 539 40 l 1
 545 32 546 29 546 25 c 0
 546 12 534 0 521 0 c 0
 515 0 509 4 503 11 c 2
 337 209 l 1
EndSplineSet
Validated: 3073
EndChar

StartChar: logicalnot
Encoding: 172 172 107
Width: 600
Flags: HMW
LayerCount: 2
Fore
SplineSet
526 183 m 0
 526 185 528 193 528 195 c 1
 571 397 l 1
 183 397 l 2
 167 397 160 402 160 413 c 0
 160 429 172 438 192 438 c 2
 621 438 l 1
 569 195 l 1
 566 178 556 168 542 168 c 0
 534 168 526 175 526 183 c 0
EndSplineSet
Validated: 3073
EndChar

StartChar: registered
Encoding: 174 174 109
Width: 600
Flags: HMW
LayerCount: 2
Fore
SplineSet
288 258 m 1
 267 156 l 1
 302 156 l 2
 313 156 319 151 319 142 c 0
 319 130 308 120 295 120 c 2
 199 120 l 2
 188 120 182 125 182 134 c 0
 182 146 193 156 206 156 c 2
 231 156 l 1
 284 407 l 1
 260 407 l 2
 249 407 243 412 243 421 c 0
 243 434 254 443 268 443 c 2
 405 443 l 2
 458 443 493 414 493 369 c 0
 493 323 457 283 404 269 c 1
 431 242 438 230 465 156 c 1
 480 156 l 2
 490 156 496 151 496 142 c 0
 496 130 485 120 472 120 c 2
 433 120 l 1
 413 198 385 246 352 258 c 1
 288 258 l 1
296 294 m 1
 352 294 l 2
 413 294 456 322 456 362 c 0
 456 390 433 407 397 407 c 2
 320 407 l 1
 296 294 l 1
426 578 m 0
 563 578 663 479 663 343 c 0
 663 158 485 -15 294 -15 c 0
 157 -15 57 85 57 220 c 0
 57 405 235 578 426 578 c 0
416 537 m 0
 252 537 99 388 99 229 c 0
 99 112 185 26 303 26 c 0
 468 26 621 175 621 334 c 0
 621 451 534 537 416 537 c 0
EndSplineSet
Validated: 3073
EndChar

StartChar: macron
Encoding: 175 175 110
Width: 600
Flags: HMW
LayerCount: 2
Fore
SplineSet
532 536 m 2
 296 536 l 2
 280 536 273 541 273 552 c 0
 273 567 285 576 305 576 c 2
 541 576 l 2
 557 576 564 571 564 560 c 0
 564 545 552 536 532 536 c 2
EndSplineSet
Validated: 3073
EndChar

StartChar: degree
Encoding: 176 176 111
Width: 600
Flags: HMW
LayerCount: 2
Fore
SplineSet
437 636 m 0
 504 636 553 587 553 521 c 0
 553 432 466 346 375 346 c 0
 306 346 257 394 257 462 c 0
 257 552 344 636 437 636 c 0
428 595 m 0
 361 595 299 535 299 470 c 0
 299 421 334 387 383 387 c 0
 449 387 511 448 511 513 c 0
 511 560 476 595 428 595 c 0
EndSplineSet
Validated: 3073
EndChar

StartChar: plusminus
Encoding: 177 177 112
Width: 600
Flags: HMW
LayerCount: 2
Fore
SplineSet
384 301 m 1
 350 139 l 2
 346 121 337 112 324 112 c 0
 315 112 307 119 307 127 c 0
 307 130 307 131 309 139 c 0
 343 301 l 1
 163 301 l 2
 147 301 140 306 140 317 c 0
 140 332 152 341 171 341 c 2
 352 341 l 1
 386 502 l 2
 390 520 399 529 413 529 c 0
 421 529 429 522 429 514 c 0
 429 511 428 505 427 502 c 0
 393 341 l 1
 573 341 l 2
 591 341 597 337 597 325 c 0
 597 310 585 301 565 301 c 2
 384 301 l 1
108 40 m 2
 510 40 l 2
 526 40 533 35 533 24 c 0
 533 9 521 0 501 0 c 2
 99 0 l 2
 83 0 76 5 76 16 c 0
 76 31 88 40 108 40 c 2
EndSplineSet
Validated: 3073
EndChar

StartChar: twosuperior
Encoding: 178 178 113
Width: 600
Flags: HMW
LayerCount: 2
Fore
SplineSet
317 643 m 0
 317 663 369 734 447 734 c 0
 495 734 534 697 534 652 c 0
 534 599 518 583 302 417 c 1
 452 417 l 1
 456 429 461 440 475 440 c 0
 486 440 489 430 489 426 c 0
 489 408 482 397 480 381 c 1
 250 381 l 1
 259 424 l 1
 417 547 l 1
 486 603 497 617 497 645 c 0
 497 674 470 698 438 698 c 0
 366 698 354 630 331 630 c 0
 324 630 317 636 317 643 c 0
EndSplineSet
Validated: 3073
EndChar

StartChar: threesuperior
Encoding: 179 179 114
Width: 600
Flags: HMW
LayerCount: 2
Fore
SplineSet
536 666 m 0
 536 632 518 600 472 574 c 1
 502 554 514 533 514 504 c 0
 514 440 442 379 368 379 c 0
 322 379 265 406 265 428 c 0
 265 439 275 449 286 449 c 0
 302 449 315 415 376 415 c 0
 428 415 477 456 477 499 c 0
 477 533 445 558 400 559 c 0
 388 560 382 564 382 574 c 0
 382 586 393 595 407 595 c 2
 422 595 l 2
 464 595 499 624 499 659 c 0
 499 686 476 704 442 704 c 0
 380 704 368 667 349 667 c 0
 341 667 335 673 335 681 c 0
 335 706 401 740 450 740 c 0
 501 740 536 710 536 666 c 0
EndSplineSet
Validated: 3073
EndChar

StartChar: acute
Encoding: 180 180 115
Width: 600
Flags: HMW
LayerCount: 2
Fore
SplineSet
502 639 m 1
 600 639 l 1
 428 502.5 l 2
 418.185 494.71 411.167 490 399 490 c 0
 392 490 385 499.5 385 505 c 0
 385 508 386.672 514.487 389 517 c 2
 502 639 l 1
EndSplineSet
Validated: 3073
EndChar

StartChar: micro
Encoding: 181 181 116
Width: 600
Flags: HMW
LayerCount: 2
Fore
SplineSet
169 16 m 1
 129 -173 l 2
 125 -191 116 -200 102 -200 c 0
 93 -200 86 -193 86 -185 c 0
 86 -183 87 -178 88 -173 c 2
 205 377 l 1
 150 377 l 2
 134 377 127 382 127 393 c 0
 127 408 139 417 159 417 c 2
 254 417 l 1
 190 115 l 1
 188 107 187 98 187 94 c 0
 187 50 214 24 260 24 c 0
 329 24 395 53 464 115 c 1
 520 377 l 1
 445 377 l 2
 428 377 421 382 421 393 c 0
 421 408 433 417 454 417 c 2
 569 417 l 1
 489 40 l 1
 523 40 l 2
 539 40 546 36 546 24 c 0
 546 10 534 0 514 0 c 2
 439 0 l 1
 452 59 l 1
 389 10 320 -16 254 -16 c 0
 214 -16 191 -7 169 16 c 1
EndSplineSet
Validated: 3073
EndChar

StartChar: paragraph
Encoding: 182 182 117
Width: 600
Flags: HMW
LayerCount: 2
Fore
SplineSet
340 260 m 1
 236 267 163 309 163 386 c 0
 163 391 164 399 166 406 c 0
 176 453 l 2
 195 543 297 604 427 604 c 2
 627 604 l 2
 641 604 648 599 648 588 c 0
 648 573 636 563 618 563 c 2
 557 563 l 1
 433 -21 l 1
 495 -21 l 2
 510 -21 517 -26 517 -37 c 0
 517 -52 505 -62 487 -62 c 2
 388 -62 l 2
 374 -62 367 -57 367 -45 c 0
 367 -33 378 -22 393 -21 c 1
 517 563 l 1
 445 563 l 1
 321 -21 l 1
 332 -22 338 -27 338 -37 c 0
 338 -52 326 -62 308 -62 c 2
 174 -62 l 2
 159 -62 152 -56 152 -46 c 0
 152 -31 164 -21 182 -21 c 2
 280 -21 l 1
 340 260 l 1
403 558 m 1
 261 549 235 437 235 400 c 0
 235 399 235 397 235 396 c 0
 235 352 284 314 350 307 c 1
 403 558 l 1
EndSplineSet
Validated: 3073
EndChar

StartChar: middot
Encoding: 183 183 118
Width: 600
Flags: HMW
LayerCount: 2
Fore
SplineSet
360 287 m 0
 384 287 401 270 401 247 c 0
 401 216 371 187 339 187 c 0
 316 187 299 204 299 227 c 0
 299 257 329 287 360 287 c 0
EndSplineSet
Validated: 3073
EndChar

StartChar: cedilla
Encoding: 184 184 119
Width: 600
Flags: HMW
LayerCount: 2
Fore
SplineSet
205 -114 m 0
 218 -114 238 -135 268 -135 c 0
 297 -135 319 -121 319 -101 c 0
 319 -88 305 -81 278 -81 c 2
 257 -81 l 1
 274 0 l 1
 312 0 l 1
 302 -47 l 1
 338 -48 356 -63 356 -93 c 0
 356 -138 315 -173 262 -173 c 0
 225 -173 181 -154 181 -138 c 0
 181 -125 192 -114 205 -114 c 0
EndSplineSet
Validated: 3073
EndChar

StartChar: onesuperior
Encoding: 185 185 120
Width: 600
Flags: HMW
LayerCount: 2
Fore
SplineSet
469 732 m 1
 401 415 l 1
 472 415 l 2
 483 415 489 410 489 401 c 0
 489 389 478 379 465 379 c 2
 286 379 l 2
 275 379 269 384 269 393 c 0
 269 409 280 415 305 415 c 2
 365 415 l 1
 422 683 l 1
 353 662 l 2
 350 661 346 661 343 661 c 0
 336 661 330 668 330 675 c 0
 330 696 354 699 469 732 c 1
EndSplineSet
Validated: 3073
EndChar

StartChar: ordmasculine
Encoding: 186 186 121
Width: 600
Flags: HMW
LayerCount: 2
Fore
SplineSet
479 188 m 2
 222 188 l 2
 206 188 199 193 199 204 c 0
 199 220 211 229 231 229 c 2
 488 229 l 2
 504 229 511 224 511 213 c 0
 511 198 499 188 479 188 c 2
424 577 m 0
 494 577 543 529 543 460 c 0
 543 369 454 284 360 284 c 0
 293 284 243 333 243 400 c 0
 243 491 331 577 424 577 c 0
416 540 m 0
 347 540 281 476 281 408 c 0
 281 358 318 321 369 321 c 0
 439 321 505 385 505 453 c 0
 505 504 468 540 416 540 c 0
EndSplineSet
Validated: 3073
EndChar

StartChar: guillemotright
Encoding: 187 187 122
Width: 600
Flags: HMW
LayerCount: 2
Fore
SplineSet
355 208 m 1
 107 11 l 2
 97 3 90 0 83 0 c 0
 74 0 67 6 67 16 c 0
 67 24 69 28 82 40 c 2
 260 208 l 1
 154 377 l 2
 148 386 147 388 147 392 c 0
 147 405 159 417 172 417 c 0
 178 417 184 413 190 406 c 2
 355 208 l 1
585 208 m 1
 336 11 l 2
 326 3 320 0 313 0 c 0
 304 0 297 7 297 16 c 0
 297 24 300 28 312 40 c 2
 490 208 l 1
 384 377 l 1
 378 385 377 388 377 392 c 0
 377 405 389 417 402 417 c 0
 408 417 414 413 420 406 c 2
 585 208 l 1
EndSplineSet
Validated: 3073
EndChar

StartChar: AE
Encoding: 198 198 133
Width: 600
Flags: HMW
LayerCount: 2
Fore
SplineSet
337 189 m 1
 196 189 l 1
 124 41 l 1
 150 41 l 2
 167 41 173 37 173 25 c 0
 173 10 161 0 141 0 c 2
 37 0 l 2
 21 0 14 5 14 16 c 0
 14 32 26 41 46 41 c 2
 83 41 l 1
 318 522 l 1
 255 522 l 2
 239 522 232 527 232 538 c 0
 232 554 244 563 264 563 c 2
 690 563 l 1
 658 411 l 2
 654 393 645 384 631 384 c 0
 622 384 615 391 615 399 c 0
 615 401 616 407 617 411 c 2
 640 522 l 1
 449 522 l 1
 405 314 l 1
 483 314 l 1
 488 335 490 369 515 369 c 0
 524 369 531 362 531 354 c 0
 531 351 531 350 529 342 c 0
 509 246 l 1
 505 228 496 219 483 219 c 0
 474 219 467 226 467 235 c 0
 467 246 472 262 474 273 c 1
 396 273 l 1
 347 41 l 1
 558 41 l 1
 578 134 l 1
 580 152 589 160 604 160 c 0
 613 160 620 153 620 144 c 0
 620 92 598 50 590 0 c 1
 245 0 l 2
 229 0 222 5 222 17 c 0
 222 32 234 41 254 41 c 2
 306 41 l 1
 337 189 l 1
346 230 m 1
 408 522 l 1
 358 522 l 1
 216 230 l 1
 346 230 l 1
EndSplineSet
Validated: 3073
EndChar

StartChar: Ccedilla
Encoding: 199 199 134
Width: 600
Flags: HMW
LayerCount: 2
Fore
SplineSet
558 111 m 0
 558 82 434 -16 327 -16 c 2
 314 -16 l 1
 307 -47 l 1
 343 -48 361 -63 361 -93 c 0
 361 -138 320 -173 267 -173 c 0
 230 -173 186 -154 186 -138 c 0
 186 -125 198 -114 210 -114 c 0
 223 -114 243 -135 273 -135 c 0
 302 -135 324 -121 324 -101 c 0
 324 -88 311 -81 283 -81 c 2
 262 -81 l 1
 277 -12 l 1
 153 21 110 114 110 196 c 0
 110 212 112 227 115 242 c 2
 132 325 l 1
 157 442 280 576 428 576 c 0
 494 576 549 552 586 507 c 1
 591 529 593 563 618 563 c 0
 628 563 635 557 635 548 c 0
 635 546 634 541 633 536 c 2
 609 424 l 1
 606 406 596 396 583 396 c 0
 577 396 571 400 566 408 c 1
 570 446 l 2
 570 462 522 536 419 536 c 0
 309 536 197 438 172 319 c 2
 157 248 l 2
 154 233 152 217 152 203 c 0
 152 101 227 25 328 25 c 0
 397 25 454 51 522 115 c 0
 530 123 534 125 542 125 c 0
 551 125 558 119 558 111 c 0
EndSplineSet
Validated: 3073
EndChar

StartChar: Eth
Encoding: 208 208 143
Width: 600
Flags: HMW
LayerCount: 2
Fore
SplineSet
162 272 m 1
 85 272 l 2
 69 272 62 277 62 288 c 0
 62 304 74 313 94 313 c 2
 171 313 l 1
 215 522 l 1
 181 522 l 2
 165 522 158 527 158 538 c 0
 158 554 170 563 190 563 c 2
 410 563 l 2
 516 563 592 481 592 366 c 0
 592 347 590 329 586 310 c 2
 574 254 l 2
 544 115 416 0 290 0 c 2
 70 0 l 2
 54 0 47 5 47 16 c 0
 47 32 59 41 79 41 c 2
 113 41 l 1
 162 272 l 1
551 357 m 0
 551 421 521 522 399 522 c 2
 256 522 l 1
 212 313 l 1
 374 313 l 2
 391 313 397 309 397 297 c 0
 397 282 385 272 365 272 c 2
 203 272 l 1
 154 41 l 1
 303 41 l 2
 398 41 509 140 531 245 c 1
 547 319 l 1
 550 331 551 345 551 357 c 0
EndSplineSet
Validated: 3073
EndChar

StartChar: multiply
Encoding: 215 215 150
Width: 600
Flags: HMW
LayerCount: 2
Fore
SplineSet
366 311 m 1
 539 453 l 2
 549 461 554 464 560 464 c 0
 570 464 577 457 577 447 c 0
 577 440 573 433 562 424 c 2
 389 282 l 1
 501 139 l 2
 505 134 508 128 508 124 c 0
 508 112 495 100 482 100 c 0
 476 100 472 103 466 110 c 2
 354 253 l 1
 181 110 l 2
 172 103 166 100 159 100 c 0
 150 100 143 107 143 116 c 0
 143 124 148 130 158 139 c 0
 331 282 l 1
 219 424 l 2
 215 429 212 436 212 440 c 0
 212 452 225 464 238 464 c 0
 243 464 248 461 254 453 c 2
 366 311 l 1
EndSplineSet
Validated: 3073
EndChar

StartChar: Oslash
Encoding: 216 216 151
Width: 600
Flags: HMW
LayerCount: 2
Fore
SplineSet
152 51 m 1
 69 -31 l 2
 60 -40 55 -43 48 -43 c 0
 40 -43 34 -37 34 -29 c 0
 34 -23 37 -18 46 -9 c 2
 134 78 l 1
 112 118 102 159 102 207 c 0
 102 396 259 576 423 576 c 0
 483 576 526 556 566 510 c 1
 650 593 l 2
 659 602 664 605 670 605 c 0
 679 605 685 599 685 591 c 0
 685 585 682 580 673 571 c 2
 585 483 l 1
 605 447 616 404 616 354 c 0
 616 164 460 -16 296 -16 c 0
 236 -16 187 7 152 51 c 1
167 112 m 1
 533 476 l 1
 502 515 462 535 416 535 c 0
 278 535 144 378 144 217 c 0
 144 178 151 145 167 112 c 1
551 449 m 1
 185 84 l 1
 215 46 256 25 302 25 c 0
 441 25 574 181 574 344 c 0
 574 383 566 418 551 449 c 1
EndSplineSet
Validated: 3073
EndChar

StartChar: Thorn
Encoding: 222 222 157
Width: 600
Flags: HMW
LayerCount: 2
Fore
SplineSet
193 131 m 1
 174 41 l 1
 312 41 l 2
 329 41 336 36 336 25 c 0
 336 10 323 0 304 0 c 2
 70 0 l 2
 54 0 47 5 47 17 c 0
 47 32 59 41 79 41 c 2
 133 41 l 1
 235 522 l 1
 181 522 l 2
 165 522 158 527 158 539 c 0
 158 554 170 563 190 563 c 2
 423 563 l 2
 441 563 447 559 447 547 c 0
 447 532 435 522 415 522 c 2
 276 522 l 1
 263 463 l 1
 408 463 l 2
 500 463 566 408 566 331 c 0
 566 224 453 131 324 131 c 2
 193 131 l 1
202 172 m 1
 336 172 l 2
 434 172 524 243 524 321 c 0
 524 379 473 422 404 422 c 2
 255 422 l 1
 202 172 l 1
EndSplineSet
Validated: 3073
EndChar

StartChar: germandbls
Encoding: 223 223 158
Width: 600
Flags: HMW
LayerCount: 2
Fore
SplineSet
355 375 m 2
 379 375 471 397 471 480 c 0
 471 528 436 563 386 563 c 0
 329 563 277 525 267 476 c 0
 174 41 l 1
 189 41 l 2
 206 41 212 37 212 25 c 0
 212 10 199 0 180 0 c 2
 70 0 l 2
 54 0 47 5 47 16 c 0
 47 32 59 41 79 41 c 2
 133 41 l 1
 225 476 l 2
 240 547 317 604 396 604 c 0
 465 604 513 556 513 487 c 0
 513 434 486 391 431 359 c 1
 504 326 539 276 539 206 c 0
 539 114 468 -16 361 -16 c 0
 308 -16 278 18 278 79 c 0
 278 107 288 124 306 124 c 0
 315 124 322 118 322 109 c 0
 322 102 320 92 320 83 c 0
 320 45 338 25 371 25 c 0
 434 25 497 113 497 200 c 0
 497 274 431 334 350 334 c 2
 346 334 l 2
 328 334 322 339 322 350 c 0
 322 364 334 375 350 375 c 2
 355 375 l 2
EndSplineSet
Validated: 3073
EndChar

StartChar: ae
Encoding: 230 230 165
Width: 600
Flags: HMW
LayerCount: 2
Fore
SplineSet
150 374 m 0
 150 410 263 431 290 431 c 0
 340 431 378 397 385 347 c 1
 421 399 473 431 521 431 c 0
 590 431 630 380 630 296 c 0
 630 263 627 240 619 199 c 1
 361 199 l 1
 359 181 358 165 358 154 c 0
 358 79 397 25 451 25 c 0
 508 25 555 87 577 87 c 0
 586 87 593 80 593 70 c 0
 593 51 502 -16 441 -16 c 0
 394 -16 356 11 333 61 c 1
 328 41 326 0 300 0 c 0
 291 0 284 7 284 15 c 0
 284 29 288 40 291 52 c 1
 242 5 200 -16 156 -16 c 0
 83 -16 36 29 36 99 c 0
 36 191 133 257 249 257 c 0
 277 257 305 253 332 245 c 1
 345 305 l 1
 346 311 347 319 347 322 c 0
 347 362 317 390 275 390 c 0
 211 390 186 358 165 358 c 0
 158 358 150 366 150 374 c 0
303 110 m 1
 323 203 l 1
 297 211 269 216 246 216 c 0
 190 216 122 190 98 159 c 0
 88 145 80 120 80 100 c 0
 80 55 114 25 165 25 c 0
 204 25 243 49 303 110 c 1
370 240 m 1
 586 240 l 1
 588 262 589 274 589 288 c 0
 589 354 562 390 512 390 c 0
 452 390 405 340 370 240 c 1
EndSplineSet
Validated: 3073
EndChar

StartChar: ccedilla
Encoding: 231 231 166
Width: 600
Flags: HMW
LayerCount: 2
Fore
SplineSet
393 391 m 0
 211 391 164 216 164 162 c 0
 164 81 226 24 313 24 c 0
 388 24 460 50 519 97 c 0
 527 104 534 108 539 108 c 0
 546 108 555 99 555 91 c 0
 555 68 460 -8 311 -16 c 1
 305 -47 l 1
 340 -48 359 -63 359 -93 c 0
 359 -138 318 -173 265 -173 c 0
 228 -173 184 -154 184 -138 c 0
 184 -125 196 -114 208 -114 c 0
 221 -114 241 -135 271 -135 c 0
 300 -135 322 -121 322 -101 c 0
 322 -88 308 -81 280 -81 c 2
 260 -81 l 1
 274 -14 l 1
 242 -9 122 11 122 154 c 0
 122 303 253 431 406 431 c 0
 468 431 516 412 551 376 c 1
 555 395 559 417 580 417 c 0
 589 417 596 410 596 402 c 0
 596 399 595 395 594 389 c 0
 575 298 l 2
 571 280 562 270 549 270 c 0
 542 270 537 273 532 282 c 1
 535 318 l 2
 535 333 489 391 393 391 c 0
EndSplineSet
Validated: 3073
EndChar

StartChar: eth
Encoding: 240 240 175
Width: 600
Flags: HMW
LayerCount: 2
Fore
SplineSet
393 549 m 1
 318 586 286 574 286 594 c 0
 286 608 298 620 312 620 c 0
 338 620 397 600 450 572 c 1
 553 614 l 1
 560 615 l 2
 568 615 575 608 575 599 c 0
 575 589 570 580 562 577 c 2
 480 543 l 1
 545 474 582 380 582 286 c 0
 582 44 363 -17 296 -17 c 0
 187 -17 111 57 111 161 c 0
 111 300 246 430 390 430 c 0
 444 430 478 416 524 377 c 1
 503 441 470 495 434 525 c 1
 335 483 l 1
 328 482 l 2
 319 482 312 490 312 500 c 0
 312 510 317 518 324 521 c 2
 393 549 l 1
383 390 m 0
 265 390 154 284 154 171 c 0
 154 85 217 25 306 25 c 0
 425 25 536 130 536 244 c 0
 536 331 474 390 383 390 c 0
EndSplineSet
Validated: 3073
EndChar

StartChar: divide
Encoding: 247 247 182
Width: 600
Flags: HMW
LayerCount: 2
Fore
SplineSet
556 262 m 2
 154 262 l 2
 138 262 131 267 131 278 c 0
 131 293 143 302 163 302 c 2
 565 302 l 2
 581 302 588 297 588 286 c 0
 588 271 576 262 556 262 c 2
326 124 m 0
 350 124 367 108 367 84 c 0
 367 54 337 25 305 25 c 0
 282 25 265 42 265 64 c 0
 265 95 295 124 326 124 c 0
415 540 m 0
 438 540 455 524 455 500 c 0
 455 470 425 441 393 441 c 0
 371 441 354 458 354 480 c 0
 354 511 384 540 415 540 c 0
EndSplineSet
Validated: 3073
EndChar

StartChar: oslash
Encoding: 248 248 183
Width: 600
Flags: HMW
LayerCount: 2
Fore
SplineSet
161 35 m 1
 80 -33 l 2
 71 -41 67 -43 61 -43 c 0
 53 -43 47 -37 47 -29 c 0
 47 -22 51 -17 61 -8 c 2
 141 59 l 1
 121 90 111 123 111 162 c 0
 111 302 246 431 392 431 c 0
 446 431 490 415 525 382 c 1
 603 448 l 2
 613 456 617 458 623 458 c 0
 631 458 637 452 637 444 c 0
 637 437 633 432 623 423 c 2
 545 358 l 1
 567 326 577 294 577 254 c 0
 577 113 442 -16 296 -16 c 0
 241 -16 197 1 161 35 c 1
511 329 m 1
 197 65 l 1
 224 39 261 25 305 25 c 0
 425 25 535 131 535 245 c 0
 535 277 527 304 511 329 c 1
176 89 m 1
 490 352 l 1
 461 378 426 390 383 390 c 0
 263 390 153 285 153 171 c 0
 153 140 161 113 176 89 c 1
EndSplineSet
Validated: 3073
EndChar

StartChar: thorn
Encoding: 254 254 189
Width: 600
Flags: HMW
LayerCount: 2
Fore
SplineSet
270 590 m 1
 216 335 l 1
 283 404 339 431 415 431 c 0
 523 431 593 365 593 264 c 0
 593 131 466 10 326 10 c 0
 249 10 199 40 167 106 c 1
 114 -145 l 1
 211 -145 l 2
 229 -145 235 -149 235 -161 c 0
 235 -177 223 -186 203 -186 c 2
 10 -186 l 2
 -6 -186 -13 -181 -13 -170 c 0
 -13 -154 -1 -145 19 -145 c 2
 73 -145 l 1
 220 549 l 1
 166 549 l 2
 150 549 143 554 143 565 c 0
 143 581 155 590 175 590 c 2
 270 590 l 1
405 390 m 0
 292 390 188 292 188 187 c 0
 188 107 248 51 333 51 c 0
 447 51 551 149 551 255 c 0
 551 335 491 390 405 390 c 0
EndSplineSet
Validated: 3073
EndChar

StartChar: Aogonek
Encoding: 260 260 195
Width: 600
Flags: HMW
LayerCount: 2
Fore
SplineSet
403 -108 m 0
 403 -44 485 -12 509 0 c 1
 408 0 l 2
 392 0 385 5 385 16 c 0
 385 32 397 41 417 41 c 2
 493 41 l 1
 468 188 l 1
 203 188 l 1
 117 41 l 1
 196 41 l 2
 213 41 219 37 219 25 c 0
 219 10 206 0 187 0 c 2
 36 0 l 2
 20 0 13 5 13 17 c 0
 13 32 25 41 45 41 c 2
 76 41 l 1
 357 522 l 1
 237 522 l 2
 221 522 214 527 214 538 c 0
 214 554 226 563 246 563 c 2
 449 563 l 1
 536 41 l 1
 573 41 l 2
 590 41 596 37 596 25 c 0
 596 -7 576 14 495 -32 c 0
 464 -51 445 -77 445 -100 c 0
 445 -117 456 -125 477 -125 c 0
 529 -125 519 -104 542 -104 c 0
 547 -104 553 -110 553 -116 c 0
 553 -135 510 -155 470 -155 c 0
 427 -155 403 -138 403 -108 c 0
462 229 m 1
 412 522 l 1
 397 522 l 1
 227 229 l 1
 462 229 l 1
EndSplineSet
Validated: 3073
EndChar

StartChar: aogonek
Encoding: 261 261 196
Width: 600
Flags: HMW
LayerCount: 2
Fore
SplineSet
205 374 m 0
 205 411 361 431 391 431 c 0
 472 431 528 390 528 331 c 0
 528 322 528 316 526 308 c 0
 469 41 l 1
 523 41 l 2
 540 41 546 37 546 25 c 0
 546 13 539 6 523 -1 c 0
 456 -29 418 -64 418 -99 c 0
 418 -115 431 -123 456 -123 c 0
 494 -123 505 -104 517 -104 c 0
 523 -104 528 -109 528 -116 c 0
 528 -134 484 -155 443 -155 c 0
 402 -155 378 -138 378 -109 c 0
 378 -44 449 -13 477 0 c 1
 419 0 l 1
 433 67 l 1
 360 10 295 -16 225 -16 c 0
 143 -16 93 23 93 87 c 0
 93 184 200 258 338 258 c 0
 384 258 414 253 470 237 c 1
 485 308 l 2
 486 313 486 316 486 322 c 0
 486 363 444 390 379 390 c 0
 301 390 249 358 220 358 c 0
 212 358 205 365 205 374 c 0
443 112 m 1
 462 202 l 1
 427 211 382 217 337 217 c 0
 222 217 135 165 135 96 c 0
 135 51 170 25 231 25 c 0
 304 25 361 49 443 112 c 1
EndSplineSet
Validated: 3073
EndChar

StartChar: Dcroat
Encoding: 272 272 207
Width: 600
Flags: HMW
LayerCount: 2
Fore
SplineSet
162 272 m 1
 85 272 l 2
 69 272 62 277 62 288 c 0
 62 304 74 313 94 313 c 2
 171 313 l 1
 215 522 l 1
 181 522 l 2
 165 522 158 527 158 538 c 0
 158 554 170 563 190 563 c 2
 410 563 l 2
 516 563 592 481 592 366 c 0
 592 347 590 329 586 310 c 2
 574 254 l 2
 544 115 416 0 290 0 c 2
 70 0 l 2
 54 0 47 5 47 16 c 0
 47 32 59 41 79 41 c 2
 113 41 l 1
 162 272 l 1
551 357 m 0
 551 421 521 522 399 522 c 2
 256 522 l 1
 212 313 l 1
 374 313 l 2
 391 313 397 309 397 297 c 0
 397 282 385 272 365 272 c 2
 203 272 l 1
 154 41 l 1
 303 41 l 2
 398 41 509 140 531 245 c 1
 547 319 l 1
 550 331 551 345 551 357 c 0
EndSplineSet
Validated: 3073
EndChar

StartChar: dcroat
Encoding: 273 273 208
Width: 600
Flags: HMW
LayerCount: 2
Fore
SplineSet
612 520 m 1
 666 520 l 2
 684 520 690 516 690 504 c 0
 690 487 680 479 657 479 c 2
 603 479 l 1
 510 41 l 1
 565 41 l 2
 581 41 587 37 587 25 c 0
 587 10 575 0 556 0 c 2
 461 0 l 1
 480 89 l 1
 417 18 350 -16 274 -16 c 0
 176 -16 102 58 102 157 c 0
 102 299 232 431 371 431 c 0
 446 431 496 398 530 327 c 1
 562 479 l 1
 425 479 l 2
 407 479 401 483 401 494 c 0
 401 511 413 520 434 520 c 2
 571 520 l 1
 580 563 l 1
 526 563 l 2
 509 563 503 567 503 580 c 0
 503 595 515 604 535 604 c 2
 630 604 l 1
 612 520 l 1
365 390 m 0
 251 390 144 284 144 169 c 0
 144 84 203 25 287 25 c 0
 403 25 509 132 509 248 c 0
 509 331 450 390 365 390 c 0
EndSplineSet
Validated: 3073
EndChar

StartChar: Eogonek
Encoding: 280 280 215
Width: 600
Flags: HMW
LayerCount: 2
Fore
SplineSet
425 -125 m 0
 477 -125 467 -104 490 -104 c 0
 495 -104 501 -110 501 -116 c 0
 501 -135 458 -155 418 -155 c 0
 375 -155 351 -138 351 -108 c 0
 351 -54 400 -28 458 0 c 1
 70 0 l 2
 54 0 47 5 47 17 c 0
 47 32 59 41 79 41 c 2
 133 41 l 1
 235 522 l 1
 181 522 l 2
 165 522 158 527 158 539 c 0
 158 554 170 563 190 563 c 2
 619 563 l 1
 589 424 l 1
 586 406 577 397 563 397 c 0
 554 397 547 404 547 412 c 0
 547 453 563 484 569 522 c 1
 276 522 l 1
 232 313 l 1
 377 313 l 1
 386 358 l 1
 390 376 399 385 412 385 c 0
 422 385 429 378 429 370 c 0
 429 368 428 362 427 358 c 2
 399 227 l 1
 396 209 387 200 373 200 c 0
 364 200 357 207 357 215 c 0
 357 236 365 253 368 272 c 1
 223 272 l 1
 174 41 l 1
 488 41 l 1
 513 160 l 2
 517 178 526 187 540 187 c 0
 549 187 556 180 556 172 c 0
 556 169 555 165 554 160 c 2
 520 0 l 1
 440 -23 393 -60 393 -100 c 0
 393 -116 404 -125 425 -125 c 0
EndSplineSet
Validated: 3073
EndChar

StartChar: eogonek
Encoding: 281 281 216
Width: 600
Flags: HMW
LayerCount: 2
Fore
SplineSet
363 -123 m 0
 401 -123 412 -104 424 -104 c 0
 430 -104 435 -109 435 -116 c 0
 435 -134 391 -155 350 -155 c 0
 309 -155 285 -138 285 -109 c 0
 285 -71 313 -34 359 -11 c 1
 333 -15 319 -16 301 -16 c 0
 184 -16 104 60 104 171 c 0
 104 309 235 431 383 431 c 0
 492 431 570 361 570 262 c 0
 570 248 567 224 562 199 c 1
 146 199 l 1
 145 189 145 181 145 177 c 0
 145 87 213 25 310 25 c 0
 373 25 450 47 498 79 c 0
 507 84 511 86 516 86 c 0
 525 86 531 79 531 70 c 0
 531 56 516 43 473 22 c 0
 355 -35 325 -59 325 -99 c 0
 325 -115 338 -123 363 -123 c 0
155 240 m 1
 529 240 l 1
 530 245 530 250 530 252 c 0
 530 333 466 390 375 390 c 0
 277 390 192 332 155 240 c 1
EndSplineSet
Validated: 3073
EndChar

StartChar: Hbar
Encoding: 294 294 229
Width: 600
Flags: HMW
LayerCount: 2
Fore
SplineSet
573 445 m 1
 582 445 l 2
 607 445 618 440 618 429 c 0
 618 414 599 405 567 405 c 2
 564 405 l 1
 487 41 l 1
 532 41 l 2
 550 41 556 37 556 25 c 0
 556 10 543 0 524 0 c 2
 383 0 l 2
 367 0 360 5 360 16 c 0
 360 32 372 41 392 41 c 2
 446 41 l 1
 495 272 l 1
 225 272 l 1
 176 41 l 1
 230 41 l 2
 247 41 253 37 253 25 c 0
 253 10 240 0 221 0 c 2
 81 0 l 2
 64 0 57 5 57 16 c 0
 57 32 69 41 89 41 c 2
 135 41 l 1
 212 405 l 1
 194 405 l 2
 168 405 157 410 157 421 c 0
 157 436 176 445 208 445 c 2
 221 445 l 1
 237 522 l 1
 212 522 l 2
 196 522 189 527 189 538 c 0
 189 554 201 563 221 563 c 2
 341 563 l 2
 358 563 364 559 364 547 c 0
 364 532 352 522 332 522 c 2
 278 522 l 1
 262 445 l 1
 532 445 l 1
 548 522 l 1
 494 522 l 2
 478 522 471 527 471 538 c 0
 471 554 483 563 503 563 c 2
 623 563 l 2
 640 563 646 559 646 547 c 0
 646 532 634 522 614 522 c 2
 589 522 l 1
 573 445 l 1
523 405 m 1
 253 405 l 1
 234 313 l 1
 504 313 l 1
 523 405 l 1
EndSplineSet
Validated: 3073
EndChar

StartChar: hbar
Encoding: 295 295 230
Width: 600
Flags: HMW
LayerCount: 2
Fore
SplineSet
501 309 m 0
 501 344 480 390 396 390 c 0
 341 390 309 373 241 309 c 2
 228 296 l 1
 174 41 l 1
 219 41 l 2
 236 41 243 36 243 25 c 0
 243 10 230 0 210 0 c 2
 78 0 l 2
 62 0 55 5 55 17 c 0
 55 32 67 41 87 41 c 2
 133 41 l 1
 225 473 l 1
 155 473 l 2
 142 473 136 478 136 489 c 0
 136 504 146 513 162 513 c 2
 233 513 l 1
 244 563 l 1
 189 563 l 2
 173 563 167 567 167 580 c 0
 167 595 179 604 198 604 c 2
 293 604 l 1
 274 513 l 1
 351 513 l 2
 363 513 369 508 369 497 c 0
 369 482 359 473 343 473 c 2
 265 473 l 1
 239 347 l 1
 303 408 350 431 411 431 c 0
 491 431 543 387 543 319 c 0
 543 310 542 301 540 291 c 2
 487 41 l 1
 532 41 l 2
 549 41 556 36 556 25 c 0
 556 10 543 0 524 0 c 2
 392 0 l 2
 376 0 369 5 369 17 c 0
 369 32 381 41 400 41 c 2
 446 41 l 1
 498 288 l 1
 500 295 501 304 501 309 c 0
EndSplineSet
Validated: 3073
EndChar

StartChar: Iogonek
Encoding: 302 302 237
Width: 600
Flags: HMW
LayerCount: 2
Fore
SplineSet
303 -108 m 0
 303 -44 385 -12 409 0 c 1
 140 0 l 2
 124 0 117 5 117 16 c 0
 117 32 129 41 148 41 c 2
 288 41 l 1
 390 522 l 1
 251 522 l 2
 235 522 228 527 228 538 c 0
 228 554 240 563 259 563 c 2
 579 563 l 2
 597 563 603 559 603 547 c 0
 603 532 590 522 571 522 c 2
 431 522 l 1
 329 41 l 1
 468 41 l 2
 486 41 492 37 492 25 c 0
 492 4 473 1 433 -13 c 0
 386 -28 345 -69 345 -100 c 0
 345 -117 356 -125 377 -125 c 0
 429 -125 419 -104 442 -104 c 0
 447 -104 453 -110 453 -116 c 0
 453 -135 410 -155 370 -155 c 0
 327 -155 303 -138 303 -108 c 0
EndSplineSet
Validated: 3073
EndChar

StartChar: iogonek
Encoding: 303 303 238
Width: 600
Flags: HMW
LayerCount: 2
Fore
SplineSet
345 -109 m 0
 345 -43 419 -11 444 0 c 1
 119 0 l 2
 103 0 96 5 96 16 c 0
 96 32 108 41 127 41 c 2
 288 41 l 1
 359 376 l 1
 241 376 l 2
 225 376 218 381 218 393 c 0
 218 408 230 417 250 417 c 2
 409 417 l 1
 329 41 l 1
 489 41 l 2
 506 41 513 36 513 25 c 0
 513 -8 385 -27 385 -99 c 0
 385 -115 398 -123 423 -123 c 0
 461 -123 472 -104 484 -104 c 0
 490 -104 495 -109 495 -116 c 0
 495 -134 451 -155 410 -155 c 0
 369 -155 345 -138 345 -109 c 0
451 624 m 1
 429 520 l 1
 370 520 l 1
 392 624 l 1
 451 624 l 1
EndSplineSet
Validated: 3073
EndChar

StartChar: dotlessi
Encoding: 305 305 240
Width: 600
Flags: HMW
LayerCount: 2
Fore
SplineSet
409 417 m 1
 329 41 l 1
 489 41 l 2
 506 41 513 36 513 25 c 0
 513 10 500 0 481 0 c 2
 119 0 l 2
 103 0 96 5 96 16 c 0
 96 32 108 41 127 41 c 2
 288 41 l 1
 359 376 l 1
 241 376 l 2
 225 376 218 381 218 393 c 0
 218 408 230 417 250 417 c 2
 409 417 l 1
EndSplineSet
Validated: 3073
EndChar

StartChar: IJ
Encoding: 306 306 241
Width: 600
Flags: HMW
LayerCount: 2
Fore
SplineSet
251 522 m 1
 149 41 l 1
 198 41 l 2
 216 41 222 37 222 25 c 0
 222 10 209 0 190 0 c 2
 50 0 l 2
 34 0 27 5 27 16 c 0
 27 32 39 41 58 41 c 2
 108 41 l 1
 210 522 l 1
 161 522 l 2
 145 522 138 527 138 538 c 0
 138 554 150 563 169 563 c 2
 309 563 l 2
 327 563 333 559 333 547 c 0
 333 532 320 522 301 522 c 2
 251 522 l 1
590 522 m 1
 514 165 l 2
 493 67 440 -16 338 -16 c 0
 274 -16 260 0 219 74 c 1
 251 223 l 2
 255 241 263 250 277 250 c 0
 286 250 293 243 293 235 c 0
 293 183 272 142 264 93 c 1
 290 44 297 25 347 25 c 0
 429 25 456 87 473 165 c 0
 549 522 l 1
 442 522 l 2
 425 522 418 527 418 538 c 0
 418 554 430 563 450 563 c 2
 649 563 l 2
 666 563 672 559 672 547 c 0
 672 532 660 522 640 522 c 2
 590 522 l 1
EndSplineSet
Validated: 3073
EndChar

StartChar: ij
Encoding: 307 307 242
Width: 600
Flags: HMW
LayerCount: 2
Fore
SplineSet
344 624 m 1
 322 520 l 1
 263 520 l 1
 285 624 l 1
 344 624 l 1
309 417 m 1
 229 41 l 1
 352 41 l 2
 369 41 376 36 376 25 c 0
 376 10 363 0 344 0 c 2
 57 0 l 2
 41 0 34 5 34 16 c 0
 34 32 46 41 65 41 c 2
 188 41 l 1
 259 376 l 1
 141 376 l 2
 125 376 118 381 118 393 c 0
 118 408 130 417 150 417 c 2
 309 417 l 1
597 376 m 1
 457 376 l 2
 440 376 433 381 433 392 c 0
 433 408 445 417 466 417 c 2
 647 417 l 1
 552 -28 l 1
 533 -121 455 -186 364 -186 c 2
 235 -186 l 2
 219 -186 212 -181 212 -170 c 0
 212 -154 224 -145 244 -145 c 2
 372 -145 l 2
 438 -145 497 -96 511 -28 c 0
 597 376 l 1
647 624 m 1
 625 520 l 1
 566 520 l 1
 588 624 l 1
 647 624 l 1
EndSplineSet
Validated: 3073
EndChar

StartChar: Lslash
Encoding: 321 321 256
Width: 600
Flags: HMW
LayerCount: 2
Fore
SplineSet
337 522 m 1
 292 310 l 1
 443 390 l 2
 448 392 458 395 462 395 c 0
 471 395 478 388 478 379 c 0
 478 368 468 361 456 355 c 0
 282 263 l 1
 235 41 l 1
 509 41 l 1
 543 202 l 2
 547 220 556 229 570 229 c 0
 579 229 586 222 586 214 c 0
 586 212 585 206 584 202 c 2
 541 0 l 1
 89 0 l 2
 73 0 66 5 66 16 c 0
 66 32 78 41 98 41 c 2
 194 41 l 1
 238 246 l 1
 118 184 l 2
 111 181 104 178 100 178 c 0
 92 178 85 186 85 195 c 0
 85 205 90 212 105 219 c 2
 248 293 l 1
 296 522 l 1
 200 522 l 2
 184 522 177 527 177 538 c 0
 177 554 189 563 209 563 c 2
 442 563 l 2
 459 563 465 559 465 547 c 0
 465 532 453 522 434 522 c 2
 337 522 l 1
EndSplineSet
Validated: 3073
EndChar

StartChar: lslash
Encoding: 322 322 257
Width: 600
Flags: HMW
LayerCount: 2
Fore
SplineSet
447 604 m 1
 392 343 l 1
 490 394 l 2
 499 398 504 400 509 400 c 0
 517 400 524 393 524 384 c 0
 524 373 518 366 503 359 c 2
 382 297 l 1
 328 41 l 1
 490 41 l 2
 507 41 513 37 513 25 c 0
 513 10 500 0 481 0 c 2
 119 0 l 2
 103 0 96 5 96 16 c 0
 96 32 108 41 128 41 c 2
 287 41 l 1
 337 280 l 1
 240 230 l 2
 230 225 227 224 221 224 c 0
 213 224 206 231 206 240 c 0
 206 251 212 258 227 266 c 2
 347 327 l 1
 397 563 l 1
 281 563 l 2
 264 563 258 567 258 580 c 0
 258 595 270 604 290 604 c 2
 447 604 l 1
EndSplineSet
Validated: 3073
EndChar

StartChar: Eng
Encoding: 330 330 265
Width: 600
Flags: MW
LayerCount: 2
Fore
SplineSet
180 537 m 0
 180 554 193 563 212 563 c 2
 287 563 l 1
 272 494 l 1
 344 558 404 577 466 577 c 0
 538 577 597 523 597 404 c 0
 597 375 594 343 586 306 c 0
 555 159 498 -11 372 -11 c 0
 354 -11 292 -4 292 20 c 0
 292 33 304 43 314 43 c 0
 327 43 344 30 381 30 c 0
 465 30 512 150 544 299 c 0
 552 334 555 365 555 393 c 0
 555 488 513 536 453 536 c 0
 361 536 289 468 261 440 c 1
 176 41 l 1
 221 41 l 2
 237 41 244 36 244 26 c 0
 244 8 231 0 212 0 c 2
 81 0 l 2
 65 0 57 5 57 15 c 0
 57 32 70 41 90 41 c 2
 135 41 l 1
 237 522 l 1
 203 522 l 2
 188 522 180 527 180 537 c 0
EndSplineSet
Validated: 3073
Substitution2: "'locl' Localized Forms for Sami-1" Engsami
EndChar

StartChar: eng
Encoding: 331 331 266
Width: 600
Flags: HMW
LayerCount: 2
Fore
SplineSet
486 35 m 2
 461 -77 407 -115 340 -116 c 0
 325 -116 260 -110 260 -86 c 0
 260 -74 271 -62 283 -62 c 0
 296 -62 312 -75 350 -75 c 0
 394 -75 434 -27 448 41 c 2
 500 288 l 2
 502 295 502 298 502 308 c 0
 502 338 484 390 403 390 c 0
 339 390 309 373 230 294 c 1
 176 41 l 1
 221 41 l 2
 238 41 244 37 244 25 c 0
 244 10 232 0 212 0 c 2
 81 0 l 2
 64 0 57 5 57 16 c 0
 57 32 69 41 89 41 c 2
 135 41 l 1
 206 376 l 1
 172 376 l 2
 156 376 149 381 149 392 c 0
 149 408 161 417 181 417 c 2
 256 417 l 1
 241 348 l 1
 313 412 353 431 414 431 c 0
 472 431 545 407 545 311 c 0
 545 309 545 308 544 304 c 2
 486 35 l 2
EndSplineSet
Validated: 3073
EndChar

StartChar: OE
Encoding: 338 338 273
Width: 600
Flags: HMW
LayerCount: 2
Fore
SplineSet
264 0 m 2
 102 0 62 118 62 203 c 0
 62 400 204 563 376 563 c 2
 690 563 l 1
 657 409 l 2
 653 391 645 382 631 382 c 0
 622 382 615 389 615 397 c 0
 615 443 633 479 640 522 c 1
 449 522 l 1
 405 313 l 1
 483 313 l 1
 488 334 490 367 515 367 c 0
 525 367 532 360 532 352 c 0
 532 348 531 344 530 340 c 0
 509 244 l 2
 505 226 497 217 483 217 c 0
 474 217 467 224 467 232 c 0
 467 247 471 259 474 272 c 1
 396 272 l 1
 347 41 l 1
 558 41 l 1
 578 133 l 1
 581 152 589 160 604 160 c 0
 613 160 620 153 620 144 c 0
 620 91 598 50 590 0 c 1
 264 0 l 2
104 210 m 0
 104 142 130 41 274 41 c 2
 306 41 l 1
 408 522 l 1
 376 522 l 2
 218 522 104 383 104 210 c 0
EndSplineSet
Validated: 3073
EndChar

StartChar: oe
Encoding: 339 339 274
Width: 600
Flags: HMW
LayerCount: 2
Fore
SplineSet
521 431 m 0
 563 431 630 411 630 295 c 0
 630 262 627 240 619 199 c 1
 362 199 l 1
 360 183 359 171 359 163 c 0
 359 81 397 25 451 25 c 0
 507 25 555 87 576 87 c 0
 585 87 592 80 592 70 c 0
 592 51 501 -16 440 -16 c 0
 381 -16 335 29 321 103 c 1
 275 27 218 -16 162 -16 c 0
 97 -16 50 52 50 145 c 0
 50 287 154 431 258 431 c 0
 311 431 354 386 367 317 c 1
 404 379 456 431 521 431 c 0
371 240 m 1
 586 240 l 1
 588 262 589 274 589 287 c 0
 589 354 562 390 512 390 c 0
 452 390 405 340 371 240 c 1
330 267 m 0
 330 341 293 390 246 390 c 0
 188 390 91 285 91 150 c 0
 91 81 126 25 170 25 c 0
 248 25 330 149 330 267 c 0
EndSplineSet
Validated: 3073
EndChar

StartChar: Scedilla
Encoding: 350 350 285
Width: 600
Flags: HMW
LayerCount: 2
Fore
SplineSet
246 399 m 0
 246 261 545 360 545 185 c 0
 545 78 442 -10 309 -16 c 1
 302 -50 l 1
 341 -54 357 -70 357 -102 c 0
 357 -146 316 -179 262 -179 c 0
 246 -179 184 -170 184 -141 c 0
 184 -128 193 -120 207 -120 c 0
 220 -120 241 -138 272 -138 c 0
 297 -138 317 -125 317 -107 c 0
 317 -91 306 -84 282 -84 c 2
 258 -84 l 1
 273 -15 l 1
 214 -8 168 17 145 56 c 1
 140 34 138 0 112 0 c 0
 103 0 96 7 96 15 c 0
 96 17 97 23 98 27 c 2
 121 139 l 1
 125 157 135 167 148 167 c 0
 154 167 165 158 165 150 c 1
 160 109 l 17
 190 60 210 24 307 24 c 1
 410 24 500 95 500 177 c 0
 500 320 201 220 201 392 c 0
 201 489 305 577 420 577 c 0
 479 577 523 558 555 517 c 1
 559 538 563 563 586 563 c 0
 595 563 602 556 602 548 c 0
 602 545 602 543 600 536 c 0
 578 433 l 1
 575 416 565 405 553 405 c 0
 547 405 542 408 536 417 c 1
 536 432 538 445 539 459 c 1
 539 460 517 536 416 536 c 0
 326 536 246 471 246 399 c 0
EndSplineSet
Validated: 3073
EndChar

StartChar: scedilla
Encoding: 351 351 286
Width: 600
Flags: HMW
LayerCount: 2
Fore
SplineSet
502 335 m 2
 502 352 457 391 382 391 c 0
 305 391 235 351 235 307 c 0
 235 218 525 280 525 138 c 0
 525 55 432 -11 309 -16 c 1
 302 -47 l 1
 338 -48 356 -63 356 -93 c 0
 356 -138 315 -173 262 -173 c 0
 225 -173 181 -154 181 -138 c 0
 181 -125 192 -114 205 -114 c 0
 218 -114 238 -135 268 -135 c 0
 297 -135 319 -121 319 -101 c 0
 319 -88 305 -81 278 -81 c 2
 257 -81 l 1
 271 -15 l 1
 214 -8 178 8 153 38 c 1
 148 20 144 0 124 0 c 0
 116 0 108 7 108 15 c 0
 108 17 109 24 110 27 c 0
 127 110 l 1
 131 128 140 137 154 137 c 0
 163 137 170 130 170 122 c 0
 170 115 167 103 167 99 c 0
 167 56 225 25 304 25 c 0
 401 25 478 72 478 130 c 0
 478 178 423 198 344 207 c 0
 273 215 190 225 190 298 c 0
 190 372 277 431 386 431 c 0
 444 431 486 416 515 385 c 1
 519 406 529 417 542 417 c 0
 551 417 558 410 558 402 c 0
 558 399 557 394 556 389 c 2
 542 320 l 1
 538 302 528 292 515 292 c 0
 509 292 504 296 499 304 c 1
 502 335 l 2
EndSplineSet
Validated: 3073
EndChar

StartChar: uni0162
Encoding: 354 354 289
Width: 600
Flags: HM
LayerCount: 2
Fore
SplineSet
212 -113 m 0
 225 -113 245 -134 275 -134 c 0
 304 -134 326 -120 326 -100 c 0
 326 -87 312 -80 285 -80 c 2
 264 -80 l 1
 281 0 l 1
 175 0 l 2
 159 0 152 5 152 17 c 0
 152 32 164 41 184 41 c 2
 289 41 l 1
 391 522 l 1
 224 522 l 1
 209 449 l 2
 205 431 196 422 182 422 c 0
 173 422 166 429 166 437 c 0
 166 484 185 519 192 563 c 1
 648 563 l 1
 624 449 l 2
 620 431 611 421 598 421 c 0
 592 421 583 428 582 435 c 0
 582 436 582 447 583 449 c 1
 598 522 l 1
 432 522 l 1
 330 41 l 1
 435 41 l 2
 451 41 458 36 458 25 c 0
 458 10 445 0 426 0 c 2
 319 0 l 1
 309 -46 l 1
 345 -47 363 -62 363 -92 c 0
 363 -137 322 -172 269 -172 c 0
 232 -172 188 -153 188 -137 c 0
 188 -124 199 -113 212 -113 c 0
EndSplineSet
Validated: 3073
EndChar

StartChar: Tbar
Encoding: 358 358 293
Width: 600
Flags: HMW
LayerCount: 2
Fore
SplineSet
395 349 m 1
 490 349 l 2
 506 349 513 344 513 333 c 0
 513 318 501 309 481 309 c 2
 387 309 l 1
 330 41 l 1
 435 41 l 2
 451 41 458 36 458 25 c 0
 458 10 445 0 426 0 c 2
 175 0 l 2
 159 0 152 5 152 17 c 0
 152 32 164 41 184 41 c 2
 289 41 l 1
 346 309 l 1
 245 309 l 2
 229 309 222 314 222 325 c 0
 222 340 234 349 254 349 c 2
 354 349 l 1
 391 522 l 1
 224 522 l 1
 209 449 l 1
 205 431 196 422 182 422 c 0
 173 422 166 429 166 437 c 0
 166 484 185 519 192 563 c 1
 648 563 l 1
 624 449 l 2
 620 431 611 421 598 421 c 0
 592 421 583 428 582 435 c 0
 582 436 582 447 583 449 c 1
 598 522 l 1
 432 522 l 1
 395 349 l 1
EndSplineSet
Validated: 3073
EndChar

StartChar: tbar
Encoding: 359 359 294
Width: 600
Flags: HMW
LayerCount: 2
Fore
SplineSet
511 54 m 0
 511 12 346 -16 296 -16 c 0
 217 -16 165 22 165 79 c 0
 165 89 166 97 168 107 c 2
 200 257 l 1
 132 257 l 2
 111 257 102 262 102 273 c 0
 102 288 118 297 144 297 c 2
 208 297 l 1
 225 376 l 1
 151 376 l 2
 134 376 127 381 127 392 c 0
 127 408 139 417 159 417 c 2
 234 417 l 1
 259 536 l 2
 263 554 272 563 285 563 c 0
 295 563 302 556 302 548 c 0
 302 545 302 544 300 536 c 0
 275 417 l 1
 495 417 l 2
 512 417 518 413 518 401 c 0
 518 386 505 376 486 376 c 2
 266 376 l 1
 249 297 l 1
 452 297 l 2
 473 297 482 292 482 281 c 0
 482 266 466 257 440 257 c 2
 241 257 l 1
 209 109 l 1
 208 102 207 95 207 91 c 0
 207 51 245 25 303 25 c 0
 359 25 435 42 478 65 c 0
 488 70 491 71 496 71 c 0
 504 71 511 64 511 54 c 0
EndSplineSet
Validated: 3073
EndChar

StartChar: Uogonek
Encoding: 370 370 305
Width: 600
Flags: HMW
LayerCount: 2
Fore
SplineSet
337 -125 m 0
 389 -125 379 -104 402 -104 c 0
 407 -104 413 -110 413 -116 c 0
 413 -135 370 -155 330 -155 c 0
 287 -155 263 -138 263 -108 c 0
 263 -69 288 -41 349 -10 c 1
 327 -14 314 -16 297 -16 c 0
 201 -16 136 47 136 140 c 0
 136 154 138 170 141 185 c 2
 212 522 l 1
 179 522 l 2
 162 522 155 527 155 538 c 0
 155 554 167 563 187 563 c 2
 337 563 l 2
 353 563 359 559 359 547 c 0
 359 532 347 522 328 522 c 2
 253 522 l 1
 182 185 l 1
 179 173 178 161 178 151 c 0
 178 76 230 25 305 25 c 0
 394 25 479 95 498 185 c 2
 569 522 l 1
 495 522 l 2
 478 522 472 527 472 539 c 0
 472 554 484 563 504 563 c 2
 653 563 l 2
 670 563 676 559 676 547 c 0
 676 532 664 522 644 522 c 2
 610 522 l 1
 539 185 l 1
 521 104 476 52 355 -32 c 0
 319 -58 305 -76 305 -100 c 0
 305 -116 316 -125 337 -125 c 0
EndSplineSet
Validated: 3073
EndChar

StartChar: uogonek
Encoding: 371 371 306
Width: 600
Flags: HMW
LayerCount: 2
Fore
SplineSet
378 -109 m 0
 378 -44 449 -13 477 0 c 1
 439 0 l 1
 453 66 l 1
 387 11 320 -16 253 -16 c 0
 187 -16 145 22 145 82 c 0
 145 93 147 104 149 115 c 0
 204 376 l 1
 150 376 l 2
 134 376 127 381 127 392 c 0
 127 408 139 417 159 417 c 2
 254 417 l 1
 190 115 l 1
 188 109 188 105 188 97 c 0
 188 55 218 25 261 25 c 0
 329 25 395 54 464 115 c 1
 519 376 l 1
 445 376 l 2
 428 376 421 381 421 392 c 0
 421 408 433 417 454 417 c 2
 569 417 l 1
 489 41 l 1
 523 41 l 2
 540 41 546 37 546 25 c 0
 546 -8 418 -27 418 -99 c 0
 418 -115 431 -123 456 -123 c 0
 494 -123 505 -104 517 -104 c 0
 523 -104 528 -109 528 -116 c 0
 528 -134 484 -155 443 -155 c 0
 402 -155 378 -138 378 -109 c 0
EndSplineSet
Validated: 3073
EndChar

StartChar: longs
Encoding: 383 383 318
Width: 600
Flags: HMW
LayerCount: 2
Fore
SplineSet
637 551 m 0
 626 551 564 563 502 563 c 0
 436 563 384 529 373 478 c 0
 280 41 l 1
 457 41 l 2
 474 41 481 37 481 25 c 0
 481 10 468 0 449 0 c 2
 132 0 l 2
 116 0 109 5 109 17 c 0
 109 32 121 41 141 41 c 2
 239 41 l 1
 310 376 l 1
 222 376 l 2
 206 376 199 381 199 393 c 0
 199 408 211 417 231 417 c 2
 319 417 l 1
 332 478 l 1
 347 551 423 604 512 604 c 0
 546 604 663 600 663 576 c 0
 663 562 651 551 637 551 c 0
EndSplineSet
Validated: 3073
EndChar

StartChar: uni0180
Encoding: 384 384 319
Width: 600
Flags: HMW
LayerCount: 2
Fore
SplineSet
265 25 m 0
 359 25 485 114 485 246 c 0
 485 330 428 390 342 390 c 0
 212 390 122 266 122 168 c 0
 122 86 179 25 265 25 c 0
65 494 m 0
 65 505 72 520 97 520 c 2
 151 520 l 1
 160 563 l 1
 106 563 l 2
 91 563 83 568 83 578 c 0
 83 589 88 604 115 604 c 2
 210 604 l 1
 192 520 l 1
 330 520 l 1
 346 520 354 515 354 505 c 0
 354 495 347 479 321 479 c 2
 183 479 l 1
 151 328 l 1
 216 399 279 431 353 431 c 0
 458 431 528 359 528 259 c 0
 528 142 420 -16 258 -16 c 0
 185 -16 132 18 100 88 c 1
 82 0 l 1
 -13 0 l 2
 -29 0 -37 5 -37 16 c 0
 -37 26 -30 41 -5 41 c 2
 49 41 l 1
 142 479 l 1
 88 479 l 1
 73 479 65 484 65 494 c 0
EndSplineSet
Validated: 3073
EndChar

StartChar: uni0181
Encoding: 385 385 320
Width: 600
Flags: HMW
LayerCount: 2
Fore
SplineSet
319 313 m 2
 462 313 489 413 489 438 c 0
 489 487 445 522 380 522 c 2
 216 522 l 1
 172 313 l 1
 319 313 l 2
475 171 m 0
 475 248 404 272 312 272 c 2
 163 272 l 1
 114 41 l 1
 322 41 l 2
 413 41 475 115 475 171 c 0
12 450 m 0
 12 518 80 563 130 563 c 2
 388 563 l 1
 474 563 531 514 531 445 c 0
 531 357 451 314 418 298 c 1
 483 272 517 234 517 182 c 0
 517 105 436 0 316 0 c 2
 10 0 l 2
 -5 0 -13 5 -13 15 c 0
 -13 26 -8 41 19 41 c 2
 73 41 l 1
 175 522 l 1
 121 522 l 2
 97 522 53 494 53 457 c 0
 53 432 74 415 96 415 c 0
 107 415 113 408 113 398 c 0
 113 379 94 374 88 374 c 0
 46 374 12 405 12 450 c 0
EndSplineSet
Validated: 3073
EndChar

StartChar: uni0183
Encoding: 387 387 322
Width: 600
Flags: HMW
LayerCount: 2
Fore
SplineSet
265 25 m 0
 359 25 485 114 485 246 c 0
 485 330 428 390 342 390 c 0
 212 390 122 266 122 168 c 0
 122 86 179 25 265 25 c 0
562 588 m 0
 562 578 556 563 530 563 c 2
 201 563 l 1
 151 328 l 1
 216 399 279 431 353 431 c 0
 458 431 528 359 528 259 c 0
 528 142 420 -16 258 -16 c 0
 185 -16 132 18 100 88 c 1
 82 0 l 1
 -13 0 l 2
 -29 0 -37 5 -37 16 c 0
 -37 26 -30 41 -5 41 c 2
 49 41 l 1
 160 563 l 1
 106 563 l 1
 91 563 83 568 83 578 c 0
 83 589 88 604 115 604 c 2
 539 604 l 1
 555 604 562 598 562 588 c 0
EndSplineSet
Validated: 3073
EndChar

StartChar: uni0184
Encoding: 388 388 323
Width: 600
Flags: HMW
LayerCount: 2
Fore
SplineSet
480 171 m 0
 480 247 412 272 317 272 c 2
 168 272 l 1
 119 41 l 1
 327 41 l 2
 418 41 480 115 480 171 c 0
-8 15 m 0
 -8 26 -1 41 24 41 c 2
 78 41 l 1
 164 448 l 1
 107 413 l 2
 107 413 95 407 89 407 c 0
 79 407 75 412 75 419 c 0
 75 430 83 443 95 449 c 2
 175 497 l 1
 189 563 l 1
 193 581 202 590 215 590 c 0
 226 590 231 585 231 574 c 0
 231 571 231 567 230 563 c 0
 222 526 l 1
 307 577 l 2
 307 577 320 583 325 583 c 0
 336 583 340 578 340 571 c 0
 340 561 332 548 320 542 c 2
 212 476 l 1
 177 313 l 1
 324 313 l 2
 481 313 522 245 522 184 c 0
 522 75 410 0 321 0 c 2
 15 0 l 2
 0 0 -8 5 -8 15 c 0
EndSplineSet
Validated: 3073
EndChar

StartChar: uni0185
Encoding: 389 389 324
Width: 600
Flags: HMW
LayerCount: 2
Fore
SplineSet
344 390 m 0
 212 390 123 265 123 169 c 0
 123 87 180 25 266 25 c 0
 360 25 487 114 487 246 c 0
 487 330 430 390 344 390 c 0
-36 16 m 0
 -36 26 -29 41 -3 41 c 2
 51 41 l 1
 137 446 l 1
 85 415 l 2
 85 415 73 409 67 409 c 0
 57 409 53 414 53 421 c 0
 53 432 61 445 73 451 c 2
 147 496 l 1
 162 563 l 1
 165 581 174 590 187 590 c 0
 198 590 204 584 204 572 c 0
 204 569 204 566 203 563 c 2
 194 524 l 1
 285 579 l 2
 285 579 298 585 303 585 c 0
 314 585 318 580 318 573 c 0
 318 563 310 550 298 544 c 2
 184 475 l 1
 153 328 l 1
 218 399 281 431 355 431 c 0
 461 431 530 358 530 258 c 0
 530 140 420 -16 260 -16 c 0
 187 -16 134 18 102 88 c 1
 83 0 l 1
 -12 0 l 2
 -28 0 -36 5 -36 16 c 0
EndSplineSet
Validated: 3073
EndChar

StartChar: uni0186
Encoding: 390 390 325
Width: 600
Flags: HMW
LayerCount: 2
Fore
SplineSet
246 446 m 2
 233 408 l 1
 224 399 217 396 211 396 c 0
 201 396 196 402 196 413 c 0
 196 416 196 420 197 424 c 1
 221 536 l 2
 222 541 223 546 224 548 c 0
 228 557 237 563 247 563 c 0
 259 563 262 556 262 546 c 0
 262 534 258 519 256 507 c 1
 312 552 377 576 443 576 c 0
 571 576 637 476 637 374 c 0
 637 357 636 341 632 325 c 1
 614 242 l 2
 611 227 606 212 599 196 c 0
 548 76 418 -16 300 -16 c 0
 230 -16 171 14 130 67 c 0
 118 84 113 94 113 102 c 0
 113 105 114 108 115 111 c 0
 119 119 127 125 137 125 c 0
 145 125 148 123 153 115 c 0
 194 51 240 25 309 25 c 0
 410 25 517 101 560 203 c 0
 566 217 571 233 574 248 c 2
 590 319 l 2
 593 336 595 352 595 367 c 0
 595 463 530 536 435 536 c 0
 332 536 252 462 246 446 c 2
EndSplineSet
Validated: 3073
EndChar

StartChar: uni0187
Encoding: 391 391 326
Width: 600
Flags: HMW
LayerCount: 2
Fore
SplineSet
262 25 m 0
 390 25 443 125 475 125 c 0
 487 125 492 121 492 114 c 0
 492 102 475 81 442 55 c 0
 383 9 317 -16 253 -16 c 0
 133 -16 44 79 44 194 c 0
 44 210 46 226 49 242 c 2
 67 325 l 2
 92 445 214 576 362 576 c 0
 428 576 483 552 520 507 c 1
 526 536 l 2
 536 582 583 632 640 632 c 0
 689 632 718 598 718 557 c 0
 718 524 703 518 692 518 c 0
 678 518 676 527 676 537 c 0
 676 540 676 544 676 547 c 0
 676 570 659 592 630 592 c 0
 604 591 573 560 567 536 c 2
 544 424 l 2
 540 406 531 397 517 397 c 0
 507 397 502 403 502 415 c 0
 502 421 503 423 503 432 c 0
 503 488 437 535 353 535 c 0
 242 535 132 438 106 319 c 2
 91 248 l 2
 88 233 86 218 86 204 c 0
 86 104 159 25 262 25 c 0
EndSplineSet
Validated: 3073
EndChar

StartChar: uni0188
Encoding: 392 392 327
Width: 600
Flags: HMW
LayerCount: 2
Fore
SplineSet
72 152 m 0
 72 219 131 431 356 431 c 0
 417 431 467 412 500 376 c 1
 503 389 l 2
 513 435 559 485 616 485 c 0
 664 485 694 451 694 410 c 0
 694 377 678 371 668 371 c 0
 654 371 652 380 652 390 c 0
 652 394 652 397 652 401 c 0
 652 424 636 445 607 445 c 0
 581 444 549 413 544 389 c 2
 530 323 l 1
 525 304 523 271 499 271 c 0
 488 271 483 276 483 288 c 0
 483 294 484 296 484 303 c 0
 484 352 424 390 344 390 c 0
 155 390 114 211 114 162 c 0
 114 80 172 25 266 25 c 0
 339 25 407 49 469 97 c 0
 478 105 482 107 489 107 c 0
 498 107 504 100 504 91 c 0
 504 88 l 0
 501 76 482 58 450 39 c 0
 392 4 322 -16 256 -16 c 0
 143 -16 72 52 72 152 c 0
EndSplineSet
Validated: 3073
EndChar

StartChar: uni018A
Encoding: 394 394 329
Width: 600
Flags: HMW
LayerCount: 2
Fore
SplineSet
491 358 m 0
 491 421 461 522 339 522 c 2
 196 522 l 1
 94 41 l 1
 244 41 l 2
 340 41 449 139 471 245 c 2
 487 318 l 2
 490 331 491 344 491 358 c 0
-24 449 m 0
 -24 517 43 563 94 563 c 2
 350 563 l 2
 460 563 532 481 532 370 c 0
 532 350 530 331 526 310 c 2
 514 254 l 2
 484 112 359 0 230 0 c 2
 10 0 l 2
 -5 0 -13 5 -13 15 c 0
 -13 26 -8 41 19 41 c 2
 53 41 l 1
 155 522 l 1
 85 522 l 2
 62 522 17 495 17 459 c 0
 17 433 37 415 60 415 c 0
 70 415 76 408 76 398 c 0
 76 397 76 395 76 394 c 0
 74 383 63 374 52 374 c 0
 9 374 -24 404 -24 449 c 0
EndSplineSet
Validated: 3073
EndChar

StartChar: uni018B
Encoding: 395 395 330
Width: 600
Flags: HMW
LayerCount: 2
Fore
SplineSet
595 538 m 0
 590 527 580 522 564 522 c 2
 510 522 l 1
 408 41 l 1
 462 41 l 2
 480 41 486 33 486 25 c 0
 486 22 485 19 484 16 c 0
 479 5 469 0 453 0 c 2
 147 0 l 2
 57 0 12 61 12 126 c 0
 12 146 17 166 25 185 c 0
 51 246 122 313 278 313 c 2
 425 313 l 1
 469 522 l 1
 155 522 l 1
 134 424 l 2
 134 420 132 416 131 413 c 0
 126 402 119 397 109 397 c 0
 98 397 92 403 92 414 c 0
 92 417 92 420 93 424 c 1
 123 563 l 1
 573 563 l 2
 591 563 597 555 597 547 c 0
 597 544 596 541 595 538 c 0
62 172 m 0
 57 160 54 147 54 134 c 0
 54 87 88 41 159 41 c 2
 367 41 l 1
 416 272 l 1
 267 272 l 2
 176 272 94 248 62 172 c 0
EndSplineSet
Validated: 3073
EndChar

StartChar: uni018C
Encoding: 396 396 331
Width: 600
Flags: HMW
LayerCount: 2
Fore
SplineSet
184 25 m 0
 315 25 405 150 405 247 c 0
 405 329 347 390 261 390 c 0
 128 390 40 262 40 168 c 0
 40 87 99 25 184 25 c 0
-1 161 m 0
 -1 283 109 431 268 431 c 0
 342 431 391 399 426 328 c 1
 476 563 l 1
 147 563 l 1
 132 563 124 568 124 578 c 0
 124 589 129 604 156 604 c 2
 580 604 l 1
 596 604 603 598 603 588 c 0
 603 578 597 563 571 563 c 2
 517 563 l 1
 406 41 l 1
 460 41 l 2
 476 41 484 36 484 26 c 0
 484 15 477 0 452 0 c 2
 357 0 l 1
 375 88 l 1
 313 18 246 -16 173 -16 c 0
 69 -16 -1 60 -1 161 c 0
EndSplineSet
Validated: 3073
EndChar

StartChar: uni018D
Encoding: 397 397 332
Width: 600
Flags: HMW
LayerCount: 2
Fore
SplineSet
427 -63 m 0
 427 -132 370 -188 278 -188 c 0
 182 -188 120 -157 72 -145 c 1
 67 -167 65 -200 39 -200 c 0
 28 -200 24 -194 24 -184 c 0
 24 -180 24 -177 25 -173 c 2
 41 -95 l 2
 45 -78 53 -66 67 -66 c 0
 80 -66 84 -73 84 -82 c 0
 84 -91 81 -100 79 -109 c 1
 104 -125 225 -156 282 -156 c 0
 336 -156 379 -133 390 -82 c 1
 390 -27 332 -8 263 -8 c 0
 145 -8 83 86 83 163 c 0
 83 299 197 451 363 451 c 0
 472 451 545 371 545 269 c 0
 545 116 416 37 359 13 c 1
 393 -2 427 -24 427 -63 c 0
504 264 m 0
 504 343 444 410 354 410 c 0
 173 410 126 229 126 179 c 0
 126 101 184 35 275 35 c 0
 407 35 504 157 504 264 c 0
EndSplineSet
Validated: 3073
EndChar

StartChar: uni018E
Encoding: 398 398 333
Width: 600
Flags: HMW
LayerCount: 2
Fore
SplineSet
439 272 m 1
 294 272 l 1
 289 253 289 236 280 215 c 0
 277 207 267 200 258 200 c 0
 247 200 242 204 242 215 c 0
 242 218 242 222 244 227 c 2
 271 358 l 2
 272 362 273 368 274 370 c 0
 278 378 288 385 298 385 c 0
 308 385 313 379 313 368 c 0
 313 365 313 362 312 358 c 2
 302 313 l 1
 447 313 l 1
 492 522 l 1
 199 522 l 1
 189 484 192 453 174 412 c 0
 171 404 161 397 152 397 c 0
 141 397 136 402 136 413 c 0
 136 416 136 420 137 424 c 1
 166 563 l 1
 595 563 l 2
 611 563 619 558 619 548 c 0
 619 545 619 542 617 539 c 0
 612 527 603 522 587 522 c 2
 533 522 l 1
 430 41 l 1
 484 41 l 2
 500 41 508 36 508 26 c 0
 508 23 508 20 506 17 c 0
 501 5 492 0 476 0 c 2
 26 0 l 1
 60 160 l 2
 61 165 62 169 63 172 c 0
 67 180 76 187 85 187 c 0
 97 187 102 181 102 170 c 0
 102 167 102 164 101 160 c 2
 75 41 l 1
 389 41 l 1
 439 272 l 1
EndSplineSet
Validated: 3073
EndChar

StartChar: uni018F
Encoding: 399 399 334
Width: 600
Flags: HMW
LayerCount: 2
Fore
SplineSet
487 253 m 1
 85 252 l 9
 83 241 l 2
 79 224 78 208 78 192 c 0
 78 97 143 25 238 25 c 0
 351 25 465 124 487 253 c 1
229 -16 m 0
 113 -16 35 68 35 188 c 0
 35 204 37 220 40 235 c 2
 53 293 l 17
 496 293 l 1
 500 312 l 2
 503 327 505 342 505 356 c 0
 505 456 432 535 329 535 c 0
 201 535 148 435 116 435 c 0
 104 435 99 439 99 446 c 0
 99 458 116 479 149 505 c 0
 208 551 274 576 338 576 c 0
 458 576 547 481 547 366 c 0
 547 350 545 334 542 318 c 2
 524 235 l 2
 499 115 377 -16 229 -16 c 0
EndSplineSet
Validated: 3073
EndChar

StartChar: uni0190
Encoding: 400 400 335
Width: 600
Flags: HMW
LayerCount: 2
Fore
SplineSet
186 399 m 0
 186 344 242 311 317 311 c 2
 365 311 l 2
 380 311 388 306 388 296 c 0
 388 286 381 270 356 270 c 2
 295 270 l 2
 182 270 107 207 107 133 c 0
 107 78 149 25 245 25 c 0
 336 25 421 76 438 142 c 0
 442 158 450 166 463 166 c 0
 474 166 479 161 479 150 c 0
 479 147 479 143 478 139 c 2
 454 27 l 2
 450 9 441 0 428 0 c 0
 415 0 411 8 411 18 c 0
 411 30 417 46 419 56 c 1
 368 9 304 -16 235 -16 c 0
 129 -16 61 39 61 118 c 0
 61 186 104 262 204 291 c 1
 206 298 l 1
 167 313 141 347 141 393 c 0
 141 434 188 576 361 576 c 0
 420 576 461 558 494 517 c 1
 498 538 502 563 525 563 c 0
 535 563 540 558 540 547 c 0
 540 544 540 540 539 536 c 2
 518 433 l 2
 514 415 505 406 492 406 c 0
 481 406 475 412 475 423 c 0
 475 429 477 431 477 443 c 0
 477 497 427 535 355 535 c 0
 220 535 186 431 186 399 c 0
EndSplineSet
Validated: 3073
EndChar

StartChar: uni0191
Encoding: 401 401 336
Width: 600
Flags: HMW
LayerCount: 2
Fore
SplineSet
-32 -39 m 0
 -19 -39 -3 -52 35 -52 c 0
 79 -52 118 -4 133 64 c 2
 230 522 l 1
 176 522 l 2
 160 522 152 527 152 538 c 0
 152 548 159 563 185 563 c 2
 635 563 l 1
 605 424 l 2
 601 406 592 397 578 397 c 0
 568 397 563 402 563 413 c 0
 563 416 563 420 564 424 c 2
 585 522 l 1
 271 522 l 1
 227 313 l 1
 372 313 l 1
 381 358 l 2
 385 376 394 385 407 385 c 0
 418 385 423 380 423 369 c 0
 423 366 423 362 422 358 c 2
 394 227 l 2
 390 209 382 200 368 200 c 0
 358 200 352 206 352 217 c 0
 352 220 352 223 353 227 c 2
 363 272 l 1
 218 272 l 1
 218 272 170 46 169 41 c 0
 145 -35 92 -92 25 -93 c 0
 10 -93 -55 -87 -55 -63 c 0
 -55 -51 -44 -39 -32 -39 c 0
EndSplineSet
Validated: 3073
EndChar

StartChar: florin
Encoding: 402 402 337
Width: 600
Flags: HMW
LayerCount: 2
Fore
SplineSet
620 566 m 0
 607 566 591 577 559 577 c 0
 490 577 433 531 419 462 c 0
 401 375 l 1
 497 375 l 2
 514 375 520 371 520 359 c 0
 520 344 508 334 488 334 c 2
 392 334 l 1
 333 58 l 2
 315 -26 236 -93 154 -93 c 0
 112 -93 74 -79 74 -63 c 0
 74 -51 85 -39 97 -39 c 0
 109 -39 128 -52 163 -52 c 0
 225 -52 280 -4 294 64 c 0
 351 334 l 1
 255 334 l 2
 238 334 232 339 232 351 c 0
 232 366 244 375 263 375 c 2
 360 375 l 1
 378 462 l 1
 397 549 478 618 562 618 c 0
 578 618 643 613 643 591 c 0
 643 578 631 566 620 566 c 0
EndSplineSet
Validated: 3073
EndChar

StartChar: uni0193
Encoding: 403 403 338
Width: 600
Flags: HMW
LayerCount: 2
Fore
SplineSet
546 235 m 0
 546 224 539 209 513 209 c 2
 499 209 l 1
 462 36 l 1
 396 2 326 -16 264 -16 c 0
 124 -16 42 59 42 179 c 0
 42 200 44 221 49 244 c 2
 65 318 l 2
 92 445 213 576 370 576 c 0
 436 576 487 558 524 522 c 1
 538 586 580 632 641 632 c 0
 690 632 719 598 719 557 c 0
 719 524 704 518 693 518 c 0
 679 518 677 527 677 537 c 0
 677 540 677 544 677 547 c 0
 677 570 660 592 631 592 c 0
 605 591 574 560 568 536 c 2
 554 470 l 1
 554 467 l 2
 549 445 l 2
 545 427 536 418 523 418 c 0
 513 418 508 423 508 434 c 0
 508 440 510 443 510 451 c 0
 510 498 448 535 363 535 c 0
 199 535 118 378 106 317 c 2
 90 244 l 2
 86 224 84 205 84 187 c 0
 84 85 153 25 276 25 c 0
 328 25 365 33 426 59 c 1
 458 209 l 1
 319 209 l 2
 303 209 295 214 295 225 c 0
 295 235 302 250 328 250 c 2
 522 250 l 2
 538 250 546 245 546 235 c 0
EndSplineSet
Validated: 3073
EndChar

StartChar: uni0194
Encoding: 404 404 339
Width: 600
Flags: HMW
LayerCount: 2
Fore
SplineSet
246 14 m 0
 311 14 327 99 327 123 c 0
 327 157 310 186 291 227 c 1
 230 156 201 139 201 69 c 0
 201 40 211 14 246 14 c 0
160 66 m 0
 160 156 218 203 276 261 c 1
 153 522 l 1
 129 522 l 2
 113 522 105 527 105 538 c 0
 105 548 112 563 138 563 c 2
 249 563 l 2
 264 563 272 558 272 548 c 0
 272 538 265 522 240 522 c 2
 202 522 l 1
 306 295 l 1
 503 522 l 1
 463 522 l 2
 447 522 438 527 438 538 c 0
 438 548 445 563 472 563 c 2
 582 563 l 2
 597 563 605 557 605 548 c 0
 605 532 591 522 573 522 c 2
 549 522 l 1
 322 262 l 1
 335 238 369 187 369 131 c 0
 369 99 336 -27 237 -27 c 16
 184 -27 160 15 160 66 c 0
EndSplineSet
Validated: 3073
EndChar

StartChar: uni0195
Encoding: 405 405 340
Width: 600
Flags: HMW
LayerCount: 2
Fore
SplineSet
384 -16 m 0
 320 -16 279 27 279 78 c 0
 279 97 283 115 283 115 c 1
 320 290 l 1
 323 305 327 320 327 334 c 0
 327 366 306 390 273 390 c 0
 267 390 259 390 250 390 c 0
 194 390 148 330 141 316 c 2
 129 296 l 1
 75 41 l 1
 120 41 l 2
 136 41 145 36 145 26 c 0
 145 16 138 0 112 0 c 2
 -20 0 l 2
 -35 0 -44 5 -44 16 c 0
 -44 26 -37 41 -12 41 c 2
 34 41 l 1
 145 563 l 1
 91 563 l 2
 76 563 68 568 68 578 c 0
 68 589 73 604 100 604 c 2
 195 604 l 1
 142 360 l 1
 173 405 202 431 261 431 c 0
 346 431 367 388 367 341 c 0
 367 326 365 309 361 291 c 0
 324 115 l 1
 323 108 322 102 322 96 c 0
 322 55 352 25 396 25 c 0
 463 25 495 85 502 118 c 2
 556 376 l 1
 482 376 l 2
 466 376 458 381 458 391 c 0
 458 401 463 417 491 417 c 2
 606 417 l 1
 543 116 l 2
 529 54 475 -16 384 -16 c 0
EndSplineSet
Validated: 3073
EndChar

StartChar: uni0196
Encoding: 406 406 341
Width: 600
Flags: HMW
LayerCount: 2
Fore
SplineSet
458 72 m 0
 458 54 392 -8 309 -8 c 0
 253 -8 224 28 224 82 c 0
 224 94 225 107 228 120 c 10
 313 523 l 1
 252 523 l 2
 238 523 229 529 229 540 c 0
 229 549 234 563 261 563 c 2
 363 563 l 1
 269 120 l 18
 266 107 265 96 265 86 c 0
 265 49 285 33 318 33 c 0
 392 33 420 88 441 88 c 0
 450 88 458 82 458 72 c 0
EndSplineSet
Validated: 3073
EndChar

StartChar: uni0197
Encoding: 407 407 342
Width: 600
Flags: HMW
LayerCount: 2
Fore
SplineSet
160 296 m 0
 160 306 167 321 192 321 c 2
 287 321 l 1
 330 522 l 1
 191 522 l 2
 176 522 168 527 168 537 c 0
 168 548 173 563 200 563 c 2
 519 563 l 2
 536 563 543 557 543 547 c 0
 543 537 537 522 510 522 c 2
 371 522 l 1
 328 321 l 1
 428 321 l 1
 444 321 452 316 452 306 c 0
 452 296 445 281 420 281 c 2
 320 281 l 1
 269 41 l 1
 408 41 l 2
 425 41 432 35 432 25 c 0
 432 15 426 0 399 0 c 2
 80 0 l 2
 65 0 57 5 57 15 c 0
 57 26 62 41 89 41 c 2
 228 41 l 1
 279 281 l 1
 184 281 l 1
 168 281 160 286 160 296 c 0
EndSplineSet
Validated: 3073
EndChar

StartChar: uni0198
Encoding: 408 408 343
Width: 600
Flags: HMW
LayerCount: 2
Fore
SplineSet
548 415 m 0
 582 415 615 451 615 478 c 0
 615 501 591 522 569 522 c 2
 553 522 l 1
 289 324 l 1
 378 284 404 233 438 41 c 1
 494 41 l 2
 510 41 517 35 517 25 c 0
 517 15 511 0 485 0 c 2
 398 0 l 1
 368 203 337 263 249 294 c 1
 152 221 l 1
 114 41 l 1
 189 41 l 2
 205 41 212 35 212 25 c 0
 212 15 206 0 180 0 c 2
 10 0 l 2
 -5 0 -13 5 -13 15 c 0
 -13 26 -8 41 19 41 c 2
 73 41 l 1
 175 522 l 1
 121 522 l 2
 106 522 98 527 98 537 c 0
 98 548 103 563 130 563 c 2
 300 563 l 2
 316 563 323 557 323 547 c 0
 323 537 317 522 291 522 c 2
 216 522 l 1
 163 273 l 1
 496 522 l 1
 451 522 l 2
 435 522 427 527 427 537 c 0
 427 548 432 563 460 563 c 2
 578 563 l 2
 618 563 656 535 656 489 c 0
 656 439 607 374 540 374 c 0
 530 374 524 381 524 390 c 0
 524 392 524 393 524 394 c 0
 526 406 537 415 548 415 c 0
EndSplineSet
Validated: 3073
EndChar

StartChar: uni0199
Encoding: 409 409 344
Width: 600
Flags: HMW
LayerCount: 2
Fore
SplineSet
1 15 m 0
 1 26 8 41 33 41 c 2
 87 41 l 1
 177 462 l 1
 195 549 276 618 361 618 c 0
 381 618 442 612 442 590 c 0
 442 578 430 566 418 566 c 0
 406 566 391 577 356 577 c 0
 288 577 233 530 218 462 c 0
 168 229 l 1
 372 376 l 1
 350 376 l 2
 335 376 327 381 327 391 c 0
 327 402 332 417 359 417 c 2
 489 417 l 2
 505 417 512 411 512 401 c 0
 512 391 506 376 480 376 c 2
 433 376 l 1
 248 245 l 1
 412 41 l 1
 457 41 l 2
 473 41 481 36 481 26 c 0
 481 16 474 0 448 0 c 2
 317 0 l 2
 302 0 294 5 294 15 c 0
 294 26 301 41 326 41 c 2
 354 41 l 1
 212 219 l 1
 158 180 l 1
 119 0 l 1
 24 0 l 2
 9 0 1 5 1 15 c 0
EndSplineSet
Validated: 3073
EndChar

StartChar: uni019A
Encoding: 410 410 345
Width: 600
Flags: HMW
LayerCount: 2
Fore
SplineSet
153 290 m 0
 153 299 159 314 185 314 c 2
 282 314 l 1
 334 563 l 1
 217 563 l 2
 202 563 194 568 194 578 c 0
 194 589 201 604 226 604 c 2
 384 604 l 1
 323 314 l 1
 421 314 l 1
 436 314 444 309 444 301 c 0
 444 289 431 274 412 274 c 2
 314 274 l 1
 265 41 l 1
 425 41 l 2
 441 41 449 36 449 26 c 0
 449 15 442 0 416 0 c 2
 55 0 l 2
 39 0 31 5 31 16 c 0
 31 26 38 41 64 41 c 2
 224 41 l 1
 273 274 l 1
 176 274 l 1
 160 274 153 280 153 290 c 0
EndSplineSet
Validated: 3073
EndChar

StartChar: uni019B
Encoding: 411 411 346
Width: 600
Flags: HMW
LayerCount: 2
Fore
SplineSet
268 614 m 2
 310 614 308 593 321 541 c 1
 403 590 l 2
 403 590 417 596 422 596 c 0
 432 596 436 591 436 584 c 0
 436 574 428 561 416 555 c 2
 331 503 l 1
 453 39 l 1
 458 39 463 39 467 39 c 0
 478 39 486 38 488 31 c 1
 489 18 l 1
 486 3 474 -2 457 -2 c 2
 347 -2 l 2
 335 -2 325 2 325 12 c 0
 325 27 336 39 355 39 c 2
 411 39 l 1
 321 379 l 1
 85 39 l 1
 138 39 l 2
 153 39 162 34 162 23 c 0
 162 13 157 -2 130 -2 c 2
 20 -2 l 2
 13 -2 8 -1 5 0 c 0
 0 0 -3 10 -3 16 c 0
 -3 21 2 39 28 39 c 2
 40 39 l 1
 308 424 l 1
 293 480 l 1
 204 426 l 2
 204 426 191 420 185 420 c 0
 175 420 171 425 171 433 c 0
 171 442 179 456 191 462 c 2
 283 518 l 1
 269 573 l 1
 175 573 l 2
 162 573 152 578 152 589 c 0
 152 600 158 614 183 614 c 2
 268 614 l 2
EndSplineSet
Validated: 3073
EndChar

StartChar: uni019C
Encoding: 412 412 347
Width: 600
Flags: HMW
LayerCount: 2
Fore
SplineSet
540 25 m 0
 540 15 533 0 508 0 c 2
 434 0 l 1
 445 52 l 1
 401 4 368 -14 326 -14 c 0
 283 -14 256 9 244 57 c 1
 194 7 157 -14 116 -14 c 0
 66 -14 31 23 31 71 c 0
 31 78 32 86 34 94 c 2
 125 522 l 1
 91 522 l 2
 75 522 67 527 67 537 c 0
 67 548 74 563 99 563 c 2
 173 563 l 1
 74 98 l 2
 73 93 72 88 72 83 c 0
 72 52 95 27 125 27 c 0
 161 27 196 51 247 109 c 1
 335 522 l 1
 301 522 l 2
 285 522 277 527 277 537 c 0
 277 548 284 563 309 563 c 2
 383 563 l 1
 285 101 l 2
 284 96 283 91 283 86 c 0
 283 53 305 27 334 27 c 0
 369 27 407 52 457 109 c 1
 545 522 l 1
 511 522 l 2
 495 522 487 527 487 537 c 0
 487 547 494 563 519 563 c 2
 628 563 l 2
 643 563 651 558 651 547 c 0
 651 537 644 522 619 522 c 2
 585 522 l 1
 482 41 l 1
 516 41 l 2
 532 41 540 36 540 25 c 0
EndSplineSet
Validated: 3073
EndChar

StartChar: uni019D
Encoding: 413 413 348
Width: 600
Flags: HMW
LayerCount: 2
Fore
SplineSet
662 548 m 0
 662 538 655 522 630 522 c 2
 596 522 l 1
 485 0 l 1
 433 0 l 1
 267 504 l 1
 169 41 l 0
 145 -35 92 -92 25 -93 c 0
 10 -93 -55 -87 -55 -63 c 0
 -55 -51 -44 -39 -32 -39 c 0
 -19 -39 -3 -52 35 -52 c 0
 79 -52 119 -4 133 64 c 0
 230 522 l 1
 176 522 l 2
 160 522 152 527 152 538 c 0
 152 548 159 563 185 563 c 2
 291 563 l 1
 457 59 l 1
 555 522 l 1
 481 522 l 2
 465 522 456 527 456 538 c 0
 456 548 463 563 490 563 c 2
 639 563 l 2
 654 563 662 558 662 548 c 0
EndSplineSet
Validated: 3073
EndChar

StartChar: uni019E
Encoding: 414 414 349
Width: 600
Flags: HMW
LayerCount: 2
Fore
SplineSet
122 392 m 0
 122 402 129 417 154 417 c 2
 229 417 l 1
 215 348 l 1
 286 412 326 431 388 431 c 0
 466 431 519 385 519 322 c 0
 519 313 518 304 516 295 c 2
 423 -143 l 1
 457 -143 l 2
 473 -143 481 -148 481 -158 c 0
 481 -169 474 -184 449 -184 c 2
 340 -184 l 2
 324 -184 316 -179 316 -168 c 0
 316 -158 323 -143 348 -143 c 2
 382 -143 l 1
 474 288 l 2
 475 295 476 301 476 308 c 0
 476 341 456 390 376 390 c 0
 302 390 260 351 203 294 c 1
 149 41 l 1
 194 41 l 2
 210 41 218 36 218 26 c 0
 218 15 211 0 186 0 c 2
 55 0 l 2
 39 0 30 5 30 16 c 0
 30 27 37 41 63 41 c 2
 108 41 l 1
 180 376 l 1
 146 376 l 2
 130 376 122 381 122 392 c 0
EndSplineSet
Validated: 3073
EndChar

StartChar: Ohorn
Encoding: 416 416 351
Width: 600
Flags: HMW
AnchorPoint: "above" 394 563 basechar 0
LayerCount: 2
Fore
SplineSet
305 25 m 4
 414 25 574 154 574 345 c 4
 574 455 511 535 414 535 c 4
 301 535 145 403 145 216 c 4
 145 106 209 25 305 25 c 4
666 636 m 4
 666 569 603 526 556 522 c 5
 594 483 616 424 616 354 c 4
 616 135 435 -16 297 -16 c 4
 180 -16 103 77 103 206 c 4
 103 363 232 576 423 576 c 4
 449 576 473 571 495 563 c 5
 557 563 l 6
 580 563 625 590 625 626 c 4
 625 652 605 670 582 670 c 4
 573 670 565 677 565 686 c 4
 565 688 566 689 566 691 c 4
 568 702 579 711 590 711 c 4
 633 711 666 681 666 636 c 4
EndSplineSet
Validated: 3073
LCarets2: 1 0 
Ligature2: "'ccmp' Glyph Composition in Latin for Viet horn" O horncmb
EndChar

StartChar: ohorn
Encoding: 417 417 352
Width: 600
Flags: HMW
LayerCount: 2
Fore
SplineSet
297 25 m 0
 402 25 527 116 527 246 c 0
 527 330 466 390 375 390 c 0
 243 390 145 272 145 169 c 0
 145 86 206 25 297 25 c 0
634 490 m 0
 634 423 572 379 522 376 c 1
 551 345 568 303 568 254 c 0
 568 100 419 -16 288 -16 c 0
 178 -16 103 59 103 160 c 0
 103 279 216 431 383 431 c 0
 412 431 438 426 461 417 c 1
 525 417 l 2
 550 417 593 444 593 480 c 0
 593 506 573 524 550 524 c 0
 540 524 534 531 534 541 c 0
 534 542 534 544 534 545 c 0
 537 556 548 565 559 565 c 0
 602 565 634 535 634 490 c 0
EndSplineSet
Validated: 3073
LCarets2: 1 0 
Ligature2: "'ccmp' Glyph Composition in Latin for Viet horn" o horncmb
EndChar

StartChar: uni01A2
Encoding: 418 418 353
Width: 600
Flags: HMW
LayerCount: 2
Fore
SplineSet
156 25 m 0
 344 25 393 293 393 372 c 0
 393 467 354 535 265 535 c 0
 76 535 27 269 27 190 c 0
 27 95 68 25 156 25 c 0
-15 181 m 0
 -15 270 43 576 273 576 c 0
 296 576 317 572 335 565 c 1
 370 609 424 638 494 638 c 0
 572 638 592 588 592 546 c 0
 592 538 592 529 590 522 c 0
 488 41 l 1
 509 41 l 2
 525 41 533 36 533 26 c 0
 533 15 526 0 500 0 c 2
 413 0 l 2
 397 0 389 5 389 16 c 0
 389 26 396 41 422 41 c 2
 447 41 l 1
 549 522 l 1
 550 527 551 532 551 538 c 0
 551 563 538 594 470 594 c 0
 427 594 402 584 367 546 c 1
 413 511 436 448 436 380 c 0
 436 298 378 -16 147 -16 c 0
 38 -16 -15 66 -15 181 c 0
EndSplineSet
Validated: 3073
EndChar

StartChar: uni01A3
Encoding: 419 419 354
Width: 600
Flags: HMW
LayerCount: 2
Fore
SplineSet
157 25 m 0
 263 25 336 160 336 262 c 0
 336 336 298 390 235 390 c 0
 131 390 57 252 57 151 c 0
 57 77 95 25 157 25 c 0
19 146 m 0
 19 265 112 431 244 431 c 0
 272 431 297 423 318 408 c 1
 365 452 413 468 475 468 c 0
 548 468 554 405 554 383 c 0
 554 376 l 1
 483 41 l 1
 529 41 l 2
 545 41 553 36 553 26 c 0
 553 16 546 0 520 0 c 2
 388 0 l 2
 373 0 365 5 365 15 c 0
 365 26 372 41 397 41 c 2
 443 41 l 1
 514 376 l 1
 514 376 515 380 515 385 c 0
 515 401 508 432 458 432 c 0
 411 432 380 418 342 386 c 1
 364 360 377 324 377 280 c 0
 377 263 375 244 371 225 c 10
 361 184 l 1
 339 74 238 -16 149 -16 c 0
 70 -16 19 53 19 146 c 0
EndSplineSet
Validated: 3073
EndChar

StartChar: uni01A4
Encoding: 420 420 355
Width: 600
Flags: HMW
LayerCount: 2
Fore
SplineSet
297 272 m 2
 408 272 485 355 485 420 c 0
 485 477 435 522 365 522 c 0
 216 522 l 1
 163 272 l 1
 297 272 l 2
-13 15 m 0
 -13 26 -8 41 19 41 c 2
 73 41 l 1
 175 522 l 1
 121 522 l 2
 98 522 53 495 53 459 c 0
 53 433 73 415 96 415 c 0
 106 415 112 408 112 398 c 0
 112 397 112 395 112 394 c 0
 110 383 99 374 88 374 c 0
 45 374 12 404 12 449 c 0
 12 517 79 563 130 563 c 2
 370 563 l 2
 464 563 527 507 527 430 c 0
 527 343 434 231 285 231 c 2
 154 231 l 1
 114 41 l 1
 252 41 l 2
 269 41 276 35 276 25 c 0
 276 15 270 0 243 0 c 2
 10 0 l 2
 -5 0 -13 5 -13 15 c 0
EndSplineSet
Validated: 3073
EndChar

StartChar: uni01A5
Encoding: 421 421 356
Width: 600
Flags: HMW
LayerCount: 2
Fore
SplineSet
359 390 m 0
 235 390 141 281 141 186 c 0
 141 108 200 51 287 51 c 0
 385 51 505 134 505 255 c 0
 505 334 447 390 359 390 c 0
-60 -170 m 0
 -60 -160 -53 -145 -28 -145 c 2
 26 -145 l 1
 155 462 l 2
 174 549 254 618 339 618 c 0
 401 618 420 601 420 589 c 0
 420 586 l 0
 417 575 406 566 396 566 c 0
 386 566 370 577 335 577 c 0
 267 577 211 530 196 462 c 2
 169 335 l 1
 237 404 293 431 369 431 c 0
 477 431 547 362 547 266 c 0
 547 160 448 10 279 10 c 0
 202 10 153 40 121 106 c 1
 67 -145 l 1
 165 -145 l 2
 181 -145 189 -150 189 -160 c 0
 189 -171 182 -186 157 -186 c 2
 -36 -186 l 2
 -52 -186 -60 -181 -60 -170 c 0
EndSplineSet
Validated: 3073
EndChar

StartChar: uni01A6
Encoding: 422 422 357
Width: 600
Flags: HMW
LayerCount: 2
Fore
SplineSet
274 221 m 2
 344 221 444 257 444 310 c 0
 444 348 393 374 341 374 c 2
 209 374 l 1
 177 221 l 1
 274 221 l 2
332 546 m 0
 332 542 327 522 304 522 c 2
 241 522 l 1
 219 417 l 1
 350 417 l 2
 427 417 486 373 486 318 c 0
 486 291 471 220 339 194 c 1
 426 140 377 -50 418 -145 c 1
 445 -145 l 2
 459 -145 465 -153 465 -162 c 0
 465 -168 459 -186 436 -186 c 2
 386 -186 l 1
 331 -90 389 146 281 181 c 1
 168 181 l 1
 139 41 l 1
 202 41 l 2
 216 41 221 33 221 25 c 0
 221 20 217 0 193 0 c 2
 44 0 l 2
 30 0 24 8 24 17 c 0
 24 27 35 41 53 41 c 2
 98 41 l 1
 200 522 l 1
 155 522 l 2
 141 522 135 530 135 539 c 0
 135 545 141 563 164 563 c 2
 313 563 l 2
 327 563 332 556 332 546 c 0
EndSplineSet
Validated: 3073
EndChar

StartChar: uni01A7
Encoding: 423 423 358
Width: 600
Flags: HMW
LayerCount: 2
Fore
SplineSet
154 177 m 0
 147 161 144 146 144 131 c 0
 144 70 199 24 282 24 c 0
 321 24 373 37 401 55 c 0
 419 65 463 103 465 109 c 1
 481 155 l 1
 489 163 496 167 502 167 c 0
 512 167 518 161 518 149 c 0
 518 146 518 143 517 139 c 2
 492 27 l 2
 492 23 490 17 489 15 c 0
 486 7 476 0 467 0 c 0
 455 0 451 8 451 18 c 0
 451 30 456 44 458 56 c 1
 407 9 341 -17 271 -17 c 0
 222 -17 96 11 96 115 c 0
 96 135 101 158 113 185 c 0
 187 359 445 263 503 399 c 0
 509 413 511 427 511 440 c 0
 511 494 463 536 391 536 c 0
 356 536 310 523 286 506 c 0
 273 497 237 464 235 459 c 1
 220 417 l 1
 210 408 204 405 198 405 c 0
 189 405 184 412 184 422 c 0
 184 426 184 429 185 433 c 2
 207 536 l 2
 208 543 209 545 210 548 c 0
 213 556 223 563 232 563 c 0
 245 563 249 556 249 545 c 0
 249 537 246 527 244 517 c 1
 293 558 345 577 404 577 c 0
 496 577 557 521 557 449 c 0
 557 431 553 412 545 392 c 0
 472 220 215 320 154 177 c 0
EndSplineSet
Validated: 3073
EndChar

StartChar: uni01A8
Encoding: 424 424 359
Width: 600
Flags: HMW
LayerCount: 2
Fore
SplineSet
218 335 m 2
 208 304 l 1
 200 296 193 292 187 292 c 0
 177 292 171 298 171 310 c 0
 171 313 171 316 172 320 c 1
 187 389 l 2
 188 394 190 399 191 402 c 0
 194 410 204 417 213 417 c 0
 223 417 228 411 228 399 c 0
 228 395 228 390 227 385 c 1
 269 416 317 431 375 431 c 0
 465 431 523 391 523 335 c 0
 523 324 520 311 515 298 c 0
 484 225 393 215 322 207 c 0
 237 198 174 177 154 130 c 0
 150 121 149 112 149 104 c 0
 149 59 203 25 284 25 c 0
 364 25 435 56 453 99 c 0
 455 103 457 115 460 122 c 0
 463 130 473 137 482 137 c 0
 493 137 499 131 499 120 c 0
 499 117 499 114 498 110 c 1
 479 27 l 0
 479 24 477 17 476 15 c 0
 473 7 462 0 454 0 c 0
 442 0 439 7 439 17 c 0
 439 23 440 31 441 38 c 1
 391 1 336 -17 271 -17 c 0
 169 -17 102 31 102 96 c 0
 102 109 105 123 112 138 c 0
 122 162 148 190 175 206 c 0
 276 267 440 227 474 307 c 0
 476 313 477 319 477 325 c 0
 477 361 429 391 362 391 c 0
 287 391 226 352 218 335 c 2
EndSplineSet
Validated: 3073
EndChar

StartChar: uni01AA
Encoding: 426 426 361
Width: 600
Flags: HMW
LayerCount: 2
Fore
SplineSet
218 470 m 0
 251 470 291 498 291 539 c 0
 291 565 272 585 243 585 c 0
 212 585 169 557 169 517 c 0
 169 490 189 470 218 470 c 0
450 -54 m 0
 450 -87 375 -93 355 -93 c 0
 284 -93 237 -43 237 24 c 0
 237 35 239 46 241 58 c 0
 326 462 l 1
 329 473 330 484 330 494 c 0
 330 508 328 520 324 532 c 1
 324 530 323 528 323 526 c 0
 313 478 262 437 211 437 c 0
 166 437 135 469 135 510 c 0
 135 572 199 618 250 618 c 0
 323 618 371 567 371 498 c 0
 371 486 370 474 367 462 c 0
 283 64 l 1
 281 53 279 43 279 33 c 0
 279 -18 312 -52 363 -52 c 0
 400 -52 423 -39 436 -39 c 0
 445 -39 450 -46 450 -54 c 0
EndSplineSet
Validated: 3073
EndChar

StartChar: uni01AB
Encoding: 427 427 362
Width: 600
Flags: HMW
LayerCount: 2
Fore
SplineSet
213 -145 m 0
 227 -145 245 -158 281 -158 c 0
 342 -158 396 -110 410 -42 c 2
 423 17 l 1
 378 -1 311 -16 258 -16 c 0
 175 -16 126 21 126 81 c 0
 126 89 127 98 129 107 c 2
 186 376 l 1
 112 376 l 2
 96 376 88 381 88 391 c 0
 88 402 93 417 121 417 c 2
 195 417 l 1
 220 536 l 2
 224 554 233 563 247 563 c 0
 258 563 262 558 262 548 c 0
 262 545 262 541 261 536 c 2
 236 417 l 1
 456 417 l 2
 472 417 479 411 479 401 c 0
 479 391 473 376 447 376 c 2
 227 376 l 1
 170 109 l 2
 169 103 168 98 168 93 c 0
 168 51 204 25 265 25 c 0
 321 25 395 42 439 65 c 0
 448 70 451 71 456 71 c 0
 465 71 471 63 471 54 c 0
 471 51 l 2
 450 -48 l 2
 432 -132 353 -199 271 -199 c 0
 256 -199 191 -193 191 -169 c 0
 191 -158 201 -145 213 -145 c 0
EndSplineSet
Validated: 3073
EndChar

StartChar: uni01AC
Encoding: 428 428 363
Width: 600
Flags: HMW
LayerCount: 2
Fore
SplineSet
92 15 m 0
 92 26 97 41 124 41 c 2
 229 41 l 1
 331 522 l 1
 164 522 l 2
 141 522 96 495 96 459 c 0
 96 433 116 415 139 415 c 0
 149 415 155 408 155 398 c 0
 155 397 155 395 155 394 c 0
 153 383 142 374 131 374 c 0
 88 374 55 404 55 449 c 0
 55 517 122 563 173 563 c 2
 588 563 l 1
 564 449 l 2
 560 430 552 422 538 422 c 0
 528 422 522 429 522 440 c 0
 522 443 522 446 523 449 c 2
 538 522 l 1
 372 522 l 1
 270 41 l 1
 375 41 l 2
 391 41 398 35 398 25 c 0
 398 15 392 0 366 0 c 2
 115 0 l 2
 100 0 92 5 92 15 c 0
EndSplineSet
Validated: 3073
EndChar

StartChar: uni01AD
Encoding: 429 429 364
Width: 600
Flags: HMW
LayerCount: 2
Fore
SplineSet
420 566 m 0
 410 566 394 577 359 577 c 0
 291 577 235 530 220 462 c 1
 211 417 l 1
 431 417 l 2
 446 417 454 412 454 402 c 0
 454 392 447 376 422 376 c 2
 202 376 l 1
 145 109 l 1
 144 103 143 97 143 92 c 0
 143 51 178 25 239 25 c 0
 295 25 370 42 414 65 c 0
 423 70 426 71 431 71 c 0
 440 71 446 63 446 54 c 0
 446 51 l 0
 440 22 318 -16 233 -16 c 0
 150 -16 101 21 101 81 c 0
 101 89 102 98 104 107 c 0
 161 376 l 1
 87 376 l 2
 71 376 62 381 62 392 c 0
 62 402 69 417 96 417 c 2
 170 417 l 1
 179 462 l 1
 198 549 278 618 363 618 c 0
 408 618 444 608 444 588 c 0
 444 579 432 566 420 566 c 0
EndSplineSet
Validated: 3073
EndChar

StartChar: uni01AE
Encoding: 430 430 365
Width: 600
Flags: HMW
LayerCount: 2
Fore
SplineSet
440 -160 m 0
 440 -193 365 -199 346 -199 c 0
 275 -199 227 -149 227 -81 c 0
 227 -70 229 -59 231 -48 c 0
 352 522 l 1
 185 522 l 1
 170 449 l 2
 166 431 157 422 143 422 c 0
 133 422 128 427 128 438 c 0
 128 441 128 445 129 449 c 2
 153 563 l 1
 609 563 l 1
 585 449 l 2
 581 430 573 422 559 422 c 0
 549 422 543 429 543 440 c 0
 543 443 543 446 544 449 c 2
 559 522 l 1
 393 522 l 1
 273 -42 l 1
 271 -52 270 -62 270 -71 c 0
 270 -123 302 -158 354 -158 c 0
 392 -158 412 -145 426 -145 c 0
 436 -145 440 -152 440 -160 c 0
EndSplineSet
Validated: 3073
EndChar

StartChar: Uhorn
Encoding: 431 431 366
Width: 600
Flags: HMW
AnchorPoint: "above" 390 563 basechar 0
LayerCount: 2
Fore
SplineSet
728 636 m 0
 728 568 662 522 610 522 c 2
 576 522 l 1
 504 185 l 2
 480 71 375 -16 263 -16 c 0
 165 -16 101 49 101 140 c 0
 101 155 103 170 106 185 c 2
 178 522 l 1
 144 522 l 2
 129 522 121 527 121 537 c 0
 121 548 126 563 153 563 c 2
 302 563 l 2
 318 563 325 557 325 547 c 0
 325 537 319 522 293 522 c 2
 219 522 l 1
 147 185 l 2
 144 173 143 161 143 150 c 0
 143 77 194 25 271 25 c 0
 359 25 444 95 463 185 c 2
 535 522 l 1
 461 522 l 2
 446 522 438 527 438 537 c 0
 438 557 452 563 470 563 c 2
 619 563 l 2
 642 563 687 590 687 626 c 0
 687 652 667 670 644 670 c 0
 635 670 627 677 627 686 c 0
 627 688 628 689 628 691 c 0
 630 702 641 711 652 711 c 0
 695 711 728 681 728 636 c 0
EndSplineSet
Validated: 3073
LCarets2: 1 0 
Ligature2: "'ccmp' Glyph Composition in Latin for Viet horn" U horncmb
EndChar

StartChar: uhorn
Encoding: 432 432 367
Width: 600
Flags: HMW
LayerCount: 2
Fore
SplineSet
538 417 m 2
 561 417 604 444 604 480 c 0
 604 506 584 524 561 524 c 0
 551 524 545 531 545 541 c 0
 545 542 545 544 545 545 c 0
 548 556 559 565 570 565 c 0
 613 565 645 535 645 490 c 0
 645 423 580 377 530 376 c 1
 458 41 l 1
 492 41 l 2
 508 41 516 36 516 26 c 0
 516 15 509 0 484 0 c 2
 409 0 l 1
 423 66 l 1
 356 12 289 -16 223 -16 c 0
 155 -16 114 22 114 82 c 0
 114 92 115 103 118 115 c 2
 174 376 l 1
 120 376 l 2
 104 376 96 381 96 392 c 0
 96 402 103 417 128 417 c 2
 223 417 l 1
 159 115 l 2
 158 108 157 102 157 96 c 0
 157 55 187 25 231 25 c 0
 298 25 365 55 433 115 c 1
 489 376 l 1
 415 376 l 1
 399 376 390 381 390 392 c 0
 390 403 397 417 423 417 c 2
 538 417 l 2
EndSplineSet
Validated: 3073
LCarets2: 1 0 
Ligature2: "'ccmp' Glyph Composition in Latin for Viet horn" u horncmb
EndChar

StartChar: uni01B1
Encoding: 433 433 368
Width: 600
Flags: HMW
LayerCount: 2
Fore
SplineSet
199 -2 m 2
 169 2 66 30 66 158 c 0
 66 301 178 422 274 431 c 1
 295 528 l 1
 170 528 l 1
 148 427 l 2
 146 414 138 400 124 400 c 0
 111 400 107 406 107 417 c 0
 107 420 108 423 108 427 c 2
 139 571 l 1
 346 571 l 1
 309 396 l 1
 132 380 107 217 107 174 c 0
 107 169 107 165 107 161 c 0
 107 127 127 78 148 65 c 2
 179 47 l 2
 187 42 197 39 206 38 c 2
 298 38 l 2
 411 51 479 170 479 260 c 0
 479 366 399 387 379 392 c 2
 352 396 l 1
 389 571 l 1
 601 571 l 1
 570 427 l 2
 569 421 559 400 543 400 c 0
 532 400 528 407 528 418 c 0
 528 420 529 424 529 427 c 2
 551 528 l 1
 422 528 l 1
 401 431 l 1
 489 412 522 334 522 268 c 0
 522 153 420 -2 289 -2 c 2
 199 -2 l 2
EndSplineSet
Validated: 3073
EndChar

StartChar: uni01B2
Encoding: 434 434 369
Width: 600
Flags: HMW
LayerCount: 2
Fore
SplineSet
100 539 m 0
 100 557 114 563 132 563 c 2
 273 563 l 2
 288 563 300 558 300 547 c 0
 300 537 294 521 266 521 c 2
 217 521 l 1
 138 148 l 2
 136 137 134 127 134 117 c 0
 134 64 181 29 248 29 c 0
 372 29 397 114 403 144 c 2
 492 561 l 1
 586 561 l 2
 600 561 610 558 610 547 c 0
 610 536 603 521 577 521 c 2
 525 521 l 1
 445 144 l 2
 423 40 355 -12 241 -12 c 0
 147 -12 91 24 91 102 c 0
 91 115 93 130 96 146 c 2
 177 523 l 1
 124 523 l 2
 111 523 100 528 100 539 c 0
EndSplineSet
Validated: 3073
EndChar

StartChar: uni01B3
Encoding: 435 435 370
Width: 600
Flags: HMW
LayerCount: 2
Fore
SplineSet
272 547 m 0
 272 537 266 522 240 522 c 2
 202 522 l 1
 306 295 l 1
 503 522 l 1
 463 522 l 2
 447 522 439 527 439 537 c 0
 439 548 444 563 472 563 c 2
 582 563 l 2
 597 563 605 557 605 546 c 0
 605 542 600 522 573 522 c 2
 549 522 l 1
 316 254 l 1
 271 41 l 1
 376 41 l 2
 392 41 399 35 399 25 c 0
 399 15 393 0 367 0 c 2
 116 0 l 2
 101 0 93 5 93 15 c 0
 93 26 98 41 125 41 c 2
 230 41 l 1
 275 254 l 1
 153 522 l 1
 129 522 l 2
 106 522 61 495 61 459 c 0
 61 433 81 415 104 415 c 0
 114 415 120 408 120 398 c 0
 120 397 120 395 120 394 c 0
 118 383 107 374 96 374 c 0
 53 374 20 404 20 449 c 0
 20 517 87 563 138 563 c 2
 249 563 l 2
 265 563 272 557 272 547 c 0
EndSplineSet
Validated: 3073
EndChar

StartChar: uni01B4
Encoding: 436 436 371
Width: 600
Flags: HMW
LayerCount: 2
Fore
SplineSet
679 490 m 0
 679 424 616 376 562 376 c 2
 548 376 l 1
 181 -145 l 1
 246 -145 l 2
 262 -145 269 -151 269 -161 c 0
 269 -171 263 -186 237 -186 c 2
 4 -186 l 2
 -11 -186 -19 -181 -19 -171 c 0
 -19 -160 -14 -145 13 -145 c 2
 140 -145 l 1
 242 0 l 1
 134 376 l 1
 118 376 l 2
 102 376 94 381 94 392 c 0
 94 402 101 417 126 417 c 2
 241 417 l 2
 257 417 265 412 265 402 c 0
 265 391 258 376 233 376 c 2
 181 376 l 1
 274 45 l 1
 506 376 l 1
 452 376 l 1
 436 376 428 381 428 392 c 0
 428 402 435 417 460 417 c 2
 570 417 l 2
 595 417 638 444 638 480 c 0
 638 506 618 524 595 524 c 0
 586 524 579 530 579 540 c 0
 579 541 580 543 580 545 c 0
 582 556 593 565 604 565 c 0
 647 565 679 535 679 490 c 0
EndSplineSet
Validated: 3073
EndChar

StartChar: uni01B5
Encoding: 437 437 372
Width: 600
Flags: HMW
LayerCount: 2
Fore
SplineSet
452 306 m 0
 452 296 445 281 420 281 c 2
 310 281 l 1
 92 45 l 1
 91 41 l 1
 405 41 l 1
 435 182 l 2
 439 200 447 209 461 209 c 0
 472 209 477 204 477 193 c 0
 477 190 477 186 476 182 c 2
 437 0 l 1
 43 0 l 1
 56 59 l 1
 261 281 l 1
 184 281 l 2
 168 281 160 286 160 296 c 0
 160 306 167 321 192 321 c 2
 298 321 l 1
 481 519 l 1
 482 522 l 1
 213 522 l 1
 188 404 l 2
 184 385 175 376 162 376 c 0
 151 376 146 381 146 393 c 0
 146 396 146 400 147 404 c 2
 181 563 l 1
 530 563 l 1
 518 505 l 1
 347 321 l 1
 428 321 l 2
 444 321 452 316 452 306 c 0
EndSplineSet
Validated: 3073
EndChar

StartChar: uni01B6
Encoding: 438 438 373
Width: 600
Flags: HMW
LayerCount: 2
Fore
SplineSet
159 216 m 0
 159 225 164 241 191 241 c 2
 303 241 l 1
 452 376 l 1
 201 376 l 1
 189 321 l 2
 185 303 176 294 163 294 c 0
 152 294 147 299 147 310 c 0
 147 313 147 317 148 321 c 2
 168 417 l 1
 518 417 l 1
 511 381 l 1
 356 241 l 1
 427 241 l 1
 443 241 450 235 450 225 c 0
 450 216 444 201 418 201 c 2
 312 201 l 1
 135 41 l 1
 412 41 l 1
 424 97 l 2
 428 115 437 124 451 124 c 0
 461 124 466 119 466 108 c 0
 466 105 466 101 465 97 c 2
 445 0 l 1
 71 0 l 1
 78 36 l 1
 259 201 l 1
 182 201 l 1
 167 201 159 206 159 216 c 0
EndSplineSet
Validated: 3073
EndChar

StartChar: uni01B7
Encoding: 439 439 374
Width: 600
Flags: HMW
LayerCount: 2
Fore
SplineSet
333 354 m 0
 245 354 201 314 177 314 c 0
 165 314 161 326 161 330 c 0
 161 336 165 344 172 349 c 0
 389 522 l 1
 157 522 l 1
 143 522 137 530 137 539 c 0
 137 543 142 563 165 563 c 2
 492 563 l 1
 508 563 517 558 517 548 c 0
 517 537 510 522 484 522 c 2
 446 522 l 1
 272 383 l 1
 302 394 329 395 348 395 c 0
 434 395 488 336 488 250 c 0
 488 191 436 -15 234 -15 c 0
 126 -15 55 57 55 79 c 0
 55 88 65 102 79 102 c 0
 104 102 124 26 240 26 c 0
 405 26 447 193 447 242 c 0
 447 310 404 354 333 354 c 0
EndSplineSet
Validated: 3073
EndChar

StartChar: uni01B8
Encoding: 440 440 375
Width: 600
Flags: HMW
LayerCount: 2
Fore
SplineSet
280 354 m 0
 209 354 148 310 119 242 c 0
 111 224 103 191 103 155 c 0
 103 94 129 26 234 26 c 0
 350 26 402 102 427 102 c 0
 438 102 443 94 443 86 c 0
 443 84 442 81 442 79 c 0
 432 57 331 -15 223 -15 c 0
 94 -15 62 69 62 144 c 0
 62 188 72 229 81 250 c 0
 118 336 197 395 283 395 c 0
 302 395 328 394 354 383 c 1
 239 522 l 1
 201 522 l 2
 182 522 177 530 177 538 c 0
 177 541 178 545 179 548 c 0
 183 558 194 563 210 563 c 1
 537 563 l 2
 553 563 556 554 556 546 c 0
 556 543 556 540 555 539 c 0
 551 530 542 522 528 522 c 1
 296 522 l 1
 439 349 l 0
 442 346 444 342 444 337 c 0
 444 335 443 332 442 330 c 0
 441 326 431 314 419 314 c 0
 395 314 368 354 280 354 c 0
EndSplineSet
Validated: 3073
EndChar

StartChar: uni01B9
Encoding: 441 441 376
Width: 600
Flags: HMW
LayerCount: 2
Fore
SplineSet
87 -1 m 0
 87 145 194 250 286 250 c 2
 299 250 l 25
 192 376 l 1
 176 376 l 1
 160 376 151 381 151 392 c 0
 151 402 158 417 185 417 c 2
 458 417 l 1
 472 417 477 410 477 400 c 0
 477 396 472 376 449 376 c 2
 249 376 l 1
 392 203 l 1
 394 200 396 196 396 191 c 0
 396 187 391 169 373 169 c 0
 334 169 356 210 278 210 c 0
 217 210 128 130 128 12 c 0
 128 -60 164 -118 220 -118 c 0
 310 -118 349 -43 379 -43 c 0
 394 -43 397 -56 397 -60 c 0
 397 -79 298 -158 211 -158 c 0
 126 -158 87 -85 87 -1 c 0
EndSplineSet
Validated: 3073
EndChar

StartChar: uni01BB
Encoding: 443 443 377
Width: 600
Flags: HMW
LayerCount: 2
Fore
SplineSet
506 476 m 0
 506 398 451 351 392 301 c 1
 445 301 l 1
 460 301 469 296 469 287 c 0
 469 276 456 261 437 261 c 2
 344 261 l 1
 269 199 90 58 66 41 c 1
 380 41 l 1
 385 62 387 104 414 104 c 0
 424 104 430 98 430 87 c 0
 430 84 430 81 429 77 c 2
 412 0 l 1
 18 0 l 1
 31 60 l 1
 287 261 l 1
 201 261 l 1
 185 261 177 266 177 276 c 0
 177 286 184 301 209 301 c 2
 338 301 l 1
 406 357 465 402 465 470 c 0
 465 529 414 577 347 577 c 0
 279 577 207 532 179 472 c 0
 172 458 164 452 153 452 c 0
 144 452 138 459 138 467 c 0
 138 470 l 0
 147 510 233 618 356 618 c 0
 443 618 506 554 506 476 c 0
EndSplineSet
Validated: 3073
EndChar

StartChar: uni01BC
Encoding: 444 444 378
Width: 600
Flags: HMW
LayerCount: 2
Fore
SplineSet
137 539 m 0
 137 543 142 563 165 563 c 2
 492 563 l 1
 508 563 517 558 517 548 c 0
 517 537 510 522 484 522 c 2
 243 522 l 1
 209 365 l 1
 265 386 304 395 348 395 c 0
 434 395 488 336 488 250 c 0
 488 191 436 -15 234 -15 c 0
 126 -15 55 57 55 79 c 0
 55 88 65 102 79 102 c 0
 104 102 124 26 240 26 c 0
 405 26 447 193 447 242 c 0
 447 310 404 354 333 354 c 0
 239 354 205 313 176 313 c 0
 167 313 161 319 161 329 c 0
 161 331 161 333 162 335 c 2
 202 522 l 1
 157 522 l 2
 143 522 137 530 137 539 c 0
EndSplineSet
Validated: 3073
EndChar

StartChar: uni01BE
Encoding: 446 446 379
Width: 600
Flags: HMW
LayerCount: 2
Fore
SplineSet
173 385 m 0
 173 395 180 411 205 411 c 2
 310 411 l 1
 334 522 l 1
 229 522 l 2
 213 522 205 527 205 537 c 0
 205 548 212 563 237 563 c 2
 488 563 l 1
 504 563 513 558 513 547 c 0
 513 536 506 522 480 522 c 2
 375 522 l 1
 351 411 l 1
 456 411 l 2
 472 411 481 406 481 395 c 0
 481 384 474 370 447 370 c 2
 342 370 l 1
 331 316 l 1
 425 266 462 228 462 173 c 0
 462 134 424 -14 248 -14 c 0
 160 -14 121 20 83 34 c 1
 97 102 l 2
 101 120 110 129 124 129 c 0
 134 129 139 124 139 113 c 0
 139 110 139 106 138 102 c 2
 130 61 l 1
 176 35 206 27 251 27 c 0
 386 27 419 129 419 160 c 0
 419 207 377 246 284 289 c 1
 301 370 l 1
 196 370 l 2
 181 370 173 375 173 385 c 0
EndSplineSet
Validated: 3073
EndChar

StartChar: uni01C0
Encoding: 448 448 380
Width: 600
Flags: HMW
LayerCount: 2
Fore
SplineSet
392 577 m 2
 248 -97 l 2
 245 -115 236 -124 223 -124 c 0
 212 -124 207 -118 207 -106 c 0
 207 -103 207 -100 208 -97 c 2
 352 577 l 2
 355 595 364 604 377 604 c 0
 388 604 393 598 393 586 c 0
 393 583 393 580 392 577 c 2
EndSplineSet
Validated: 3073
EndChar

StartChar: uni01C2
Encoding: 450 450 381
Width: 600
Flags: HMW
LayerCount: 2
Fore
SplineSet
74 350 m 0
 74 360 81 375 107 375 c 2
 309 375 l 1
 352 577 l 2
 355 595 364 604 377 604 c 0
 388 604 393 598 393 586 c 0
 393 583 393 580 392 577 c 2
 349 375 l 1
 551 375 l 2
 566 375 574 370 574 360 c 0
 574 350 567 334 542 334 c 2
 340 334 l 1
 318 231 l 1
 520 231 l 2
 536 231 544 226 544 216 c 0
 544 206 537 190 511 190 c 2
 309 190 l 1
 248 -97 l 2
 245 -115 236 -124 223 -124 c 0
 212 -124 207 -118 207 -106 c 0
 207 -103 207 -100 208 -97 c 2
 269 190 l 1
 67 190 l 2
 52 190 44 195 44 205 c 0
 44 216 51 231 76 231 c 2
 278 231 l 1
 300 334 l 1
 98 334 l 2
 82 334 74 339 74 350 c 0
EndSplineSet
Validated: 3073
EndChar

StartChar: uni01C4
Encoding: 452 452 382
Width: 600
Flags: HMW
LayerCount: 2
Fore
SplineSet
492 600 m 1
 410 709 l 2
 405 714 402 720 402 725 c 0
 402 738 415 749 424 749 c 0
 428 749 432 746 436 741 c 2
 503 653 l 1
 608 741 l 2
 614 746 620 749 624 749 c 0
 631 749 635 742 635 733 c 0
 635 718 624 712 620 708 c 2
 492 600 l 1
481 0 m 1
 247 0 l 1
 260 59 l 1
 545 519 l 1
 545 522 l 1
 417 522 l 1
 392 404 l 2
 388 385 379 376 366 376 c 0
 355 376 350 381 350 393 c 0
 350 396 350 400 351 404 c 2
 385 563 l 1
 593 563 l 1
 581 505 l 1
 296 45 l 1
 295 41 l 1
 449 41 l 1
 479 182 l 2
 483 200 491 209 505 209 c 0
 516 209 521 204 521 193 c 0
 521 190 521 186 520 182 c 2
 481 0 l 1
-53 15 m 0
 -53 26 -46 41 -21 41 c 2
 -3 41 l 1
 99 522 l 1
 81 522 l 2
 66 522 58 527 58 537 c 0
 58 548 65 563 90 563 c 2
 182 563 l 2
 275 563 307 505 307 420 c 0
 307 387 302 350 294 310 c 2
 282 254 l 2
 252 112 191 0 62 0 c 2
 -30 0 l 2
 -45 0 -53 5 -53 15 c 0
38 41 m 1
 76 41 l 2
 172 41 217 139 239 245 c 2
 255 318 l 2
 261 348 268 376 268 403 c 0
 268 424 264 446 254 468 c 0
 236 509 225 522 171 522 c 2
 140 522 l 1
 38 41 l 1
EndSplineSet
Validated: 3073
EndChar

StartChar: uni01C5
Encoding: 453 453 383
Width: 600
Flags: HMW
LayerCount: 2
Fore
SplineSet
479 480 m 1
 397 589 l 1
 392 594 390 599 390 604 c 0
 390 617 401 629 411 629 c 0
 415 629 419 626 424 621 c 2
 490 533 l 1
 595 621 l 2
 601 626 607 629 611 629 c 0
 618 629 623 621 623 613 c 0
 623 603 616 596 608 588 c 2
 479 480 l 1
576 417 m 1
 568 381 l 1
 321 41 l 1
 470 41 l 1
 482 97 l 2
 486 115 495 124 509 124 c 0
 519 124 524 119 524 108 c 0
 524 105 524 101 523 97 c 2
 502 0 l 1
 256 0 l 1
 264 36 l 1
 509 376 l 1
 394 376 l 1
 382 321 l 2
 379 303 370 294 357 294 c 0
 346 294 340 300 340 312 c 0
 340 315 340 318 341 321 c 2
 362 417 l 1
 576 417 l 1
-40 15 m 0
 -40 26 -35 41 -8 41 c 2
 10 41 l 1
 112 522 l 1
 94 522 l 2
 79 522 71 527 71 537 c 0
 71 548 76 563 103 563 c 2
 195 563 l 2
 288 563 320 505 320 420 c 0
 320 387 315 350 307 310 c 2
 295 254 l 2
 265 112 204 0 75 0 c 2
 -17 0 l 2
 -32 0 -40 5 -40 15 c 0
51 41 m 1
 89 41 l 2
 185 41 230 139 252 245 c 2
 268 318 l 2
 274 348 281 376 281 403 c 0
 281 424 277 446 267 468 c 0
 248 509 238 522 184 522 c 2
 153 522 l 1
 51 41 l 1
EndSplineSet
Validated: 3073
EndChar

StartChar: uni01C6
Encoding: 454 454 384
Width: 600
Flags: HMW
LayerCount: 2
Fore
SplineSet
465 480 m 1
 382 589 l 2
 377 595 375 600 375 605 c 0
 375 619 388 629 397 629 c 0
 401 629 405 626 409 621 c 2
 476 533 l 1
 580 621 l 2
 587 626 593 629 597 629 c 0
 604 629 608 622 608 613 c 0
 608 598 597 592 593 588 c 2
 465 480 l 1
64 25 m 0
 173 25 202 239 202 291 c 0
 202 350 183 390 142 390 c 0
 78 390 32 200 32 103 c 0
 32 56 43 25 64 25 c 0
190 579 m 0
 190 589 197 604 222 604 c 2
 317 604 l 1
 198 41 l 1
 253 41 l 1
 495 376 l 1
 372 376 l 1
 360 321 l 2
 356 303 347 294 334 294 c 0
 323 294 318 299 318 310 c 0
 318 313 318 317 319 321 c 2
 339 417 l 1
 561 417 l 1
 554 381 l 1
 307 41 l 1
 456 41 l 1
 467 97 l 2
 471 115 480 124 494 124 c 0
 504 124 509 119 509 108 c 0
 509 105 509 101 508 97 c 2
 488 0 l 1
 148 0 l 1
 158 49 l 1
 135 0 113 -16 52 -16 c 0
 9 -16 -10 28 -10 94 c 0
 -10 168 29 431 146 431 c 0
 210 431 219 399 226 367 c 1
 268 563 l 1
 214 563 l 2
 198 563 190 568 190 579 c 0
EndSplineSet
Validated: 3073
EndChar

StartChar: uni01C7
Encoding: 455 455 385
Width: 600
Flags: HMW
LayerCount: 2
Fore
SplineSet
254 548 m 0
 254 537 247 522 222 522 c 2
 166 522 l 1
 63 41 l 1
 152 41 l 1
 186 201 l 2
 190 219 199 228 213 228 c 0
 223 228 228 223 228 212 c 0
 228 209 228 205 227 201 c 2
 185 0 l 1
 -26 0 l 2
 -42 0 -50 5 -50 16 c 0
 -50 26 -43 41 -18 41 c 2
 22 41 l 1
 125 522 l 1
 85 522 l 2
 69 522 61 527 61 538 c 0
 61 548 68 563 93 563 c 0
 119 564 141 564 162 564 c 0
 184 564 205 563 230 563 c 0
 246 563 254 558 254 548 c 0
649 548 m 0
 649 537 642 522 617 522 c 2
 567 522 l 1
 491 165 l 2
 470 66 426 -16 337 -16 c 0
 274 -16 271 12 243 74 c 1
 275 223 l 2
 279 241 288 250 302 250 c 0
 312 250 317 245 317 234 c 0
 317 231 317 227 316 223 c 2
 289 93 l 1
 307 44 308 25 349 25 c 0
 419 25 433 88 450 165 c 2
 526 522 l 1
 431 522 l 2
 415 522 407 527 407 538 c 0
 407 548 414 563 439 563 c 2
 625 563 l 2
 641 563 649 558 649 548 c 0
EndSplineSet
Validated: 3073
EndChar

StartChar: uni01C8
Encoding: 456 456 386
Width: 600
Flags: HMW
LayerCount: 2
Fore
SplineSet
380 548 m 0
 380 538 373 522 347 522 c 2
 251 522 l 1
 149 41 l 1
 322 41 l 1
 356 201 l 2
 360 219 369 228 383 228 c 0
 393 228 398 223 398 212 c 0
 398 209 398 205 397 201 c 2
 354 0 l 1
 3 0 l 2
 -12 0 -20 5 -20 15 c 0
 -20 26 -13 41 12 41 c 2
 108 41 l 1
 210 522 l 1
 114 522 l 2
 99 522 91 527 91 537 c 0
 91 548 98 563 123 563 c 2
 356 563 l 2
 372 563 380 558 380 548 c 0
182 -170 m 0
 182 -160 189 -145 215 -145 c 2
 343 -145 l 2
 409 -145 468 -96 482 -28 c 2
 568 376 l 1
 487 376 l 2
 472 376 464 381 464 391 c 0
 464 402 471 417 496 417 c 2
 618 417 l 1
 523 -28 l 2
 504 -121 426 -186 335 -186 c 2
 206 -186 l 2
 190 -186 182 -181 182 -170 c 0
669 624 m 1
 647 520 l 1
 588 520 l 1
 610 624 l 1
 669 624 l 1
EndSplineSet
Validated: 3073
EndChar

StartChar: uni01C9
Encoding: 457 457 387
Width: 600
Flags: HMW
LayerCount: 2
Fore
SplineSet
82 -170 m 0
 82 -160 89 -145 115 -145 c 2
 243 -145 l 2
 309 -145 368 -96 382 -28 c 2
 468 376 l 1
 387 376 l 2
 372 376 364 381 364 391 c 0
 364 402 371 417 396 417 c 2
 518 417 l 1
 423 -28 l 2
 404 -121 326 -186 235 -186 c 2
 106 -186 l 2
 90 -186 82 -181 82 -170 c 0
569 624 m 1
 547 520 l 1
 488 520 l 1
 510 624 l 1
 569 624 l 1
211 578 m 0
 211 589 216 604 243 604 c 2
 340 604 l 1
 220 41 l 1
 284 41 l 2
 300 41 309 36 309 26 c 0
 309 16 302 0 275 0 c 2
 104 0 l 2
 89 0 81 5 81 15 c 0
 81 26 88 41 113 41 c 2
 179 41 l 1
 290 563 l 1
 234 563 l 2
 219 563 211 568 211 578 c 0
EndSplineSet
Validated: 3073
EndChar

StartChar: uni01CA
Encoding: 458 458 388
Width: 600
Flags: HMW
LayerCount: 2
Fore
SplineSet
612 522 m 1
 536 165 l 2
 515 67 496 -16 409 -16 c 0
 358 -16 341 12 341 47 c 0
 341 55 342 65 344 74 c 2
 376 223 l 2
 380 241 388 250 402 250 c 0
 411 250 418 243 418 235 c 0
 418 227 417 218 415 210 c 2
 389 93 l 2
 386 79 385 68 385 59 c 0
 385 34 395 25 418 25 c 0
 454 25 478 87 495 165 c 2
 571 522 l 1
 536 522 l 2
 519 522 512 527 512 538 c 0
 512 554 524 563 544 563 c 2
 660 563 l 2
 677 563 683 559 683 547 c 0
 683 532 671 522 651 522 c 2
 612 522 l 1
269 0 m 1
 219 0 l 1
 156 472 l 1
 65 41 l 1
 108 41 l 2
 123 41 131 36 131 26 c 0
 131 16 124 0 99 0 c 2
 -3 0 l 2
 -19 0 -27 5 -27 16 c 0
 -27 26 -20 41 6 41 c 2
 24 41 l 1
 126 522 l 1
 88 522 l 2
 72 522 64 527 64 538 c 0
 64 548 71 563 97 563 c 2
 187 563 l 1
 249 91 l 1
 341 522 l 1
 299 522 l 2
 283 522 274 527 274 538 c 0
 274 548 281 563 308 563 c 2
 425 563 l 2
 440 563 448 558 448 548 c 0
 448 538 441 522 416 522 c 2
 382 522 l 1
 332 294 311 211 269 0 c 1
EndSplineSet
Validated: 3073
EndChar

StartChar: uni01CB
Encoding: 459 459 389
Width: 600
Flags: HMW
LayerCount: 2
Fore
SplineSet
532 548 m 0
 532 538 525 522 499 522 c 2
 465 522 l 1
 354 0 l 1
 302 0 l 1
 201 488 l 1
 106 41 l 1
 181 41 l 2
 197 41 205 36 205 26 c 0
 205 16 198 0 172 0 c 2
 22 0 l 2
 7 0 -1 5 -1 15 c 0
 -1 26 6 41 31 41 c 2
 65 41 l 1
 167 522 l 1
 113 522 l 2
 98 522 90 527 90 537 c 0
 90 548 97 563 122 563 c 2
 228 563 l 1
 329 75 l 1
 424 522 l 1
 350 522 l 2
 334 522 326 527 326 537 c 0
 326 547 331 563 359 563 c 2
 508 563 l 2
 524 563 532 558 532 548 c 0
182 -170 m 0
 182 -160 189 -145 215 -145 c 2
 343 -145 l 2
 409 -145 468 -96 482 -28 c 2
 568 376 l 1
 487 376 l 2
 472 376 464 381 464 391 c 0
 464 402 471 417 496 417 c 2
 618 417 l 1
 523 -28 l 2
 504 -121 426 -186 335 -186 c 2
 206 -186 l 2
 190 -186 182 -181 182 -170 c 0
669 624 m 1
 647 520 l 1
 588 520 l 1
 610 624 l 1
 669 624 l 1
EndSplineSet
Validated: 3073
EndChar

StartChar: uni01CC
Encoding: 460 460 390
Width: 600
Flags: HMW
LayerCount: 2
Fore
SplineSet
62 391 m 0
 62 402 69 417 94 417 c 2
 169 417 l 1
 154 348 l 1
 223 420 243 431 287 431 c 0
 288 431 288 431 289 431 c 0
 367 431 413 386 413 324 c 0
 413 315 412 305 410 295 c 2
 356 41 l 1
 390 41 l 2
 406 41 414 36 414 26 c 0
 414 16 407 0 381 0 c 2
 272 0 l 2
 257 0 249 5 249 15 c 0
 249 26 256 41 281 41 c 2
 315 41 l 1
 368 288 l 2
 369 293 369 298 369 302 c 0
 369 335 352 390 274 390 c 0
 248 390 223 374 143 294 c 1
 89 41 l 1
 134 41 l 2
 150 41 158 36 158 26 c 0
 158 16 151 0 125 0 c 2
 -6 0 l 2
 -22 0 -30 5 -30 15 c 0
 -30 25 -25 41 3 41 c 2
 48 41 l 1
 119 376 l 1
 85 376 l 2
 70 376 62 381 62 391 c 0
182 -170 m 0
 182 -160 189 -145 215 -145 c 2
 343 -145 l 2
 409 -145 468 -96 482 -28 c 2
 568 376 l 1
 487 376 l 2
 472 376 464 381 464 391 c 0
 464 402 471 417 496 417 c 2
 618 417 l 1
 523 -28 l 2
 504 -121 426 -186 335 -186 c 2
 206 -186 l 2
 190 -186 182 -181 182 -170 c 0
669 624 m 1
 647 520 l 1
 588 520 l 1
 610 624 l 1
 669 624 l 1
EndSplineSet
Validated: 3073
EndChar

StartChar: uni01D7
Encoding: 471 471 401
Width: 600
Flags: HM
LayerCount: 2
Fore
SplineSet
518 800 m 1
 616 800 l 1
 444 663.5 l 2
 434.185 655.71 427.167 651 415 651 c 0
 408 651 401 660.5 401 666 c 0
 401 669 402.672 675.486 405 678 c 2
 518 800 l 1
602 474 m 1
 539 185 l 2
 514 72 409 -16 297 -16 c 0
 201 -16 136 47 136 140 c 0
 136 154 138 170 141 185 c 2
 204 474 l 1
 171 474 l 2
 154 474 147 479 147 490 c 0
 147 506 159 515 179 515 c 2
 329 515 l 2
 345 515 351 511 351 499 c 0
 351 484 339 474 320 474 c 2
 245 474 l 1
 182 185 l 1
 179 173 178 161 178 151 c 0
 178 76 230 25 305 25 c 0
 394 25 478 95 498 185 c 2
 561 474 l 1
 487 474 l 2
 470 474 464 479 464 491 c 0
 464 506 476 515 496 515 c 2
 645 515 l 2
 662 515 668 511 668 499 c 0
 668 484 656 474 636 474 c 2
 602 474 l 1
319 663 m 0
 343 663 360 646 360 623 c 0
 360 592 330 563 298 563 c 0
 275 563 258 580 258 603 c 0
 258 633 288 663 319 663 c 0
540 663 m 0
 564 663 581 646 581 623 c 0
 581 592 551 563 519 563 c 0
 496 563 479 580 479 603 c 0
 479 633 509 663 540 663 c 0
EndSplineSet
Validated: 3073
EndChar

StartChar: uni01D9
Encoding: 473 473 403
Width: 600
Flags: HM
LayerCount: 2
Fore
SplineSet
432 651 m 1
 324 760 l 1
 316 766 314 769 314 775 c 0
 314 788 326 800 339 800 c 0
 344 800 349 797 355 792 c 2
 443 704 l 1
 570 792 l 2
 577 797 584 800 589 800 c 0
 598 800 605 793 605 784 c 0
 605 774 601 769 587 759 c 2
 432 651 l 1
601 478 m 1
 539 185 l 2
 515 72 409 -16 297 -16 c 0
 201 -16 136 47 136 140 c 0
 136 154 138 170 141 185 c 2
 203 478 l 1
 170 478 l 2
 153 478 146 483 146 494 c 0
 146 510 158 519 178 519 c 2
 328 519 l 2
 344 519 350 515 350 503 c 0
 350 488 338 478 319 478 c 2
 244 478 l 1
 182 185 l 1
 179 173 178 161 178 151 c 0
 178 76 230 25 305 25 c 0
 394 25 479 95 498 185 c 2
 560 478 l 1
 486 478 l 2
 469 478 463 483 463 495 c 0
 463 510 475 519 495 519 c 2
 644 519 l 2
 661 519 667 515 667 503 c 0
 667 488 655 478 635 478 c 2
 601 478 l 1
319 658 m 0
 343 658 360 641 360 618 c 0
 360 587 330 558 298 558 c 0
 275 558 258 575 258 598 c 0
 258 628 288 658 319 658 c 0
540 658 m 0
 564 658 581 641 581 618 c 0
 581 587 551 558 519 558 c 0
 496 558 479 575 479 598 c 0
 479 628 509 658 540 658 c 0
EndSplineSet
Validated: 3073
EndChar

StartChar: uni01E4
Encoding: 484 484 414
Width: 600
Flags: HMW
LayerCount: 2
Fore
SplineSet
279 121 m 0
 279 131 286 146 312 146 c 2
 451 146 l 1
 464 209 l 1
 325 209 l 2
 309 209 301 214 301 225 c 0
 301 235 308 250 334 250 c 2
 528 250 l 2
 544 250 552 245 552 235 c 0
 552 224 545 209 519 209 c 2
 505 209 l 1
 492 146 l 1
 506 146 l 1
 522 146 530 141 530 131 c 0
 530 120 523 105 497 105 c 2
 483 105 l 1
 468 36 l 1
 402 2 332 -16 270 -16 c 0
 130 -16 48 59 48 179 c 0
 48 200 50 221 55 244 c 2
 71 318 l 2
 98 445 219 576 376 576 c 0
 442 576 493 558 530 522 c 1
 534 542 539 563 560 563 c 0
 571 563 575 558 575 548 c 0
 575 545 575 541 574 536 c 2
 555 445 l 2
 551 427 542 418 529 418 c 0
 519 418 514 423 514 434 c 0
 514 440 515 442 515 450 c 0
 515 498 454 535 369 535 c 0
 205 535 124 378 112 317 c 2
 96 244 l 2
 92 224 90 205 90 187 c 0
 90 85 159 25 282 25 c 0
 334 25 370 33 432 59 c 1
 442 105 l 1
 303 105 l 1
 287 105 279 110 279 121 c 0
EndSplineSet
Validated: 3073
EndChar

StartChar: uni01E5
Encoding: 485 485 415
Width: 600
Flags: HMW
LayerCount: 2
Fore
SplineSet
257 51 m 0
 354 51 465 139 465 257 c 0
 465 335 411 390 329 390 c 0
 205 390 121 275 121 185 c 0
 121 108 176 51 257 51 c 0
621 402 m 0
 621 392 614 376 589 376 c 2
 535 376 l 1
 449 -28 l 2
 448 -34 446 -40 444 -46 c 1
 495 -46 l 2
 511 -46 519 -51 519 -61 c 0
 519 -71 512 -86 487 -86 c 2
 425 -86 l 1
 394 -136 324 -186 250 -186 c 2
 136 -186 l 2
 121 -186 113 -181 113 -171 c 0
 113 -160 120 -145 145 -145 c 2
 261 -145 l 2
 306 -145 349 -121 378 -86 c 1
 251 -86 l 2
 235 -86 227 -81 227 -71 c 0
 227 -61 234 -46 259 -46 c 2
 402 -46 l 1
 419 2 423 56 437 107 c 1
 378 41 317 10 245 10 c 0
 147 10 79 81 79 176 c 0
 79 325 225 431 335 431 c 0
 408 431 454 401 485 334 c 1
 503 417 l 1
 598 417 l 2
 613 417 621 412 621 402 c 0
EndSplineSet
Validated: 3073
EndChar

StartChar: uni01EA
Encoding: 490 490 420
Width: 600
Flags: HM
LayerCount: 2
Fore
SplineSet
261 -134 m 0
 299 -134 310 -115 322 -115 c 0
 328 -115 333 -120 333 -127 c 0
 333 -145 289 -166 248 -166 c 0
 207 -166 183 -149 183 -120 c 0
 183 -77 212 -43 273 -15 c 1
 171 -4 102 83 102 207 c 0
 102 396 258 576 422 576 c 0
 536 576 616 486 616 357 c 0
 616 174 477 3 322 -15 c 1
 299 -26 l 2
 250 -50 223 -80 223 -110 c 0
 223 -126 236 -134 261 -134 c 0
415 535 m 0
 277 535 144 378 144 216 c 0
 144 106 211 25 302 25 c 0
 441 25 574 181 574 345 c 0
 574 455 507 535 415 535 c 0
EndSplineSet
Validated: 3073
EndChar

StartChar: uni01EB
Encoding: 491 491 421
Width: 600
Flags: HM
LayerCount: 2
Fore
SplineSet
265 -134 m 0
 303 -134 314 -115 326 -115 c 0
 332 -115 337 -120 337 -127 c 0
 337 -145 293 -166 252 -166 c 0
 211 -166 187 -149 187 -120 c 0
 187 -77 216 -43 277 -15 c 1
 178 -7 111 64 111 162 c 0
 111 301 247 431 391 431 c 0
 501 431 577 358 577 252 c 0
 577 123 460 2 327 -14 c 1
 303 -26 l 2
 254 -50 227 -80 227 -110 c 0
 227 -126 240 -134 265 -134 c 0
382 390 m 0
 264 390 153 284 153 171 c 0
 153 85 216 25 305 25 c 0
 424 25 535 130 535 244 c 0
 535 331 473 390 382 390 c 0
EndSplineSet
Validated: 3073
EndChar

StartChar: uni01F1
Encoding: 497 497 427
Width: 600
Flags: HMW
LayerCount: 2
Fore
SplineSet
501 0 m 1
 267 0 l 1
 280 59 l 1
 564 519 l 1
 565 522 l 1
 437 522 l 1
 412 404 l 2
 408 385 399 376 386 376 c 0
 375 376 370 381 370 393 c 0
 370 396 370 400 371 404 c 2
 405 563 l 1
 613 563 l 1
 601 505 l 1
 316 45 l 1
 315 41 l 1
 469 41 l 1
 499 182 l 2
 503 200 511 209 525 209 c 0
 536 209 541 204 541 193 c 0
 541 190 541 186 540 182 c 2
 501 0 l 1
-33 15 m 0
 -33 26 -28 41 -1 41 c 2
 17 41 l 1
 119 522 l 1
 101 522 l 2
 86 522 78 527 78 537 c 0
 78 548 83 563 110 563 c 2
 202 563 l 2
 295 563 327 505 327 420 c 0
 327 387 322 350 314 310 c 2
 302 254 l 2
 272 112 211 0 82 0 c 2
 -10 0 l 2
 -25 0 -33 5 -33 15 c 0
58 41 m 1
 96 41 l 2
 192 41 237 139 259 245 c 2
 275 318 l 2
 281 348 288 376 288 403 c 0
 288 424 284 446 274 468 c 0
 255 509 245 522 191 522 c 2
 160 522 l 1
 58 41 l 1
EndSplineSet
Validated: 3073
EndChar

StartChar: uni01F2
Encoding: 498 498 428
Width: 600
Flags: HMW
LayerCount: 2
Fore
SplineSet
583 417 m 1
 575 381 l 1
 328 41 l 1
 477 41 l 1
 489 97 l 2
 493 115 502 124 516 124 c 0
 526 124 531 119 531 108 c 0
 531 105 531 101 530 97 c 2
 509 0 l 1
 263 0 l 1
 271 36 l 1
 516 376 l 1
 401 376 l 1
 389 321 l 2
 386 303 377 294 364 294 c 0
 353 294 347 300 347 312 c 0
 347 315 347 318 348 321 c 2
 369 417 l 1
 583 417 l 1
-33 15 m 0
 -33 26 -28 41 -1 41 c 2
 17 41 l 1
 119 522 l 1
 101 522 l 2
 86 522 78 527 78 537 c 0
 78 548 83 563 110 563 c 2
 202 563 l 2
 295 563 327 505 327 420 c 0
 327 387 322 350 314 310 c 2
 302 254 l 2
 272 112 211 0 82 0 c 2
 -10 0 l 2
 -25 0 -33 5 -33 15 c 0
58 41 m 1
 96 41 l 2
 192 41 237 139 259 245 c 2
 275 318 l 2
 281 348 288 376 288 403 c 0
 288 424 284 446 274 468 c 0
 255 509 245 522 191 522 c 2
 160 522 l 1
 58 41 l 1
EndSplineSet
Validated: 3073
EndChar

StartChar: uni01F3
Encoding: 499 499 429
Width: 600
Flags: HMW
LayerCount: 2
Fore
SplineSet
67 25 m 0
 176 25 204 239 204 291 c 0
 204 350 185 390 144 390 c 0
 82 390 35 204 35 103 c 0
 35 56 46 25 67 25 c 0
193 578 m 0
 193 589 198 604 225 604 c 2
 320 604 l 1
 200 41 l 1
 256 41 l 2
 497 376 l 1
 374 376 l 1
 363 321 l 2
 359 303 350 294 337 294 c 0
 326 294 321 299 321 310 c 0
 321 313 321 317 322 321 c 2
 342 417 l 1
 564 417 l 1
 556 381 l 1
 309 41 l 1
 458 41 l 1
 470 97 l 2
 474 115 483 124 497 124 c 0
 507 124 512 119 512 108 c 0
 512 105 512 101 511 97 c 2
 491 0 l 1
 151 0 l 1
 161 49 l 1
 138 0 116 -16 55 -16 c 0
 12 -16 -7 28 -7 94 c 0
 -7 161 32 431 149 431 c 0
 213 431 222 399 229 367 c 1
 270 563 l 1
 216 563 l 2
 201 563 193 568 193 578 c 0
EndSplineSet
Validated: 3073
EndChar

StartChar: uni01F6
Encoding: 502 502 432
Width: 600
Flags: HMW
LayerCount: 2
Fore
SplineSet
471 550 m 0
 471 540 466 524 439 524 c 2
 414 524 l 1
 327 115 l 1
 326 108 325 102 325 96 c 0
 325 55 355 25 399 25 c 0
 466 25 498 85 505 118 c 2
 560 376 l 1
 486 376 l 2
 470 376 461 381 461 392 c 0
 461 403 468 417 494 417 c 2
 609 417 l 1
 546 116 l 2
 532 54 478 -16 387 -16 c 0
 323 -16 283 26 283 79 c 0
 283 98 286 115 286 115 c 1
 320 274 l 1
 130 274 l 1
 81 43 l 1
 135 43 l 2
 151 43 158 37 158 27 c 0
 158 17 152 2 126 2 c 2
 -14 2 l 2
 -30 2 -38 7 -38 18 c 0
 -38 28 -33 43 -5 43 c 2
 40 43 l 1
 142 524 l 1
 117 524 l 2
 101 524 94 530 94 541 c 0
 94 550 100 565 126 565 c 2
 230 565 l 2
 245 565 253 560 253 550 c 0
 253 540 248 524 221 524 c 2
 183 524 l 1
 139 315 l 1
 329 315 l 1
 373 524 l 1
 335 524 l 2
 319 524 312 530 312 541 c 0
 312 550 318 565 344 565 c 2
 448 565 l 2
 463 565 471 560 471 550 c 0
EndSplineSet
Validated: 3073
EndChar

StartChar: Aringacute
Encoding: 506 506 435
Width: 600
Flags: HMW
LayerCount: 2
Fore
SplineSet
458 800 m 1
 556 800 l 1
 384 663.5 l 2
 374.185 655.71 367.167 651 355 651 c 0
 348 651 341 660.5 341 666 c 0
 341 669 342.672 675.486 345 678 c 2
 458 800 l 1
468 150 m 1
 203 150 l 1
 117 33 l 1
 196 33 l 2
 213 33 219 30 219 20 c 0
 219 8 206 0 187 0 c 2
 36 0 l 2
 20 0 13 4 13 14 c 0
 13 26 25 33 45 33 c 2
 76 33 l 1
 357 418 l 1
 237 418 l 2
 221 418 214 422 214 430 c 0
 214 443 226 450 246 450 c 2
 449 450 l 1
 536 33 l 1
 573 33 l 2
 590 33 596 30 596 20 c 0
 596 8 584 0 564 0 c 2
 408 0 l 2
 392 0 385 4 385 13 c 0
 385 26 397 33 417 33 c 2
 493 33 l 1
 468 150 l 1
462 183 m 1
 412 418 l 1
 397 418 l 1
 227 183 l 1
 462 183 l 1
454 661 m 0
 498 661 530 631 530 589 c 0
 530 533 475 480 416 480 c 0
 372 480 340 511 340 552 c 0
 340 608 396 661 454 661 c 0
447 628 m 0
 410 628 374 594 374 559 c 0
 374 533 395 513 423 513 c 0
 461 513 496 546 496 582 c 0
 496 609 475 628 447 628 c 0
EndSplineSet
Validated: 3073
EndChar

StartChar: aringacute
Encoding: 507 507 436
Width: 600
Flags: HM
LayerCount: 2
Fore
SplineSet
518 800 m 1
 616 800 l 1
 444 663.5 l 2
 434.185 655.71 427.167 651 415 651 c 0
 408 651 401 660.5 401 666 c 0
 401 669 402.672 675.486 405 678 c 2
 518 800 l 1
205 374 m 0
 205 411 361 431 391 431 c 0
 472 431 528 390 528 331 c 0
 528 322 528 316 526 308 c 0
 469 41 l 1
 523 41 l 2
 540 41 546 37 546 25 c 0
 546 10 534 0 514 0 c 2
 419 0 l 1
 433 67 l 1
 360 10 295 -16 225 -16 c 0
 143 -16 93 23 93 87 c 0
 93 184 200 258 338 258 c 0
 384 258 414 253 470 237 c 1
 485 308 l 2
 486 313 486 316 486 322 c 0
 486 363 444 390 379 390 c 0
 301 390 249 358 220 358 c 0
 212 358 205 365 205 374 c 0
443 112 m 1
 462 202 l 1
 427 211 382 217 337 217 c 0
 222 217 135 165 135 96 c 0
 135 51 170 25 231 25 c 0
 304 25 361 49 443 112 c 1
440 635 m 0
 484 635 516 605 516 563 c 0
 516 507 461 454 402 454 c 0
 358 454 326 485 326 526 c 0
 326 582 382 635 440 635 c 0
433 602 m 0
 396 602 360 568 360 533 c 0
 360 507 381 487 409 487 c 0
 447 487 482 520 482 556 c 0
 482 583 461 602 433 602 c 0
EndSplineSet
Validated: 3073
EndChar

StartChar: uni0224
Encoding: 548 548 471
Width: 600
Flags: HMW
LayerCount: 2
Fore
SplineSet
211 -145 m 0
 225 -145 243 -158 279 -158 c 0
 340 -158 394 -110 408 -42 c 2
 417 0 l 1
 64 0 l 1
 77 59 l 1
 503 519 l 1
 503 522 l 1
 234 522 l 1
 209 404 l 2
 205 385 196 376 183 376 c 0
 172 376 167 381 167 393 c 0
 167 396 167 400 168 404 c 2
 202 563 l 1
 551 563 l 1
 539 505 l 1
 113 45 l 1
 112 41 l 1
 426 41 l 1
 456 182 l 1
 460 200 468 209 482 209 c 0
 493 209 498 204 498 193 c 0
 498 190 498 186 497 182 c 0
 448 -48 l 1
 430 -132 351 -199 269 -199 c 0
 254 -199 189 -193 189 -169 c 0
 189 -158 199 -145 211 -145 c 0
EndSplineSet
Validated: 3073
EndChar

StartChar: uni0225
Encoding: 549 549 472
Width: 600
Flags: HMW
LayerCount: 2
Fore
SplineSet
219 -145 m 0
 232 -145 251 -158 286 -158 c 0
 347 -158 401 -110 416 -42 c 2
 425 0 l 1
 92 0 l 1
 99 36 l 1
 473 376 l 1
 222 376 l 1
 210 321 l 2
 206 303 197 294 184 294 c 0
 173 294 168 299 168 310 c 0
 168 313 168 317 169 321 c 2
 189 417 l 1
 539 417 l 1
 532 381 l 1
 157 41 l 1
 434 41 l 1
 445 97 l 2
 449 115 458 124 472 124 c 0
 483 124 487 118 487 108 c 0
 487 105 487 101 486 97 c 0
 456 -48 l 1
 438 -132 359 -199 277 -199 c 0
 261 -199 196 -193 196 -169 c 0
 196 -157 207 -145 219 -145 c 0
EndSplineSet
Validated: 3073
EndChar

StartChar: uni0228
Encoding: 552 552 475
Width: 600
Flags: HM
LayerCount: 2
Fore
SplineSet
173 -108 m 0
 186 -108 206 -129 236 -129 c 0
 265 -129 287 -115 287 -95 c 0
 287 -82 273 -75 246 -75 c 2
 225 -75 l 1
 241 0 l 1
 70 0 l 2
 54 0 47 5 47 17 c 0
 47 32 59 41 79 41 c 2
 133 41 l 1
 235 522 l 1
 181 522 l 2
 165 522 158 527 158 539 c 0
 158 554 170 563 190 563 c 2
 619 563 l 1
 589 424 l 2
 586 406 577 397 563 397 c 0
 554 397 547 404 547 412 c 0
 547 453 563 484 569 522 c 1
 276 522 l 1
 232 313 l 1
 377 313 l 1
 386 358 l 2
 390 376 399 385 412 385 c 0
 422 385 429 378 429 370 c 0
 429 368 428 362 427 358 c 2
 399 227 l 2
 395 206 387 200 373 200 c 0
 364 200 357 207 357 215 c 0
 357 236 365 253 368 272 c 1
 223 272 l 1
 174 41 l 1
 488 41 l 1
 513 160 l 2
 517 178 526 187 540 187 c 0
 549 187 556 180 556 172 c 0
 556 169 555 165 554 160 c 2
 520 0 l 1
 279 0 l 1
 270 -41 l 1
 306 -42 324 -57 324 -87 c 0
 324 -132 283 -167 230 -167 c 0
 193 -167 149 -148 149 -132 c 0
 149 -119 160 -108 173 -108 c 0
EndSplineSet
Validated: 3073
EndChar

StartChar: uni0229
Encoding: 553 553 476
Width: 600
Flags: HM
LayerCount: 2
Fore
SplineSet
178 -124 m 0
 191 -124 211 -145 241 -145 c 0
 270 -145 292 -131 292 -111 c 0
 292 -98 278 -91 251 -91 c 2
 230 -91 l 1
 247 -10 l 1
 160 9 104 78 104 171 c 0
 104 309 235 431 383 431 c 0
 492 431 570 361 570 262 c 0
 570 248 567 224 562 199 c 1
 146 199 l 1
 145 189 145 181 145 177 c 0
 145 87 213 25 310 25 c 0
 373 25 450 47 498 79 c 0
 507 84 511 86 516 86 c 0
 525 86 531 79 531 70 c 0
 531 36 401 -16 300 -16 c 0
 295 -16 289 -16 284 -15 c 1
 275 -57 l 1
 311 -58 329 -73 329 -103 c 0
 329 -148 288 -183 235 -183 c 0
 198 -183 154 -164 154 -148 c 0
 154 -135 165 -124 178 -124 c 0
155 240 m 1
 529 240 l 1
 530 245 530 250 530 252 c 0
 530 333 466 390 375 390 c 0
 277 390 192 332 155 240 c 1
EndSplineSet
Validated: 3073
EndChar

StartChar: uni0250
Encoding: 592 592 487
Width: 600
Flags: HMW
LayerCount: 2
Fore
SplineSet
111 391 m 0
 111 401 118 417 143 417 c 2
 238 417 l 1
 224 350 l 1
 297 407 363 433 433 433 c 0
 515 433 564 393 564 332 c 0
 564 235 461 159 319 159 c 0
 273 159 243 164 188 180 c 1
 173 109 l 2
 172 104 171 99 171 94 c 0
 171 53 213 27 278 27 c 0
 356 27 408 59 437 59 c 0
 448 59 452 54 452 47 c 0
 452 37 441 22 430 18 c 0
 371 -1 303 -14 266 -14 c 0
 183 -14 130 27 130 87 c 0
 130 94 130 101 132 109 c 2
 188 376 l 1
 134 376 l 2
 119 376 111 381 111 391 c 0
320 200 m 0
 438 200 523 254 523 323 c 0
 523 365 486 392 425 392 c 0
 354 392 295 368 214 305 c 1
 195 215 l 1
 229 206 276 200 320 200 c 0
EndSplineSet
Validated: 3073
EndChar

StartChar: ascript
Encoding: 593 593 488
Width: 600
Flags: HMW
LayerCount: 2
Fore
SplineSet
242 25 m 0
 338 25 462 115 462 247 c 0
 462 330 405 390 318 390 c 0
 186 390 97 265 97 169 c 0
 97 86 155 25 242 25 c 0
55 160 m 0
 55 277 165 431 324 431 c 0
 399 431 450 398 484 327 c 1
 505 429 l 1
 509 447 518 456 531 456 c 0
 542 456 547 450 547 440 c 0
 547 437 546.834 432.944 546 429 c 2
 464 41 l 1
 518 41 l 2
 534 41 541 35 541 25 c 0
 541 15 535 0 509 0 c 2
 414 0 l 1
 433 89 l 1
 371 19 304 -16 229 -16 c 0
 126 -16 55 60 55 160 c 0
EndSplineSet
Validated: 3073
EndChar

StartChar: uni0253
Encoding: 595 595 490
Width: 600
Flags: HMW
LayerCount: 2
Fore
SplineSet
341 390 m 0
 209 390 120 265 120 169 c 0
 120 87 177 25 263 25 c 0
 357 25 484 114 484 246 c 0
 484 330 427 390 341 390 c 0
-38 17 m 0
 -38 26 -32 41 -6 41 c 2
 48 41 l 1
 137 462 l 1
 156 549 236 618 321 618 c 0
 366 618 402 608 402 588 c 0
 402 579 390 566 378 566 c 0
 368 566 352 577 317 577 c 0
 249 577 192 530 178 462 c 0
 150 328 l 1
 215 399 278 431 352 431 c 0
 458 431 527 358 527 258 c 0
 527 140 417 -16 257 -16 c 0
 184 -16 131 18 99 88 c 1
 80 0 l 1
 -15 0 l 2
 -31 0 -38 6 -38 17 c 0
EndSplineSet
Validated: 3073
EndChar

StartChar: uni0254
Encoding: 596 596 491
Width: 600
Flags: HMW
LayerCount: 2
Fore
SplineSet
269 25 m 0
 460 25 498 204 498 251 c 0
 498 335 441 390 347 390 c 0
 263 390 183 348 168 295 c 0
 162 278 154 271 141 271 c 0
 131 271 126 276 126 287 c 0
 126 290 126 294 127 298 c 2
 147 389 l 2
 151 408 160 417 173 417 c 0
 185 417 189 410 189 401 c 0
 189 393 187 384 185 376 c 1
 233 412 292 431 353 431 c 0
 468 431 540 361 540 257 c 0
 540 189 483 -16 262 -16 c 0
 140 -16 59 49 59 84 c 0
 59 98 72 107 82 107 c 0
 110 107 121 25 269 25 c 0
EndSplineSet
Validated: 3073
EndChar

StartChar: uni0256
Encoding: 598 598 492
Width: 600
Flags: HMW
LayerCount: 2
Fore
SplineSet
245 25 m 0
 341 25 466 115 466 247 c 0
 466 330 409 390 322 390 c 0
 190 390 101 264 101 168 c 0
 101 85 159 25 245 25 c 0
460 579 m 0
 460 589 467 604 492 604 c 2
 587 604 l 1
 450 -42 l 2
 448 -52 447 -62 447 -72 c 0
 447 -124 478 -158 530 -158 c 0
 567 -158 590 -145 603 -145 c 0
 612 -145 617 -152 617 -160 c 0
 617 -193 542 -199 523 -199 c 0
 452 -199 404 -149 404 -81 c 0
 404 -70 406 -59 408 -48 c 2
 437 89 l 1
 375 19 308 -16 233 -16 c 0
 130 -16 59 60 59 160 c 0
 59 320 211 431 328 431 c 0
 403 431 454 398 487 327 c 1
 538 563 l 1
 484 563 l 2
 468 563 460 568 460 579 c 0
EndSplineSet
Validated: 3073
EndChar

StartChar: uni0257
Encoding: 599 599 493
Width: 600
Flags: HMW
LayerCount: 2
Fore
SplineSet
224 25 m 0
 321 25 445 115 445 247 c 0
 445 330 388 390 301 390 c 0
 169 390 80 264 80 169 c 0
 80 86 137 25 224 25 c 0
38 160 m 0
 38 320 190 431 307 431 c 0
 382 431 433 398 467 327 c 1
 495 462 l 1
 514 549 594 618 679 618 c 0
 697 618 760 612 760 590 c 0
 760 577 746 566 736 566 c 0
 726 566 710 577 675 577 c 0
 607 577 550 530 536 462 c 0
 447 41 l 1
 501 41 l 2
 516 41 524 36 524 26 c 0
 524 16 519 0 492 0 c 2
 397 0 l 1
 416 89 l 1
 354 19 287 -16 212 -16 c 0
 109 -16 38 60 38 160 c 0
EndSplineSet
Validated: 3073
EndChar

StartChar: uni0258
Encoding: 600 600 494
Width: 600
Flags: HMW
LayerCount: 2
Fore
SplineSet
60 86 m 0
 80 86 111 25 238 25 c 0
 346 25 441 94 477 199 c 1
 61 199 l 1
 97 367 236 431 340 431 c 0
 452 431 527 360 527 262 c 0
 527 142 407 -16 230 -16 c 0
 142 -16 37 28 37 62 c 0
 37 76 50 86 60 86 c 0
486 240 m 1
 486 242 l 0
 486 333 427 390 331 390 c 0
 234 390 147 331 112 240 c 1
 486 240 l 1
EndSplineSet
Validated: 3073
EndChar

StartChar: schwa
Encoding: 601 601 495
Width: 600
Flags: HMW
LayerCount: 2
Fore
SplineSet
244 -16 m 0
 127 -16 56 61 56 156 c 0
 56 172 59 190 65 216 c 1
 481 216 l 1
 481 222 482 228 482 233 c 0
 482 328 418 390 316 390 c 0
 254 390 176 368 129 336 c 0
 121 331 117 329 112 329 c 0
 103 329 97 336 97 345 c 0
 97 346 97 348 97 349 c 0
 105 384 235 431 326 431 c 0
 444 431 523 353 523 247 c 0
 523 231 522 215 518 198 c 0
 492 77 372 -16 244 -16 c 0
472 175 m 1
 98 175 l 1
 98 169 l 0
 98 81 158 25 253 25 c 0
 350 25 435 83 472 175 c 1
EndSplineSet
Validated: 3073
EndChar

StartChar: uni025B
Encoding: 603 603 496
Width: 600
Flags: HMW
LayerCount: 2
Fore
SplineSet
398 222 m 0
 394 211 384 206 368 206 c 2
 300 206 l 2
 222 206 152 175 132 127 c 0
 130 123 129 116 129 108 c 0
 129 76 153 25 264 25 c 0
 343 25 414 57 432 98 c 0
 435 105 436 116 438 121 c 0
 443 131 451 137 461 137 c 0
 472 137 478 131 478 120 c 0
 478 117 478 114 477 110 c 2
 458 27 l 2
 458 23 456 19 455 16 c 0
 450 5 443 0 432 0 c 0
 420 0 417 7 417 16 c 0
 417 23 418 30 420 38 c 1
 370 1 317 -16 252 -16 c 0
 114 -16 83 51 83 99 c 0
 83 114 86 127 90 136 c 0
 105 172 135 203 191 224 c 1
 193 230 l 1
 180 239 l 2
 161 253 149 275 149 300 c 0
 149 312 152 324 157 336 c 0
 181 392 256 431 345 431 c 0
 402 431 445 416 473 385 c 1
 473 389 474 394 476 398 c 0
 481 409 489 417 500 417 c 0
 510 417 516 412 516 400 c 0
 516 397 515 393 514 389 c 2
 500 320 l 2
 499 316 498 312 496 309 c 0
 492 298 485 293 475 293 c 0
 438 293 498 390 341 390 c 0
 273 390 214 363 198 325 c 0
 196 319 194 313 194 307 c 0
 194 278 224 247 329 247 c 2
 377 247 l 2
 395 247 400 239 400 231 c 0
 400 228 400 225 398 222 c 0
EndSplineSet
Validated: 3073
EndChar

StartChar: uni025C
Encoding: 604 604 497
Width: 600
Flags: HMW
LayerCount: 2
Fore
SplineSet
208 222 m 0
 208 232 215 247 240 247 c 2
 288 247 l 2
 417 247 452 294 452 325 c 0
 452 363 405 390 337 390 c 0
 180 390 199 293 162 293 c 0
 152 293 147 298 147 309 c 0
 147 312 147 316 148 320 c 2
 163 389 l 2
 167 408 176 417 189 417 c 0
 200 417 205 409 205 398 c 0
 205 394 204 389 203 385 c 1
 244 416 293 431 350 431 c 0
 439 431 498 392 498 336 c 0
 498 297 470 259 434 239 c 2
 417 230 l 1
 416 224 l 1
 463 203 480 172 480 136 c 0
 480 100 435 -16 253 -16 c 0
 188 -16 142 1 108 38 c 1
 104 18 99 0 80 0 c 0
 69 0 64 5 64 16 c 0
 64 19 64 23 65 27 c 2
 82 110 l 2
 86 128 95 137 109 137 c 0
 119 137 125 131 125 121 c 0
 125 116 122 105 122 98 c 0
 122 57 180 25 259 25 c 0
 397 25 434 104 434 127 c 0
 434 175 378 206 300 206 c 2
 232 206 l 2
 216 206 208 211 208 222 c 0
EndSplineSet
Validated: 3073
EndChar

StartChar: uni025F
Encoding: 607 607 498
Width: 600
Flags: HMW
LayerCount: 2
Fore
SplineSet
236 15 m 0
 236 26 243 41 268 41 c 2
 401 41 l 1
 472 376 l 1
 231 376 l 2
 216 376 208 381 208 391 c 0
 208 402 215 417 240 417 c 2
 522 417 l 1
 442 41 l 1
 501 41 l 1
 517 41 525 36 525 26 c 0
 525 16 518 0 492 0 c 2
 433 0 l 1
 427 -28 l 2
 408 -121 330 -186 239 -186 c 2
 110 -186 l 2
 94 -186 86 -181 86 -170 c 0
 86 -160 93 -145 119 -145 c 2
 247 -145 l 2
 313 -145 372 -96 386 -28 c 2
 392 0 l 1
 259 0 l 1
 244 0 236 5 236 15 c 0
EndSplineSet
Validated: 3073
EndChar

StartChar: uni0260
Encoding: 608 608 499
Width: 600
Flags: HMW
LayerCount: 2
Fore
SplineSet
237 51 m 0
 334 51 445 139 445 257 c 0
 445 335 391 390 309 390 c 0
 185 390 101 275 101 185 c 0
 101 108 156 51 237 51 c 0
59 176 m 0
 59 325 205 431 315 431 c 0
 388 431 434 401 465 334 c 1
 492 462 l 1
 511 549 591 618 676 618 c 0
 693 618 758 612 758 591 c 0
 758 578 744 566 733 566 c 0
 723 566 707 577 672 577 c 0
 604 577 547 530 533 462 c 0
 429 -28 l 2
 419 -75 355 -186 231 -186 c 2
 117 -186 l 2
 101 -186 93 -181 93 -170 c 0
 93 -160 100 -145 125 -145 c 2
 241 -145 l 2
 309 -145 374 -90 389 -22 c 0
 417 107 l 1
 358 41 297 10 225 10 c 0
 127 10 59 81 59 176 c 0
EndSplineSet
Validated: 3073
EndChar

StartChar: uni0262
Encoding: 610 610 501
Width: 600
Flags: HMW
LayerCount: 2
Fore
SplineSet
523 169 m 0
 523 164 518 144 494 144 c 2
 482 144 l 1
 457 26 l 1
 399 1 338 -12 284 -12 c 0
 157 -12 82 45 82 138 c 0
 82 151 84 165 87 180 c 2
 99 235 l 2
 117 322 213 426 360 426 c 0
 418 426 460 413 494 386 c 1
 497 403 501 416 520 416 c 0
 530 416 538 412 538 402 c 0
 538 400 537 398 537 396 c 2
 523 329 l 2
 520 316 509 309 498 309 c 0
 482 309 481 310 481 318 c 0
 481 324 l 0
 481 359 428 386 353 386 c 0
 225 386 154 303 140 234 c 2
 128 180 l 2
 125 167 124 155 124 144 c 0
 124 67 184 28 295 28 c 0
 341 28 368 33 421 52 c 1
 441 144 l 1
 324 144 l 2
 310 144 304 152 304 161 c 0
 304 166 309 185 332 185 c 2
 502 185 l 2
 517 185 523 177 523 169 c 0
EndSplineSet
Validated: 3073
EndChar

StartChar: uni0263
Encoding: 611 611 502
Width: 600
Flags: HMW
LayerCount: 2
Fore
SplineSet
279 402 m 0
 279 392 272 376 247 376 c 2
 198 376 l 1
 284 37 l 17
 287 37 l 9
 521 376 l 1
 471 376 l 2
 455 376 447 381 447 392 c 0
 447 402 454 417 480 417 c 2
 591 417 l 2
 606 417 614 412 614 402 c 0
 614 392 607 376 582 376 c 2
 567 376 l 1
 297 -13 l 1
 305 -41 312 -67 312 -97 c 0
 312 -179 268 -200 236 -200 c 0
 235 -200 235 -200 234 -200 c 0
 200 -200 186 -176 186 -153 c 0
 186 -128 202 -83 251 -12 c 1
 152 376 l 1
 136 376 l 2
 120 376 112 381 112 392 c 0
 112 402 119 417 145 417 c 2
 256 417 l 2
 271 417 279 412 279 402 c 0
245 -160 m 0
 264 -160 270 -137 270 -111 c 0
 270 -92 267 -72 264 -60 c 1
 252 -78 227 -118 227 -142 c 0
 227 -152 232 -159 245 -160 c 0
EndSplineSet
Validated: 3073
EndChar

StartChar: uni0265
Encoding: 613 613 503
Width: 600
Flags: HMW
LayerCount: 2
Fore
SplineSet
492 -161 m 0
 492 -172 485 -187 460 -187 c 2
 365 -187 l 1
 419 70 l 1
 355 9 309 -14 248 -14 c 0
 166 -14 115 31 115 97 c 0
 115 106 116 116 118 126 c 2
 171 376 l 1
 126 376 l 2
 110 376 102 381 102 391 c 0
 102 402 109 417 135 417 c 2
 266 417 l 2
 282 417 290 412 290 401 c 0
 290 391 283 376 257 376 c 2
 212 376 l 1
 160 129 l 2
 159 122 158 115 158 109 c 0
 158 74 179 27 261 27 c 0
 317 27 349 44 417 108 c 2
 430 121 l 1
 484 376 l 1
 439 376 l 2
 423 376 415 381 415 391 c 0
 415 402 422 417 448 417 c 2
 580 417 l 2
 595 417 604 412 604 401 c 0
 604 391 597 376 571 376 c 2
 525 376 l 1
 415 -146 l 1
 469 -146 l 2
 484 -146 492 -151 492 -161 c 0
EndSplineSet
Validated: 3073
EndChar

StartChar: uni0266
Encoding: 614 614 504
Width: 600
Flags: HMW
LayerCount: 2
Fore
SplineSet
-11 16 m 0
 -11 26 -4 41 21 41 c 2
 67 41 l 1
 157 462 l 1
 175 549 256 618 341 618 c 0
 361 618 422 612 422 590 c 0
 422 578 410 566 398 566 c 0
 386 566 371 577 336 577 c 0
 268 577 213 530 198 462 c 0
 173 347 l 1
 237 408 284 431 345 431 c 0
 426 431 477 386 477 320 c 0
 477 311 476 301 474 291 c 2
 421 41 l 1
 466 41 l 2
 482 41 491 36 491 26 c 0
 491 15 484 0 457 0 c 2
 326 0 l 2
 311 0 303 5 303 15 c 0
 303 26 310 41 335 41 c 2
 380 41 l 1
 433 288 l 2
 434 295 435 301 435 307 c 0
 435 342 414 390 331 390 c 0
 275 390 244 373 176 309 c 2
 162 296 l 1
 108 41 l 1
 153 41 l 2
 169 41 178 36 178 26 c 0
 178 16 171 0 144 0 c 2
 12 0 l 2
 -3 0 -11 5 -11 16 c 0
EndSplineSet
Validated: 3073
EndChar

StartChar: uni0267
Encoding: 615 615 505
Width: 600
Flags: HMW
LayerCount: 2
Fore
SplineSet
419 566 m 0
 407 566 392 577 357 577 c 0
 289 577 234 530 219 462 c 0
 194 347 l 1
 258 408 305 431 366 431 c 0
 447 431 498 386 498 321 c 0
 498 312 497 301 495 291 c 0
 423 -48 l 1
 405 -132 326 -199 244 -199 c 0
 228 -199 164 -192 164 -169 c 0
 164 -158 175 -145 187 -145 c 0
 200 -145 218 -158 254 -158 c 0
 315 -158 370 -110 384 -42 c 0
 454 288 l 1
 455 295 456 302 456 308 c 0
 456 343 435 390 352 390 c 0
 296 390 265 373 197 309 c 2
 183 296 l 1
 129 41 l 1
 174 41 l 2
 190 41 199 36 199 26 c 0
 199 16 192 0 165 0 c 2
 33 0 l 2
 18 0 10 5 10 16 c 0
 10 26 17 41 42 41 c 2
 88 41 l 1
 178 462 l 1
 196 549 277 618 362 618 c 0
 382 618 443 612 443 590 c 0
 443 578 431 566 419 566 c 0
EndSplineSet
Validated: 3073
EndChar

StartChar: uni0268
Encoding: 616 616 506
Width: 600
Flags: HMW
LayerCount: 2
Fore
SplineSet
384 624 m 1
 362 520 l 1
 303 520 l 1
 325 624 l 1
 384 624 l 1
29 16 m 0
 29 26 36 41 61 41 c 2
 221 41 l 1
 255 200 l 1
 95 200 l 2
 80 200 72 205 72 215 c 0
 72 226 77 241 104 241 c 2
 264 241 l 1
 293 376 l 1
 175 376 l 2
 159 376 151 381 151 392 c 0
 151 402 158 417 183 417 c 2
 342 417 l 1
 305 241 l 1
 465 241 l 2
 482 241 489 235 489 225 c 0
 489 215 483 200 456 200 c 2
 296 200 l 1
 262 41 l 1
 422 41 l 2
 438 41 447 36 447 26 c 0
 447 16 440 0 414 0 c 2
 53 0 l 2
 37 0 29 5 29 16 c 0
EndSplineSet
Validated: 3073
EndChar

StartChar: uni0269
Encoding: 617 617 507
Width: 600
Flags: HMW
LayerCount: 2
Fore
SplineSet
472 72 m 0
 472 54 407 -8 324 -8 c 0
 268 -8 238 29 238 83 c 0
 238 94 239 107 242 120 c 10
 299 386 l 1
 238 386 l 2
 225 386 215 392 215 402 c 0
 215 421 229 426 246 426 c 2
 348 426 l 1
 283 120 l 18
 280 108 279 97 279 87 c 0
 279 49 299 33 333 33 c 0
 407 33 434 88 456 88 c 0
 465 88 472 81 472 72 c 0
EndSplineSet
Validated: 3073
EndChar

StartChar: uni026A
Encoding: 618 618 508
Width: 600
Flags: HMW
LayerCount: 2
Fore
SplineSet
505 401 m 0
 505 396 500 376 476 376 c 2
 357 376 l 1
 285 41 l 1
 404 41 l 2
 419 41 425 33 425 24 c 0
 425 18 419 0 396 0 c 2
 115 0 l 2
 101 0 95 8 95 17 c 0
 95 23 100 41 123 41 c 2
 244 41 l 1
 316 376 l 1
 195 376 l 2
 181 376 175 384 175 393 c 0
 175 398 180 417 203 417 c 2
 484 417 l 2
 499 417 505 409 505 401 c 0
EndSplineSet
Validated: 3073
EndChar

StartChar: uni026B
Encoding: 619 619 509
Width: 600
Flags: HMW
LayerCount: 2
Fore
SplineSet
194 578 m 0
 194 589 201 604 226 604 c 2
 384 604 l 1
 318 291 l 1
 350 260 360 253 376 253 c 0
 430 253 469 330 494 330 c 0
 504 330 510 323 510 314 c 0
 510 297 429 212 370 212 c 0
 348 212 332 218 307 239 c 1
 265 41 l 1
 425 41 l 2
 441 41 449 36 449 26 c 0
 449 15 442 0 416 0 c 2
 55 0 l 2
 39 0 31 5 31 16 c 0
 31 26 38 41 64 41 c 2
 224 41 l 1
 273 272 l 1
 252 293 233 307 213 307 c 0
 161 307 121 230 96 230 c 0
 86 230 81 234 81 241 c 0
 81 252 93 271 118 294 c 0
 161 333 189 348 222 348 c 0
 246 348 259 343 283 323 c 1
 334 563 l 1
 217 563 l 2
 202 563 194 568 194 578 c 0
EndSplineSet
Validated: 3073
EndChar

StartChar: uni026D
Encoding: 621 621 510
Width: 600
Flags: HMW
LayerCount: 2
Fore
SplineSet
215 579 m 0
 215 589 222 604 247 604 c 2
 405 604 l 1
 268 -42 l 1
 266 -52 265 -62 265 -72 c 0
 265 -124 296 -158 348 -158 c 0
 385 -158 408 -145 421 -145 c 0
 430 -145 435 -152 435 -160 c 0
 435 -193 360 -199 341 -199 c 0
 270 -199 222 -149 222 -81 c 0
 222 -70 224 -59 226 -48 c 0
 356 563 l 1
 239 563 l 2
 223 563 215 568 215 579 c 0
EndSplineSet
Validated: 3073
EndChar

StartChar: uni026F
Encoding: 623 623 511
Width: 600
Flags: HMW
LayerCount: 2
Fore
SplineSet
555 26 m 0
 555 15 550 0 523 0 c 2
 449 0 l 1
 460 52 l 1
 416 4 383 -14 341 -14 c 0
 298 -14 271 9 259 57 c 1
 210 7 172 -14 131 -14 c 0
 81 -14 47 23 47 72 c 0
 47 79 47 86 49 94 c 2
 109 376 l 1
 75 376 l 2
 59 376 52 382 52 392 c 0
 52 402 58 417 84 417 c 2
 158 417 l 1
 90 98 l 2
 89 93 88 88 88 83 c 0
 88 52 111 27 141 27 c 0
 177 27 212 51 262 109 c 1
 319 376 l 1
 285 376 l 2
 269 376 262 382 262 392 c 0
 262 402 268 417 294 417 c 2
 368 417 l 1
 301 101 l 2
 300 95 299 90 299 85 c 0
 299 53 321 27 350 27 c 0
 385 27 422 52 472 109 c 1
 529 376 l 1
 495 376 l 2
 479 376 472 382 472 392 c 0
 472 407 484 417 504 417 c 2
 613 417 l 2
 627 417 635 412 635 402 c 0
 635 391 630 376 603 376 c 2
 569 376 l 1
 498 41 l 1
 532 41 l 2
 547 41 555 36 555 26 c 0
EndSplineSet
Validated: 3073
EndChar

StartChar: uni0270
Encoding: 624 624 512
Width: 600
Flags: HMW
LayerCount: 2
Fore
SplineSet
534 -160 m 0
 534 -171 527 -186 502 -186 c 2
 428 -186 l 1
 479 52 l 1
 434 4 401 -14 359 -14 c 0
 316 -14 289 9 278 57 c 1
 228 7 190 -14 149 -14 c 0
 99 -14 65 23 65 72 c 0
 65 79 65 86 67 94 c 2
 127 376 l 1
 93 376 l 2
 78 376 70 381 70 391 c 0
 70 401 77 417 102 417 c 2
 176 417 l 1
 108 98 l 2
 107 93 106 88 106 83 c 0
 106 52 129 27 159 27 c 0
 195 27 230 51 281 109 c 1
 337 376 l 1
 303 376 l 2
 288 376 280 381 280 391 c 0
 280 401 287 417 312 417 c 2
 386 417 l 1
 319 101 l 2
 318 96 317 91 317 86 c 0
 317 53 339 27 368 27 c 0
 403 27 441 52 491 109 c 1
 547 376 l 1
 513 376 l 2
 498 376 490 381 490 391 c 0
 490 401 497 417 522 417 c 2
 631 417 l 2
 646 417 654 412 654 401 c 0
 654 391 647 376 621 376 c 2
 587 376 l 1
 477 -145 l 1
 511 -145 l 2
 526 -145 534 -150 534 -160 c 0
EndSplineSet
Validated: 3073
EndChar

StartChar: uni0271
Encoding: 625 625 513
Width: 600
Flags: HMW
LayerCount: 2
Fore
SplineSet
70 391 m 0
 70 402 75 417 102 417 c 2
 176 417 l 1
 165 365 l 1
 209 413 242 431 284 431 c 0
 327 431 354 408 366 360 c 1
 415 410 453 431 494 431 c 0
 544 431 579 394 579 346 c 0
 579 339 578 331 576 323 c 0
 497 -48 l 1
 479 -132 401 -199 319 -199 c 0
 305 -199 239 -193 239 -169 c 0
 239 -158 250 -145 262 -145 c 0
 275 -145 293 -158 329 -158 c 0
 390 -158 444 -110 458 -42 c 0
 535 319 l 1
 536 324 537 329 537 334 c 0
 537 365 514 390 484 390 c 0
 448 390 413 366 363 308 c 1
 306 41 l 1
 340 41 l 2
 356 41 364 36 364 26 c 0
 364 16 357 0 331 0 c 2
 257 0 l 1
 325 316 l 2
 326 321 327 326 327 331 c 0
 327 364 305 390 275 390 c 0
 240 390 203 365 153 308 c 1
 96 41 l 1
 130 41 l 2
 146 41 154 36 154 26 c 0
 154 16 147 0 121 0 c 2
 12 0 l 2
 -2 0 -10 5 -10 15 c 0
 -10 26 -3 41 22 41 c 2
 56 41 l 1
 127 376 l 1
 93 376 l 2
 78 376 70 381 70 391 c 0
EndSplineSet
Validated: 3073
EndChar

StartChar: uni0272
Encoding: 626 626 514
Width: 600
Flags: HMW
LayerCount: 2
Fore
SplineSet
478 307 m 0
 478 341 458 390 377 390 c 0
 300 390 257 346 205 294 c 1
 132 -48 l 1
 114 -132 35 -199 -47 -199 c 0
 -61 -199 -127 -193 -127 -169 c 0
 -127 -158 -116 -145 -104 -145 c 0
 -91 -145 -73 -158 -37 -158 c 0
 24 -158 78 -110 92 -42 c 0
 181 376 l 1
 147 376 l 2
 132 376 124 381 124 391 c 0
 124 402 129 417 156 417 c 2
 231 417 l 1
 216 348 l 1
 288 412 328 431 390 431 c 0
 469 431 521 385 521 321 c 0
 521 313 520 304 518 295 c 2
 464 41 l 1
 498 41 l 2
 514 41 522 36 522 26 c 0
 522 16 515 0 489 0 c 2
 380 0 l 2
 365 0 357 5 357 15 c 0
 357 26 364 41 389 41 c 2
 423 41 l 1
 476 288 l 2
 477 295 478 301 478 307 c 0
EndSplineSet
Validated: 3073
EndChar

StartChar: uni0273
Encoding: 627 627 515
Width: 600
Flags: HMW
LayerCount: 2
Fore
SplineSet
124 391 m 0
 124 402 129 417 156 417 c 2
 231 417 l 1
 216 348 l 1
 288 412 328 431 390 431 c 0
 469 431 521 385 521 321 c 0
 521 313 520 304 518 295 c 0
 446 -42 l 1
 444 -52 443 -62 443 -71 c 0
 443 -123 475 -158 527 -158 c 0
 564 -158 586 -145 600 -145 c 0
 608 -145 614 -151 614 -159 c 0
 614 -193 539 -199 519 -199 c 0
 448 -199 400 -149 400 -81 c 0
 400 -70 402 -59 404 -48 c 0
 476 288 l 1
 477 295 478 301 478 307 c 0
 478 341 458 390 377 390 c 0
 300 390 257 346 205 294 c 1
 151 41 l 1
 196 41 l 2
 212 41 220 36 220 26 c 0
 220 16 213 0 187 0 c 2
 56 0 l 2
 40 0 32 5 32 15 c 0
 32 25 37 41 65 41 c 2
 110 41 l 1
 181 376 l 1
 147 376 l 2
 132 376 124 381 124 391 c 0
EndSplineSet
Validated: 3073
EndChar

StartChar: uni0274
Encoding: 628 628 516
Width: 600
Flags: HMW
LayerCount: 2
Fore
SplineSet
570 401 m 0
 570 395 565 376 542 376 c 2
 515 376 l 1
 435 0 l 1
 386 0 l 1
 197 363 l 1
 128 41 l 1
 192 41 l 2
 206 41 212 33 212 24 c 0
 212 19 207 0 184 0 c 2
 52 0 l 2
 38 0 32 8 32 17 c 0
 32 23 37 41 60 41 c 2
 87 41 l 1
 159 376 l 1
 114 376 l 2
 100 376 94 384 94 393 c 0
 94 398 99 417 122 417 c 2
 215 417 l 1
 405 54 l 1
 474 376 l 1
 411 376 l 2
 396 376 390 384 390 393 c 0
 390 398 394 417 419 417 c 2
 550 417 l 2
 564 417 570 409 570 401 c 0
EndSplineSet
Validated: 3073
EndChar

StartChar: uni0275
Encoding: 629 629 517
Width: 600
Flags: HMW
LayerCount: 2
Fore
SplineSet
67 161 m 0
 67 321 224 431 348 431 c 0
 459 431 532 357 532 254 c 0
 532 83 366 -16 252 -16 c 0
 141 -16 67 59 67 161 c 0
490 228 m 1
 491 234 491 240 491 245 c 0
 491 329 430 390 339 390 c 0
 242 390 148 319 118 228 c 1
 490 228 l 1
482 188 m 1
 110 188 l 1
 109 182 109 175 109 169 c 0
 109 87 171 25 261 25 c 0
 358 25 454 97 482 188 c 1
EndSplineSet
Validated: 3073
EndChar

StartChar: uni0276
Encoding: 630 630 518
Width: 600
Flags: HMW
LayerCount: 2
Fore
SplineSet
9 168 m 0
 9 261 68 417 302 417 c 2
 611 417 l 1
 579 263 l 2
 575 245 566 236 553 236 c 0
 542 236 537 241 537 252 c 0
 537 255 537 259 538 263 c 2
 562 376 l 1
 377 376 l 1
 347 239 l 1
 422 239 l 1
 427 261 429 293 455 293 c 0
 465 293 470 288 470 277 c 0
 470 274 470 270 469 266 c 2
 449 170 l 2
 445 152 436 143 423 143 c 0
 410 143 406 150 406 160 c 0
 406 172 412 188 414 198 c 1
 339 198 l 1
 305 41 l 1
 510 41 l 1
 530 133 l 2
 534 153 542 160 556 160 c 0
 567 160 572 153 572 141 c 0
 572 139 572 136 571 133 c 2
 543 0 l 1
 221 0 l 2
 88 0 9 66 9 168 c 0
300 376 m 2
 85 372 50 257 50 176 c 0
 50 92 110 41 232 41 c 1
 264 41 l 1
 336 376 l 1
 300 376 l 2
EndSplineSet
Validated: 3073
EndChar

StartChar: uni027B
Encoding: 635 635 521
Width: 600
Flags: HMW
LayerCount: 2
Fore
SplineSet
571 401 m 0
 571 387 558 376 539 376 c 2
 443 376 l 1
 354 -42 l 1
 352 -53 350 -63 350 -73 c 0
 350 -124 383 -158 434 -158 c 0
 471 -158 494 -145 507 -145 c 0
 516 -145 521 -152 521 -160 c 0
 521 -193 446 -199 427 -199 c 0
 356 -199 308 -149 308 -81 c 0
 308 -70 310 -59 312 -48 c 0
 344 102 l 1
 233 18 178 -10 127 -10 c 0
 71 -10 40 35 40 48 c 0
 40 54 45 73 65 73 c 0
 84 73 94 31 138 31 c 0
 183 31 223 54 355 155 c 1
 402 376 l 1
 223 376 l 2
 208 376 199 382 199 392 c 0
 199 406 212 417 231 417 c 2
 547 417 l 2
 562 417 571 411 571 401 c 0
EndSplineSet
Validated: 3073
EndChar

StartChar: uni027C
Encoding: 636 636 522
Width: 600
Flags: HMW
LayerCount: 2
Fore
SplineSet
163 392 m 0
 163 407 176 417 195 417 c 2
 311 417 l 1
 289 315 l 1
 400 399 455 427 506 427 c 0
 562 427 593 382 593 369 c 0
 593 359 583 344 568 344 c 0
 549 344 538 386 494 386 c 0
 449 386 410 363 278 262 c 1
 192 -145 l 1
 371 -145 l 2
 386 -145 394 -151 394 -161 c 0
 394 -176 381 -186 362 -186 c 2
 46 -186 l 2
 31 -186 23 -180 23 -169 c 0
 23 -155 37 -145 55 -145 c 2
 151 -145 l 1
 261 376 l 1
 186 376 l 2
 171 376 163 382 163 392 c 0
EndSplineSet
Validated: 3073
EndChar

StartChar: uni027D
Encoding: 637 637 523
Width: 600
Flags: HMW
LayerCount: 2
Fore
SplineSet
569 344 m 0
 551 344 540 386 496 386 c 0
 451 386 411 363 279 262 c 1
 215 -42 l 1
 213 -53 211 -63 211 -73 c 0
 211 -124 244 -158 295 -158 c 0
 332 -158 355 -145 368 -145 c 0
 377 -145 382 -152 382 -160 c 0
 382 -193 307 -199 287 -199 c 0
 216 -199 169 -149 169 -82 c 0
 169 -71 171 -60 173 -48 c 0
 263 376 l 1
 188 376 l 2
 173 376 164 382 164 392 c 0
 164 406 177 417 196 417 c 2
 312 417 l 1
 291 315 l 1
 402 399 457 427 508 427 c 0
 564 427 594 382 594 369 c 0
 594 363 589 344 569 344 c 0
EndSplineSet
Validated: 3073
EndChar

StartChar: uni027E
Encoding: 638 638 524
Width: 600
Flags: HMW
LayerCount: 2
Fore
SplineSet
415 25 m 0
 415 15 408 0 383 0 c 2
 67 0 l 1
 51 0 43 5 43 15 c 0
 43 26 50 41 75 41 c 2
 171 41 l 1
 218 259 l 2
 238 352 315 417 406 417 c 2
 535 417 l 2
 551 417 559 412 559 401 c 0
 559 391 552 376 527 376 c 2
 399 376 l 2
 333 376 273 327 259 259 c 2
 212 41 l 1
 391 41 l 1
 407 41 415 36 415 25 c 0
EndSplineSet
Validated: 3073
EndChar

StartChar: uni027F
Encoding: 639 639 525
Width: 600
Flags: HMW
LayerCount: 2
Fore
SplineSet
67 -184 m 0
 67 -174 72.6973 -159 99 -159 c 2
 278 -159 l 1
 364 259 l 2
 366.055 268.988 367 278 367 287 c 0
 367 340 330 376 274 376 c 2
 146 376 l 2
 128 376 122 384 122 392 c 0
 122 402 128.6 417 155 417 c 2
 284 417 l 2
 362 417 409 370 409 298 c 0
 409 286 407.885 273.022 405 259 c 2
 319 -159 l 1
 415 -159 l 2
 433 -159 439 -167 439 -175 c 0
 439 -180.05 435.975 -200 406 -200 c 2
 90 -200 l 2
 72 -200 67 -192 67 -184 c 0
EndSplineSet
Validated: 3073
EndChar

StartChar: uni0280
Encoding: 640 640 526
Width: 600
Flags: HMW
LayerCount: 2
Fore
SplineSet
500 24 m 0
 500 20 495 0 472 0 c 2
 422 0 l 1
 370 120 339 155 277 181 c 1
 164 181 l 1
 134 41 l 1
 197 41 l 2
 211 41 217 33 217 24 c 0
 217 20 212 0 189 0 c 2
 40 0 l 2
 26 0 20 8 20 17 c 0
 20 23 25 41 48 41 c 2
 93 41 l 1
 164 374 l 1
 119 374 l 2
 105 374 100 383 100 392 c 0
 100 397 105 417 128 417 c 2
 346 417 l 2
 423 417 482 373 482 318 c 0
 482 268 429 216 335 194 c 1
 380 166 405 145 453 41 c 1
 480 41 l 2
 494 41 500 33 500 24 c 0
270 221 m 2
 338 221 440 257 440 310 c 0
 440 348 389 374 337 374 c 2
 205 374 l 1
 173 221 l 1
 270 221 l 2
EndSplineSet
Validated: 3073
EndChar

StartChar: Rturnsmallcap
Encoding: 641 641 527
Width: 600
Flags: HMW
LayerCount: 2
Fore
SplineSet
667 393 m 0
 663 384 654 376 640 376 c 2
 613 376 l 1
 520 272 486 251 430 223 c 1
 497 205 530 169 530 129 c 0
 530 119 528 109 524 99 c 0
 500 44 423 0 346 0 c 2
 128 0 l 2
 112 0 109 9 109 16 c 0
 109 20 110 23 110 25 c 0
 114 34 123 43 137 43 c 2
 182 43 l 1
 253 376 l 1
 208 376 l 2
 192 376 188 384 188 392 c 0
 188 395 189 398 190 400 c 0
 194 409 203 417 217 417 c 2
 366 417 l 2
 382 417 385 408 385 400 c 0
 385 397 384 394 384 393 c 0
 380 384 371 376 357 376 c 2
 294 376 l 1
 264 236 l 1
 377 236 l 1
 450 262 496 297 599 417 c 1
 649 417 l 2
 665 417 668 408 668 400 c 0
 668 397 667 394 667 393 c 0
353 196 m 2
 256 196 l 1
 223 43 l 1
 355 43 l 2
 407 43 469 69 485 107 c 0
 488 113 489 118 489 124 c 0
 489 168 414 196 353 196 c 2
EndSplineSet
Validated: 3073
EndChar

StartChar: uni0282
Encoding: 642 642 528
Width: 600
Flags: HMW
LayerCount: 2
Fore
SplineSet
191 -158 m 0
 228 -158 250 -145 264 -145 c 0
 274 -145 278 -150 278 -157 c 0
 278 -167 270 -179 261 -183 c 0
 242 -192 208 -199 183 -199 c 0
 112 -199 64 -149 64 -81 c 0
 64 -70 66 -59 68 -48 c 0
 102 110 l 1
 106 128 114 137 128 137 c 0
 138 137 145 131 145 121 c 0
 145 113 141 111 141 99 c 0
 141 57 200 25 279 25 c 0
 418 25 453 103 453 128 c 0
 453 180 398 198 319 207 c 0
 247 215 165 225 165 300 c 0
 165 333 206 431 362 431 c 0
 419 431 461 416 489 385 c 1
 493 402 502 417 517 417 c 0
 527 417 532 412 532 400 c 0
 532 397 532 393 531 389 c 2
 516 320 l 2
 513 302 504 293 491 293 c 0
 481 293 475 298 475 310 c 0
 475 315 475 316 475 321 c 0
 475 363 430 390 357 390 c 0
 241 390 210 326 210 308 c 0
 210 207 499 292 499 139 c 0
 499 132 499 124 497 116 c 0
 481 40 386 -16 273 -16 c 0
 208 -16 162 1 127 38 c 1
 110 -42 l 1
 108 -52 107 -62 107 -71 c 0
 107 -123 139 -158 191 -158 c 0
EndSplineSet
Validated: 3073
EndChar

StartChar: uni0283
Encoding: 643 643 529
Width: 600
Flags: HMW
LayerCount: 2
Fore
SplineSet
564 566 m 0
 554 566 537 577 502 577 c 0
 434 577 377 530 363 462 c 0
 278 58 l 1
 260 -26 180 -93 98 -93 c 0
 83 -93 18 -87 18 -63 c 0
 18 -51 29 -39 41 -39 c 0
 54 -39 73 -52 108 -52 c 0
 169 -52 224 -4 238 64 c 0
 322 462 l 1
 341 549 422 618 507 618 c 0
 526 618 588 612 588 590 c 0
 588 578 575 566 564 566 c 0
EndSplineSet
Validated: 3073
EndChar

